<svg width="16" height="16" viewBox="0 0 16 16" fill="none" xmlns="http://www.w3.org/2000/svg">
<path fill-rule="evenodd" clip-rule="evenodd" d="M6.81589 0.769263C7.17139 0.606636 7.55773 0.522461 7.94867 0.522461C8.3396 0.522461 8.72594 0.606636 9.08144 0.769263C11.6447 1.94297 13.5541 3.62167 14.4737 4.52736C14.9694 5.01552 15.2345 5.66641 15.2718 6.33809C15.3173 7.16555 15.3751 8.50759 15.3751 10.0213C15.3751 11.0893 15.3464 12.0716 15.3134 12.8479C15.2893 13.4443 15.04 14.0095 14.6157 14.4293C14.1914 14.8491 13.6237 15.0924 13.027 15.1102C11.8791 15.1498 10.173 15.1891 7.94867 15.1891C5.72437 15.1891 4.01827 15.1494 2.87032 15.1102C2.27367 15.0924 1.70595 14.8491 1.28164 14.4293C0.857335 14.0095 0.608016 13.4443 0.583969 12.8479C0.543613 11.9062 0.523035 10.9638 0.522247 10.0213C0.522247 8.50759 0.580008 7.16555 0.625557 6.33809C0.662854 5.66641 0.927895 5.01552 1.42365 4.52736C2.3432 3.62167 4.25295 1.94297 6.81589 0.769263ZM5.30816 11.7234C5.13308 11.7234 4.96518 11.7929 4.84138 11.9167C4.71758 12.0405 4.64804 12.2084 4.64804 12.3835C4.64804 12.5586 4.71758 12.7265 4.84138 12.8503C4.96518 12.9741 5.13308 13.0436 5.30816 13.0436H10.5892C10.7642 13.0436 10.9322 12.9741 11.0559 12.8503C11.1797 12.7265 11.2493 12.5586 11.2493 12.3835C11.2493 12.2084 11.1797 12.0405 11.0559 11.9167C10.9322 11.7929 10.7642 11.7234 10.5892 11.7234H5.30816Z" stroke="#69686C" stroke-width="1.04452"/>
</svg>
