<svg width="15" height="15" viewBox="0 0 15 15" fill="none" xmlns="http://www.w3.org/2000/svg">
<rect x="2.97038" y="10.5603" width="8.9117" height="2.31044" rx="1.15522" fill="white"/>
<path fill-rule="evenodd" clip-rule="evenodd" d="M6.29364 0.246802C6.64914 0.0841749 7.03549 0 7.42642 0C7.81735 0 8.2037 0.0841749 8.55919 0.246802C11.1225 1.42051 13.0319 3.09921 13.9514 4.0049C14.4472 4.49306 14.7122 5.14395 14.7495 5.81563C14.7951 6.64309 14.8528 7.98513 14.8528 9.4988C14.8528 10.5669 14.8241 11.5492 14.7911 12.3255C14.7671 12.9219 14.5177 13.487 14.0934 13.9068C13.6691 14.3267 13.1014 14.57 12.5048 14.5877C11.3568 14.6273 9.65071 14.6666 7.42642 14.6666C5.20212 14.6666 3.49603 14.627 2.34807 14.5877C1.75143 14.57 1.1837 14.3267 0.759394 13.9068C0.335087 13.487 0.0857692 12.9219 0.0617218 12.3255C0.0213659 11.3838 0.000787385 10.4413 0 9.4988C0 7.98513 0.057761 6.64309 0.10331 5.81563C0.140607 5.14395 0.405647 4.49306 0.901402 4.0049C1.82096 3.09921 3.7307 1.42051 6.29364 0.246802ZM4.78591 11.2009C4.61084 11.2009 4.44293 11.2705 4.31913 11.3943C4.19534 11.5181 4.12579 11.686 4.12579 11.8611C4.12579 12.0361 4.19534 12.204 4.31913 12.3278C4.44293 12.4516 4.61084 12.5212 4.78591 12.5212H10.0669C10.242 12.5212 10.4099 12.4516 10.5337 12.3278C10.6575 12.204 10.727 12.0361 10.727 11.8611C10.727 11.686 10.6575 11.5181 10.5337 11.3943C10.4099 11.2705 10.242 11.2009 10.0669 11.2009H4.78591Z" fill="url(#paint0_linear_1_2158)"/>
<defs>
<linearGradient id="paint0_linear_1_2158" x1="7.42642" y1="0" x2="7.42642" y2="14.6666" gradientUnits="userSpaceOnUse">
<stop stop-color="#78777C"/>
<stop offset="1" stop-color="#545456"/>
</linearGradient>
</defs>
</svg>
