<svg width="21" height="18" viewBox="0 0 21 18" fill="none" xmlns="http://www.w3.org/2000/svg">
<path d="M10.0833 15.8333C8.80683 16.4294 7.12879 16.7917 5.29167 16.7917C4.27008 16.7917 3.29833 16.6795 2.41667 16.4783C0.900583 16.1304 0.5 15.2392 0.5 13.8074V3.48425C0.5 2.54029 1.49667 1.89246 2.41667 2.10329C3.29833 2.30454 4.27008 2.41667 5.29167 2.41667C7.12879 2.41667 8.80683 2.05442 10.0833 1.45833C11.3598 0.86225 13.0379 0.5 14.875 0.5C15.8966 0.5 16.8683 0.612125 17.75 0.813375C19.2661 1.16125 19.6667 2.0525 19.6667 3.48425V13.8074C19.6667 14.7514 18.67 15.3992 17.75 15.1884C16.8683 14.9871 15.8966 14.875 14.875 14.875C13.0379 14.875 11.3598 15.2372 10.0833 15.8333Z" stroke="black" stroke-linecap="round" stroke-linejoin="round"/>
<path d="M3.85425 9.60417V9.61279M16.3126 7.67983V7.68942M12.4792 8.64583C12.4792 9.28125 12.2268 9.89064 11.7775 10.3399C11.3282 10.7892 10.7188 11.0417 10.0834 11.0417C9.448 11.0417 8.83861 10.7892 8.3893 10.3399C7.94 9.89064 7.68758 9.28125 7.68758 8.64583C7.68758 8.01042 7.94 7.40103 8.3893 6.95172C8.83861 6.50242 9.448 6.25 10.0834 6.25C10.7188 6.25 11.3282 6.50242 11.7775 6.95172C12.2268 7.40103 12.4792 8.01042 12.4792 8.64583Z" stroke="black" stroke-linecap="round" stroke-linejoin="round"/>
</svg>
