<svg width="17" height="17" viewBox="0 0 17 17" fill="none" xmlns="http://www.w3.org/2000/svg">
<g clip-path="url(#clip0_1_2174)">
<path d="M11.5222 9.27994V11.0594C11.5222 11.5117 11.702 11.9479 12.0233 12.2681C12.3435 12.5894 12.8863 12.7692 13.3399 12.7692H0.580078C1.03363 12.7692 1.5765 12.5894 1.89666 12.2681C2.05565 12.1095 2.18177 11.9211 2.26776 11.7137C2.35376 11.5063 2.39794 11.2839 2.39777 11.0594V6.88226C2.39777 5.67229 2.87843 4.51187 3.73401 3.65629C4.58959 2.80071 5.75001 2.32005 6.95998 2.32005M5.8 15.6598H8.11996M12.4699 6.37999C13.239 6.37999 13.9766 6.07446 14.5205 5.53061C15.0643 4.98676 15.3698 4.24915 15.3698 3.48003C15.3698 2.71092 15.0643 1.9733 14.5205 1.42946C13.9766 0.885608 13.239 0.580078 12.4699 0.580078C11.7008 0.580078 10.9632 0.885608 10.4193 1.42946C9.87547 1.9733 9.56994 2.71092 9.56994 3.48003C9.56994 4.24915 9.87547 4.98676 10.4193 5.53061C10.9632 6.07446 11.7008 6.37999 12.4699 6.37999Z" stroke="black" stroke-width="1.15998" stroke-linecap="round" stroke-linejoin="round"/>
</g>
<defs>
<clipPath id="clip0_1_2174">
<rect width="16.2397" height="16.2397" fill="white"/>
</clipPath>
</defs>
</svg>
