<svg width="13" height="13" viewBox="0 0 13 13" fill="none" xmlns="http://www.w3.org/2000/svg">
<path fill-rule="evenodd" clip-rule="evenodd" d="M11.785 6.44149L6.42971 11.7735C5.71597 12.4703 4.75602 12.8573 3.75854 12.8502C2.76105 12.8432 1.80668 12.4427 1.10287 11.7358C0.399066 11.0289 0.00272742 10.0728 1.4024e-05 9.07529C-0.00269938 8.07778 0.388432 7.11953 1.08838 6.40883L6.44371 1.07683C7.15746 0.379984 8.11741 -0.00696642 9.11489 9.49754e-05C10.1124 0.00715638 11.0668 0.407659 11.7706 1.11454C12.4744 1.82142 12.8707 2.77753 12.8734 3.77504C12.8761 4.77254 12.485 5.7308 11.785 6.44149ZM10.8517 2.0295C10.3928 1.56922 9.77 1.30986 9.12004 1.30836C8.47007 1.30686 7.84608 1.56334 7.38505 2.0215L2.02905 7.35349C1.56819 7.81232 1.30847 8.43543 1.30704 9.08574C1.3056 9.73605 1.56256 10.3603 2.02138 10.8212C2.48021 11.282 3.10331 11.5417 3.75363 11.5432C4.40394 11.5446 5.02819 11.2877 5.48905 10.8288L10.8444 5.49683C11.3049 5.03789 11.5643 4.41494 11.5658 3.76482C11.5673 3.11469 11.3107 2.49055 10.8524 2.0295H10.8517Z" fill="#F59E0B"/>
<path fill-rule="evenodd" clip-rule="evenodd" d="M3.94836 3.92566C4.07338 3.80068 4.24292 3.73047 4.4197 3.73047C4.59647 3.73047 4.76601 3.80068 4.89103 3.92566L8.92436 7.95899C9.0458 8.08473 9.113 8.25313 9.11148 8.42793C9.10996 8.60272 9.03985 8.76993 8.91624 8.89354C8.79264 9.01714 8.62543 9.08726 8.45063 9.08878C8.27583 9.09029 8.10743 9.0231 7.9817 8.90166L3.94836 4.86833C3.82338 4.74331 3.75317 4.57377 3.75317 4.39699C3.75317 4.22022 3.82338 4.05068 3.94836 3.92566Z" fill="#F59E0B"/>
</svg>
