<svg width="17" height="18" viewBox="0 0 17 18" fill="none" xmlns="http://www.w3.org/2000/svg">
<path d="M16.1593 17.751C16.5735 17.751 16.9093 17.4152 16.9093 17.001C16.9093 16.5868 16.5735 16.251 16.1593 16.251V17.001V17.751ZM10.1593 16.251C9.74508 16.251 9.40928 16.5868 9.40928 17.001C9.40928 17.4152 9.74508 17.751 10.1593 17.751V17.001V16.251ZM12.0875 7.4651L11.438 7.0901L7.63947 13.6692L8.28907 14.0442L8.93858 14.4192L12.737 7.8401L12.0875 7.4651ZM1.36084 10.0442L2.01035 10.4192L5.80879 3.84013L5.15927 3.46513L4.50975 3.09013L0.711315 9.6692L1.36084 10.0442ZM6.28056 15.77L6.00763 15.0714C4.91116 15.4998 4.16439 15.7895 3.58791 15.9242C3.03104 16.0543 2.77835 16.0028 2.59915 15.8994L2.22415 16.5489L1.84915 17.1984C2.50242 17.5756 3.20329 17.5545 3.92918 17.3849C4.63546 17.2199 5.50066 16.8799 6.55348 16.4685L6.28056 15.77ZM0.870535 12.6465L0.129085 12.7594C0.299275 13.8768 0.437425 14.7961 0.647665 15.4903C0.863735 16.2037 1.19588 16.8213 1.84915 17.1984L2.22415 16.5489L2.59915 15.8994C2.41997 15.7959 2.24902 15.6028 2.08326 15.0555C1.91166 14.4889 1.78923 13.6973 1.61198 12.5336L0.870535 12.6465ZM1.36084 10.0442L0.711315 9.6692C0.389495 10.2266 0.131835 10.6534 0.039655 11.1426L0.776685 11.2815L1.51371 11.4203C1.54767 11.2401 1.6374 11.0652 2.01035 10.4192L1.36084 10.0442ZM0.870535 12.6465L1.61198 12.5336C1.49967 11.7961 1.47976 11.6006 1.51371 11.4203L0.776685 11.2815L0.039655 11.1426C-0.052525 11.6318 0.0321749 12.1231 0.129085 12.7594L0.870535 12.6465ZM8.28907 14.0442L7.63947 13.6692C7.26657 14.3152 7.15987 14.4804 7.02087 14.5999L7.50957 15.1687L7.99837 15.7376C8.37597 15.4132 8.61678 14.9766 8.93858 14.4192L8.28907 14.0442ZM6.28056 15.77L6.55348 16.4685C7.15297 16.2343 7.62077 16.062 7.99837 15.7376L7.50957 15.1687L7.02087 14.5999C6.88177 14.7194 6.7024 14.7999 6.00763 15.0714L6.28056 15.77ZM10.6234 2.00103L10.2484 2.65055C11.0833 3.13255 11.6433 3.45771 12.0291 3.75547C12.3977 4.03993 12.5152 4.23154 12.5629 4.40955L13.2873 4.21544L14.0117 4.02133C13.845 3.39914 13.447 2.95495 12.9455 2.56795C12.4613 2.19426 11.7965 1.81231 10.9984 1.35151L10.6234 2.00103ZM12.0875 7.4651L12.737 7.8401C13.1978 7.042 13.5825 6.37885 13.8151 5.81309C14.0559 5.22721 14.1785 4.64351 14.0117 4.02133L13.2873 4.21544L12.5629 4.40955C12.6106 4.58757 12.6047 4.81221 12.4277 5.24288C12.2424 5.69367 11.92 6.25527 11.438 7.0901L12.0875 7.4651ZM10.6234 2.00103L10.9984 1.35151C10.2003 0.890695 9.53708 0.505995 8.97138 0.273465C8.38548 0.0326653 7.80177 -0.0899348 7.17957 0.0767752L7.37367 0.801225L7.56778 1.52567C7.74578 1.47797 7.97048 1.48386 8.40118 1.66086C8.85188 1.84614 9.41348 2.16854 10.2484 2.65055L10.6234 2.00103ZM5.15927 3.46513L5.80879 3.84013C6.29079 3.00527 6.61595 2.44526 6.91367 2.05941C7.19817 1.6908 7.38978 1.57337 7.56778 1.52567L7.37367 0.801225L7.17957 0.0767752C6.55738 0.243485 6.11319 0.641515 5.7262 1.14301C5.3525 1.62726 4.97055 2.29199 4.50975 3.09013L5.15927 3.46513ZM12.0875 7.4651L12.4625 6.8156L5.53427 2.81561L5.15927 3.46513L4.78427 4.11465L11.7125 8.1146L12.0875 7.4651ZM16.1593 17.001V16.251H10.1593V17.001V17.751H16.1593V17.001Z" fill="black"/>
</svg>
