<svg width="124" height="111" viewBox="0 0 124 111" fill="none" xmlns="http://www.w3.org/2000/svg">
<g clip-path="url(#clip0_59_1922)">
<path opacity="0.896396" fill-rule="evenodd" clip-rule="evenodd" d="M61.8697 108.958C61.8697 108.958 121.004 73.9771 112.437 40.4242C103.871 6.87122 67.4622 14.724 61.8697 32.5713C56.2772 14.724 19.8687 6.87122 11.302 40.4242C2.73528 73.9771 61.8697 108.958 61.8697 108.958Z" fill="#260B0B"/>
<path fill-rule="evenodd" clip-rule="evenodd" d="M61.8698 110.386C61.8698 110.386 133.027 68.2935 122.719 27.9187C112.41 -12.4561 68.5993 -3.00664 61.8698 18.4693C55.1403 -3.00664 11.3293 -12.4561 1.02087 27.9187C-9.28759 68.2935 61.8698 110.386 61.8698 110.386Z" fill="#E9E9E9"/>
<path fill-rule="evenodd" clip-rule="evenodd" d="M73.6094 19.7598C73.8949 19.7598 73.7522 19.7598 73.6094 19.7598Z" stroke="black" stroke-width="0.300663"/>
<g clip-path="url(#clip1_59_1922)">
<path opacity="0.896396" fill-rule="evenodd" clip-rule="evenodd" d="M61.8692 109.261C61.8692 109.261 121.004 74.2798 112.437 40.7269C103.87 7.17395 67.4617 15.0268 61.8692 32.8741C56.2767 15.0268 19.8682 7.17395 11.3015 40.7269C2.73479 74.2798 61.8692 109.261 61.8692 109.261Z" fill="#260B0B"/>
<path fill-rule="evenodd" clip-rule="evenodd" d="M61.8693 110.689C61.8693 110.689 133.027 68.5963 122.718 28.2215C112.41 -12.1533 68.5988 -2.7039 61.8693 18.7721C55.1398 -2.7039 11.3288 -12.1533 1.02038 28.2215C-9.28808 68.5963 61.8693 110.689 61.8693 110.689Z" fill="url(#paint0_linear_59_1922)"/>
<path fill-rule="evenodd" clip-rule="evenodd" d="M32.7848 -0.304013C19.7023 -0.304013 6.17209 7.4233 1.01786 27.6107C-1.54004 37.6291 0.921132 47.7594 6.06337 57.32C14.2173 55.7197 23.9469 54.4109 34.1378 54.3791C43.7849 54.349 53.8326 55.461 63.3022 58.5414C83.1494 64.9978 103.652 61.3365 117.938 56.822C117.941 56.8211 117.945 56.8229 117.948 56.822C122.907 47.4095 125.234 37.4538 122.721 27.6107C112.412 -12.7641 68.6035 -3.30797 61.874 18.168C58.5093 7.43002 45.8673 -0.304013 32.7848 -0.304013ZM6.17612 57.5361C6.38261 57.9167 6.60021 58.2942 6.81503 58.673C6.59996 58.2938 6.38284 57.9172 6.17612 57.5361ZM32.9352 88.8333C33.7066 89.5051 34.471 90.169 35.2371 90.8158C34.4727 90.1705 33.7047 89.5035 32.9352 88.8333ZM58.2754 107.841C58.8223 108.193 59.1976 108.425 59.6284 108.696C59.2187 108.438 58.7857 108.169 58.2754 107.841Z" fill="url(#paint1_radial_59_1922)"/>
<g opacity="0.845833" filter="url(#filter0_f_59_1922)">
<path fill-rule="evenodd" clip-rule="evenodd" d="M74.0385 19.2C74.0385 19.2 72.9735 36.4281 72.3204 48.8368C71.6673 61.2455 70.6023 71.6013 69.7433 80.6212C68.9248 89.2156 57.2872 95.6544 60.2939 101.238C63.3005 106.822 77.4746 99.0905 97.2325 79.3327C116.99 59.5748 120.427 34.2331 116.99 23.4952C113.554 12.7572 95.944 4.16681 87.3536 7.17344C78.7632 10.1801 73.609 20.059 74.0385 19.2Z" fill="url(#paint2_linear_59_1922)"/>
</g>
<path opacity="0.254167" fill-rule="evenodd" clip-rule="evenodd" d="M34.1374 54.9869C23.9465 55.0187 14.2169 56.3275 6.06299 57.9278C21.6442 86.8971 61.8736 110.694 61.8736 110.694C61.8736 110.694 102.565 86.6259 117.947 57.4298C103.661 61.9455 83.1529 65.6068 63.3018 59.1492C53.8322 56.0688 43.7846 54.9568 34.1374 54.9869Z" fill="url(#paint3_linear_59_1922)"/>
<g opacity="0.75" filter="url(#filter1_f_59_1922)">
<path d="M91.1637 5.4668C86.2169 5.4668 81.5916 6.80942 77.6392 9.14404C93.7239 10.2711 106.43 23.4349 106.43 39.4987C106.43 44.9776 104.952 50.1212 102.366 54.5638C111.271 50.4362 117.439 41.5438 117.439 31.2462C117.439 17.0183 105.668 5.46679 91.1637 5.4668Z" fill="#F4D7D7"/>
</g>
<path d="M45.8347 65.2662C44.2953 65.2662 42.9259 65.0163 41.7264 64.5165C40.5336 64.0101 39.5973 63.3204 38.9176 62.4474C38.2379 61.5744 37.898 60.5848 37.898 59.4786C37.898 58.6256 38.0913 57.8426 38.4778 57.1296C38.8709 56.4099 39.404 55.8135 40.0771 55.3403C40.7502 54.8605 41.5032 54.554 42.3362 54.4207V54.2808C41.2433 54.0609 40.357 53.5311 39.6773 52.6915C38.9975 51.8451 38.6577 50.8622 38.6577 49.7427C38.6577 48.6831 38.9676 47.7402 39.5873 46.9139C40.207 46.0809 41.0567 45.4278 42.1362 44.9547C43.2225 44.4749 44.4553 44.235 45.8347 44.235C47.2141 44.235 48.4436 44.4749 49.5232 44.9547C50.6094 45.4345 51.4624 46.0909 52.0821 46.9239C52.7018 47.7502 53.015 48.6898 53.0217 49.7427C53.015 50.8689 52.6685 51.8518 51.9821 52.6915C51.2958 53.5311 50.4161 54.0609 49.3432 54.2808V54.4207C50.1629 54.554 50.9059 54.8605 51.5723 55.3403C52.2454 55.8135 52.7785 56.4099 53.1716 57.1296C53.5715 57.8426 53.7747 58.6256 53.7814 59.4786C53.7747 60.5848 53.4315 61.5744 52.7518 62.4474C52.0721 63.3204 51.1325 64.0101 49.933 64.5165C48.7402 65.0163 47.3741 65.2662 45.8347 65.2662ZM45.8347 62.0875C46.5211 62.0875 47.1208 61.9643 47.634 61.7177C48.1471 61.4645 48.5469 61.1179 48.8334 60.6781C49.1267 60.2316 49.2733 59.7185 49.2733 59.1388C49.2733 58.5457 49.1233 58.0226 48.8235 57.5694C48.5236 57.1096 48.1171 56.7498 47.604 56.4899C47.0908 56.2233 46.5011 56.09 45.8347 56.09C45.175 56.09 44.5852 56.2233 44.0654 56.4899C43.5457 56.7498 43.1358 57.1096 42.8359 57.5694C42.5427 58.0226 42.3961 58.5457 42.3961 59.1388C42.3961 59.7185 42.5394 60.2316 42.826 60.6781C43.1125 61.1179 43.5157 61.4645 44.0355 61.7177C44.5552 61.9643 45.155 62.0875 45.8347 62.0875ZM45.8347 52.9413C46.4078 52.9413 46.9176 52.8247 47.3641 52.5915C47.8105 52.3583 48.1604 52.0351 48.4136 51.6219C48.6669 51.2087 48.7935 50.7323 48.7935 50.1925C48.7935 49.6594 48.6669 49.1929 48.4136 48.7931C48.1604 48.3866 47.8139 48.07 47.3741 47.8435C46.9342 47.6102 46.4211 47.4936 45.8347 47.4936C45.2549 47.4936 44.7418 47.6102 44.2953 47.8435C43.8489 48.07 43.499 48.3866 43.2458 48.7931C42.9992 49.1929 42.8759 49.6594 42.8759 50.1925C42.8759 50.7323 43.0025 51.2087 43.2558 51.6219C43.509 52.0351 43.8589 52.3583 44.3053 52.5915C44.7518 52.8247 45.2616 52.9413 45.8347 52.9413ZM64.2845 65.2662C62.8718 65.2662 61.6123 65.0063 60.5061 64.4865C59.4065 63.9668 58.5336 63.2504 57.8872 62.3374C57.2408 61.4245 56.9043 60.3782 56.8776 59.1987H61.0758C61.1225 59.9917 61.4557 60.6348 62.0754 61.1279C62.6952 61.6211 63.4315 61.8676 64.2845 61.8676C64.9642 61.8676 65.564 61.7177 66.0838 61.4178C66.6102 61.1113 67.02 60.6881 67.3132 60.1483C67.6131 59.6019 67.7631 58.9755 67.7631 58.2691C67.7631 57.5494 67.6098 56.9164 67.3033 56.3699C67.0034 55.8235 66.5869 55.397 66.0538 55.0905C65.5207 54.7839 64.9109 54.6273 64.2245 54.6206C63.6248 54.6206 63.0417 54.7439 62.4753 54.9905C61.9155 55.2371 61.479 55.5736 61.1658 56.0001L57.3174 55.3104L58.287 44.5149H70.8018V48.0534H61.8555L61.3257 53.1812H61.4457C61.8055 52.6748 62.3486 52.255 63.075 51.9218C63.8014 51.5886 64.6144 51.422 65.514 51.422C66.7468 51.422 67.8464 51.7119 68.8126 52.2916C69.7789 52.8714 70.5419 53.6677 71.1017 54.6806C71.6614 55.6869 71.938 56.8464 71.9313 58.1592C71.938 59.5386 71.6181 60.7648 70.9717 61.8376C70.332 62.9039 69.4357 63.7435 68.2828 64.3566C67.1367 64.963 65.8039 65.2662 64.2845 65.2662ZM86.1554 61.1479V60.0684C86.1554 59.2487 86.3287 58.4957 86.6752 57.8093C87.0284 57.1163 87.5382 56.5632 88.2045 56.15C88.8776 55.7302 89.6973 55.5203 90.6635 55.5203C91.6431 55.5203 92.4661 55.7269 93.1325 56.14C93.8055 56.5532 94.312 57.1063 94.6519 57.7993C94.9984 58.4857 95.1716 59.2421 95.1716 60.0684V61.1479C95.1716 61.9676 94.9984 62.7239 94.6519 63.417C94.3053 64.1034 93.7955 64.6531 93.1225 65.0663C92.4494 65.4861 91.6298 65.696 90.6635 65.696C89.6839 65.696 88.8609 65.4861 88.1945 65.0663C87.5282 64.6531 87.0217 64.1034 86.6752 63.417C86.3287 62.7239 86.1554 61.9676 86.1554 61.1479ZM89.0642 60.0684V61.1479C89.0642 61.6211 89.1775 62.0675 89.404 62.4874C89.6373 62.9072 90.0571 63.1171 90.6635 63.1171C91.2699 63.1171 91.6831 62.9105 91.903 62.4974C92.1296 62.0842 92.2429 61.6344 92.2429 61.1479V60.0684C92.2429 59.5819 92.1362 59.1288 91.923 58.7089C91.7097 58.2891 91.2899 58.0792 90.6635 58.0792C90.0638 58.0792 89.6473 58.2891 89.414 58.7089C89.1808 59.1288 89.0642 59.5819 89.0642 60.0684ZM75.6498 49.4328V48.3533C75.6498 47.5269 75.8264 46.7706 76.1796 46.0842C76.5327 45.3912 77.0425 44.8381 77.7089 44.4249C78.382 44.0117 79.195 43.8052 80.1479 43.8052C81.1342 43.8052 81.9605 44.0117 82.6269 44.4249C83.2933 44.8381 83.7997 45.3912 84.1462 46.0842C84.4928 46.7706 84.666 47.5269 84.666 48.3533V49.4328C84.666 50.2591 84.4894 51.0155 84.1362 51.7019C83.7897 52.3882 83.2799 52.938 82.6069 53.3512C81.9405 53.7577 81.1208 53.9609 80.1479 53.9609C79.175 53.9609 78.352 53.7543 77.6789 53.3412C77.0125 52.9214 76.5061 52.3716 76.1596 51.6919C75.8197 51.0055 75.6498 50.2525 75.6498 49.4328ZM78.5786 48.3533V49.4328C78.5786 49.9193 78.6918 50.3691 78.9184 50.7822C79.1516 51.1954 79.5615 51.402 80.1479 51.402C80.761 51.402 81.1775 51.1954 81.3974 50.7822C81.6239 50.3691 81.7372 49.9193 81.7372 49.4328V48.3533C81.7372 47.8668 81.6306 47.4137 81.4174 46.9938C81.2041 46.574 80.781 46.3641 80.1479 46.3641C79.5548 46.3641 79.145 46.5773 78.9184 47.0038C78.6918 47.4303 78.5786 47.8801 78.5786 48.3533ZM76.9692 64.9863L91.0434 44.5149H93.6623L79.5881 64.9863H76.9692Z" fill="white"/>
</g>
</g>
<defs>
<filter id="filter0_f_59_1922" x="44.5267" y="-8.70575" width="88.9056" height="126.984" filterUnits="userSpaceOnUse" color-interpolation-filters="sRGB">
<feFlood flood-opacity="0" result="BackgroundImageFix"/>
<feBlend mode="normal" in="SourceGraphic" in2="BackgroundImageFix" result="shape"/>
<feGaussianBlur stdDeviation="7.63608" result="effect1_foregroundBlur_59_1922"/>
</filter>
<filter id="filter1_f_59_1922" x="67.0736" y="-5.09876" width="60.9304" height="70.2288" filterUnits="userSpaceOnUse" color-interpolation-filters="sRGB">
<feFlood flood-opacity="0" result="BackgroundImageFix"/>
<feBlend mode="normal" in="SourceGraphic" in2="BackgroundImageFix" result="shape"/>
<feGaussianBlur stdDeviation="5.28278" result="effect1_foregroundBlur_59_1922"/>
</filter>
<linearGradient id="paint0_linear_59_1922" x1="56.8528" y1="0.302736" x2="58.1836" y2="134.56" gradientUnits="userSpaceOnUse">
<stop stop-color="#FF61AD"/>
<stop offset="1" stop-color="#FF2719"/>
</linearGradient>
<radialGradient id="paint1_radial_59_1922" cx="0" cy="0" r="1" gradientUnits="userSpaceOnUse" gradientTransform="translate(65.3059 111.751) rotate(-41.8444) scale(95.5619 86.316)">
<stop stop-color="#FFBDBD"/>
<stop offset="1" stop-color="#FFB4B4" stop-opacity="0.017094"/>
</radialGradient>
<linearGradient id="paint2_linear_59_1922" x1="113.554" y1="41.9645" x2="54.7101" y2="64.729" gradientUnits="userSpaceOnUse">
<stop stop-color="#FF8080"/>
<stop offset="1" stop-color="#FF8080" stop-opacity="0"/>
</linearGradient>
<linearGradient id="paint3_linear_59_1922" x1="15.1943" y1="28.6522" x2="62.0052" y2="96.0867" gradientUnits="userSpaceOnUse">
<stop stop-color="#501616"/>
<stop offset="1" stop-color="#501616" stop-opacity="0"/>
</linearGradient>
<clipPath id="clip0_59_1922">
<rect width="123.74" height="110.386" fill="white"/>
</clipPath>
<clipPath id="clip1_59_1922">
<rect width="123.573" height="82.0811" fill="white" transform="translate(0.0219727 28.5898)"/>
</clipPath>
</defs>
</svg>
