<svg width="20" height="20" viewBox="0 0 20 20" fill="none" xmlns="http://www.w3.org/2000/svg">
<path d="M12.9453 8.0918C12.9453 8.95012 12.6043 9.7733 11.9974 10.3802C11.3905 10.9872 10.5673 11.3281 9.70898 11.3281C8.85066 11.3281 8.02748 10.9872 7.42055 10.3802C6.81363 9.7733 6.47266 8.95012 6.47266 8.0918" stroke="#475569" stroke-width="1.61816" stroke-linecap="round" stroke-linejoin="round"/>
<path d="M2.51074 4.88086H16.9075" stroke="#475569" stroke-width="1.61816" stroke-linecap="round" stroke-linejoin="round"/>
<path d="M2.75088 4.42423C2.54081 4.70433 2.42725 5.045 2.42725 5.39513V16.1826C2.42725 16.6118 2.59773 17.0234 2.9012 17.3268C3.20466 17.6303 3.61625 17.8008 4.04541 17.8008H15.3726C15.8017 17.8008 16.2133 17.6303 16.5168 17.3268C16.8202 17.0234 16.9907 16.6118 16.9907 16.1826V5.39513C16.9907 5.045 16.8772 4.70433 16.6671 4.42423L15.0489 2.26641C14.8982 2.06544 14.7027 1.90232 14.4781 1.78997C14.2534 1.67763 14.0056 1.61914 13.7544 1.61914H5.66357C5.41236 1.61914 5.1646 1.67763 4.93991 1.78997C4.71522 1.90232 4.51977 2.06544 4.36904 2.26641L2.75088 4.42423Z" stroke="#475569" stroke-width="1.61816" stroke-linecap="round" stroke-linejoin="round"/>
</svg>
