<svg width="13" height="13" viewBox="0 0 13 13" fill="none" xmlns="http://www.w3.org/2000/svg">
<g clip-path="url(#clip0_1_2440)">
<path d="M10.8157 3.47962C11.0857 3.20962 11.2375 2.84341 11.2375 2.46153C11.2376 2.07966 11.0859 1.7134 10.8159 1.44334C10.5459 1.17328 10.1797 1.02153 9.79782 1.02148C9.41594 1.02144 9.04969 1.17309 8.77963 1.44308L1.96258 8.26167C1.84398 8.37992 1.75627 8.52551 1.70718 8.68563L1.03242 10.9086C1.01922 10.9528 1.01822 10.9997 1.02954 11.0444C1.04085 11.0891 1.06405 11.1299 1.09668 11.1625C1.12931 11.195 1.17014 11.2182 1.21486 11.2294C1.25957 11.2407 1.30649 11.2396 1.35065 11.2263L3.57413 10.5521C3.7341 10.5034 3.87967 10.4162 3.99809 10.2982L10.8157 3.47962Z" stroke="white" stroke-width="1.12375" stroke-linecap="round" stroke-linejoin="round"/>
<path d="M7.66205 2.55469L9.70522 4.59786" stroke="white" stroke-width="1.12375" stroke-linecap="round" stroke-linejoin="round"/>
</g>
<defs>
<clipPath id="clip0_1_2440">
<rect width="12.259" height="12.259" fill="white"/>
</clipPath>
</defs>
</svg>
