<svg width="14" height="13" viewBox="0 0 14 13" fill="none" xmlns="http://www.w3.org/2000/svg">
<path d="M0 1.44444V10.7431C0 11.3416 0.237785 11.9157 0.661044 12.339C1.0843 12.7622 1.65837 13 2.25694 13H11.1042C11.7027 13 12.2768 12.7622 12.7001 12.339C13.1233 11.9157 13.3611 11.3416 13.3611 10.7431V4.42361C13.3612 3.90332 13.1816 3.39896 12.8525 2.99591C12.5235 2.59286 12.0653 2.31586 11.5556 2.21181V1.53472C11.5556 1.12769 11.3939 0.737326 11.106 0.44951C10.8182 0.161694 10.4279 5.4917e-09 10.0208 5.4917e-09H1.53472C1.14329 -3.30874e-05 0.766646 0.149498 0.481829 0.418003C0.197012 0.686509 0.0255529 1.05369 0.00252777 1.44444H0ZM10.6528 1.53472V2.16667H1.53472C1.36712 2.16667 1.20638 2.10009 1.08787 1.98157C0.969357 1.86306 0.902778 1.70232 0.902778 1.53472C0.902778 1.36712 0.969357 1.20638 1.08787 1.08787C1.20638 0.969357 1.36712 0.902778 1.53472 0.902778H10.0208C10.37 0.902778 10.6528 1.18589 10.6528 1.53472ZM9.47917 7.22222H11.1042C11.2239 7.22222 11.3387 7.26978 11.4233 7.35443C11.508 7.43908 11.5556 7.55389 11.5556 7.67361C11.5556 7.79333 11.508 7.90814 11.4233 7.99279C11.3387 8.07744 11.2239 8.125 11.1042 8.125H9.47917C9.35945 8.125 9.24464 8.07744 9.15999 7.99279C9.07533 7.90814 9.02778 7.79333 9.02778 7.67361C9.02778 7.55389 9.07533 7.43908 9.15999 7.35443C9.24464 7.26978 9.35945 7.22222 9.47917 7.22222Z" fill="url(#paint0_linear_148_7938)"/>
<defs>
<linearGradient id="paint0_linear_148_7938" x1="6.68056" y1="0" x2="6.68056" y2="13" gradientUnits="userSpaceOnUse">
<stop stop-color="#78777C"/>
<stop offset="1" stop-color="#545456"/>
</linearGradient>
</defs>
</svg>
