<svg width="14" height="14" viewBox="0 0 14 14" fill="none" xmlns="http://www.w3.org/2000/svg">
<path d="M0.599998 2.8501V2.1001C0.599998 1.70227 0.758034 1.32074 1.03934 1.03944C1.32064 0.758133 1.70217 0.600098 2.1 0.600098H3.6M0.599998 10.3501V11.1001C0.599998 11.4979 0.758034 11.8795 1.03934 12.1608C1.32064 12.4421 1.70217 12.6001 2.1 12.6001H3.6M9.6 0.600098H11.1C11.4978 0.600098 11.8794 0.758133 12.1607 1.03944C12.442 1.32074 12.6 1.70227 12.6 2.1001V2.8501M9.6 12.6001H11.1C11.4978 12.6001 11.8794 12.4421 12.1607 12.1608C12.442 11.8795 12.6 11.4979 12.6 11.1001V10.3501M1.35 6.6001H11.85" stroke="white" stroke-width="1.2" stroke-linecap="round" stroke-linejoin="round"/>
</svg>
