<svg width="170" height="170" viewBox="0 0 170 170" fill="none" xmlns="http://www.w3.org/2000/svg">
<path d="M102.156 136.151L103.127 153.076H39.8613L44.4404 135.457L102.156 136.151Z" fill="#363634"/>
<path d="M76.7657 61.0931C76.7657 61.0931 38.2431 59.2435 38.2431 58.411C38.2431 57.5784 46.0119 37.0454 45.3655 36.4904C44.7174 35.9353 34.637 31.7726 33.6183 32.6982C32.6013 33.6238 20.2991 61.5551 20.8542 66.1798C21.4092 70.8046 23.8138 73.1161 25.2014 73.4867C26.589 73.8573 54.0126 78.8509 54.0126 78.8509C54.0126 78.8509 50.8211 89.95 50.5436 92.5864C50.2661 95.2228 52.9025 109.097 51.0986 112.287C49.2948 115.478 49.5723 122.415 47.9072 124.912C46.242 127.41 41.5259 135.595 43.4669 137.676C45.4095 139.758 57.7574 144.751 72.185 146.278C86.6143 147.804 104.095 146.833 104.511 145.306C104.927 143.78 101.597 116.033 101.597 116.033L110.476 97.1655C110.476 97.1655 132.951 104.241 138.639 104.379C144.326 104.518 149.183 102.992 150.015 99.939C150.848 96.8863 146.546 58.3179 144.881 57.9016C143.216 57.4854 133.644 57.3466 133.366 58.7342C133.088 60.1218 133.227 78.2959 133.227 78.7122C133.227 79.1284 100.67 67.1037 100.67 67.1037C100.67 67.1037 82.3567 75.7982 80.1366 73.7625C77.9164 71.7285 80.0435 61.7378 80.0435 61.7378L76.7606 61.0897L76.7657 61.0931Z" fill="#FF4462"/>
<path d="M53.9029 79.7436C53.842 79.7436 53.781 79.7335 53.7218 79.7098C53.4595 79.6099 53.3292 79.3172 53.4291 79.0549C55.079 74.7347 54.221 68.0438 54.0941 67.5514C54.0247 67.2824 54.1838 67.0031 54.4512 66.9304C54.7185 66.8576 54.9943 67.0082 55.0705 67.2756C55.2076 67.7545 56.1535 74.7635 54.3767 79.417C54.2989 79.6201 54.1076 79.7436 53.9029 79.7436Z" fill="#363634"/>
<path d="M81.1617 78.8801C80.1176 78.8801 79.1311 78.7295 78.3425 78.3352C75.0072 76.6684 75.943 68.8539 75.9853 68.5222C76.0209 68.2447 76.273 68.0467 76.5522 68.0823C76.8297 68.1178 77.0277 68.3699 76.9939 68.6491C76.7367 70.7119 76.5607 76.3097 78.7977 77.4282C81.6169 78.8378 87.8983 76.462 87.9626 76.4366C88.2249 76.3367 88.5177 76.467 88.6192 76.7293C88.719 76.9916 88.5887 77.2844 88.3264 77.3859C88.1183 77.4654 84.3718 78.8818 81.1651 78.8818L81.1617 78.8801Z" fill="#363634"/>
<path d="M110.479 97.674C110.469 97.674 110.459 97.674 110.449 97.674C110.17 97.6571 109.955 97.4185 109.972 97.1376L110.804 82.7083C110.821 82.4291 111.066 82.2175 111.341 82.2311C111.62 82.248 111.835 82.4866 111.818 82.7675L110.985 97.1968C110.97 97.4658 110.745 97.6757 110.479 97.6757V97.674Z" fill="#363634"/>
<path d="M108.122 93.2318C107.959 93.2318 107.799 93.154 107.7 93.0084L105.064 89.1232C104.907 88.8913 104.968 88.5749 105.199 88.4175C105.431 88.2602 105.748 88.3211 105.905 88.5529L108.541 92.4382C108.699 92.67 108.638 92.9864 108.406 93.1438C108.318 93.203 108.22 93.2318 108.122 93.2318Z" fill="#363634"/>
<path d="M133.232 89.3481C132.951 89.3481 132.725 89.1214 132.725 88.8405V78.7127C132.725 78.4318 132.951 78.2051 133.232 78.2051C133.513 78.2051 133.74 78.4318 133.74 78.7127V88.8405C133.74 89.1214 133.513 89.3481 133.232 89.3481Z" fill="#363634"/>
<path d="M36.3934 64.9306C36.3443 64.9306 36.2936 64.9239 36.2445 64.9086C35.9771 64.8257 35.8265 64.5414 35.9077 64.2741L37.7573 58.2617C37.8402 57.9944 38.1228 57.8421 38.3919 57.925C38.6592 58.0079 38.8099 58.2922 38.7286 58.5595L36.8791 64.5719C36.8114 64.7902 36.6117 64.9306 36.3934 64.9306Z" fill="#363634"/>
<path d="M70.8002 107.939C70.7663 107.939 70.7325 107.935 70.6986 107.929C62.4171 106.258 57.6434 103.197 55.095 100.925C52.2927 98.4237 51.4872 96.3203 51.4551 96.2323C51.3569 95.97 51.4906 95.6772 51.7529 95.5791C52.0135 95.4809 52.3079 95.6146 52.4061 95.8769C52.4213 95.9141 53.1997 97.8923 55.8345 100.224C58.2864 102.394 62.8909 105.319 70.9 106.935C71.1741 106.991 71.3518 107.259 71.2977 107.533C71.2486 107.773 71.0371 107.941 70.8002 107.941V107.939Z" fill="#363634"/>
<path d="M89.2523 111.826C89.2151 111.826 89.1762 111.821 89.1373 111.813L79.5646 109.593C79.2921 109.528 79.1212 109.256 79.1838 108.984C79.2464 108.711 79.5189 108.54 79.793 108.603L89.3657 110.823C89.6382 110.887 89.8091 111.16 89.7465 111.432C89.6923 111.667 89.4825 111.825 89.2523 111.825V111.826Z" fill="#363634"/>
<path d="M58.1749 128.751C58.004 128.751 57.8381 128.664 57.7417 128.509C52.1913 119.489 50.8917 102.5 50.8392 101.78C50.8189 101.501 51.0288 101.258 51.308 101.237C51.5872 101.22 51.8309 101.427 51.8512 101.706C51.8647 101.88 53.1846 119.168 58.6047 127.976C58.7519 128.214 58.6775 128.527 58.4389 128.674C58.3559 128.725 58.2646 128.751 58.1732 128.751H58.1749Z" fill="#363634"/>
<path d="M94.3841 130.971C94.3079 130.971 94.2301 130.954 94.1573 130.917C93.9069 130.792 93.8054 130.487 93.9306 130.235L101.144 115.806C101.27 115.555 101.576 115.454 101.826 115.579C102.077 115.704 102.178 116.009 102.053 116.261L94.8393 130.69C94.7496 130.868 94.5702 130.971 94.3841 130.971Z" fill="#363634"/>
<path d="M44.8 36.7305L44.4954 36.5918C43.1146 35.9623 41.2447 35.3328 39.4375 34.7253C37.9602 34.2295 36.4321 33.715 35.1444 33.1939L34.6875 33.0094L34.8601 32.5474C34.9887 32.2039 35.2205 31.6404 35.4913 30.9872C35.9008 29.999 36.4085 28.7671 36.5455 28.295C36.9432 26.904 36.8569 25.4419 36.7993 24.4757C36.7757 24.0865 36.757 23.7802 36.7723 23.5416C36.84 22.4028 37.1479 19.675 38.5271 18.9372C39.5238 18.4041 40.5205 18.6478 41.0434 18.8526C41.3869 18.5412 42.0164 18.0657 42.7135 17.9743C43.4158 17.8829 44.1553 18.24 44.6105 18.5209C44.9828 18.2281 45.6681 17.8372 46.6174 17.9016C47.3366 17.9506 47.9289 18.4498 48.3028 19.2976C48.8528 18.8424 49.8867 18.2383 51.0746 18.7798C52.09 19.2418 52.5333 20.1775 52.7279 20.8815L52.7618 21.0033L52.733 21.1269C52.249 23.2692 51.7498 25.1729 51.5958 25.7499C51.8717 26.222 52.4978 27.4083 52.5502 28.5776C52.6247 30.2545 51.4977 31.1125 50.0712 32.1988C48.8646 33.116 45.9541 35.6831 45.0505 36.5038L44.8034 36.7288L44.8 36.7305ZM35.9922 32.4358C37.1496 32.8842 38.4746 33.3292 39.7607 33.7624C41.4664 34.3361 43.2246 34.9267 44.6122 35.5308C45.7223 34.5324 48.3181 32.2564 49.4552 31.3917C51.0019 30.2139 51.5806 29.6707 51.5349 28.6233C51.4841 27.503 50.7244 26.2643 50.6364 26.1273C50.5484 25.9885 50.523 25.8159 50.5687 25.6535C50.5721 25.6382 51.1474 23.5128 51.7126 21.0304C51.562 20.5549 51.2591 19.9779 50.6516 19.7003C49.748 19.2875 48.9154 20.0794 48.7073 20.2994C48.6971 20.3231 48.6887 20.3451 48.6785 20.3671C48.5871 20.5938 48.3519 20.7444 48.093 20.7241C47.8358 20.7055 47.6226 20.5244 47.5617 20.274C47.4855 19.9677 47.1877 18.9558 46.5447 18.9118C45.7206 18.8543 45.2112 19.3162 45.0741 19.4601C44.8643 19.6784 44.5394 19.7071 44.2991 19.5311C43.8947 19.2401 43.2652 18.9186 42.8421 18.9761C42.392 19.0353 41.8658 19.4364 41.5527 19.7613L41.5375 19.7765C41.3615 19.944 41.1043 19.9863 40.8826 19.8865L40.8623 19.8763C40.6948 19.7917 39.8165 19.3907 39.0026 19.8256C38.2969 20.2029 37.8756 22.0423 37.7842 23.5941C37.774 23.7718 37.791 24.0679 37.8113 24.408C37.8722 25.4436 37.967 27.0106 37.5202 28.5674C37.3679 29.0954 36.8687 30.3019 36.4288 31.3663C36.2697 31.7521 36.1157 32.1244 35.9922 32.429V32.4358ZM51.5485 25.9174C51.5485 25.9174 51.5451 25.9276 51.5451 25.9293C51.5451 25.9259 51.5468 25.9225 51.5485 25.9174ZM51.4926 25.5858C51.4926 25.5858 51.4943 25.5892 51.496 25.5925C51.496 25.5909 51.4943 25.5892 51.4926 25.5858ZM48.5465 20.0337C48.5465 20.0337 48.5465 20.0354 48.5465 20.0371C48.5465 20.0371 48.5465 20.0354 48.5465 20.0337ZM47.7427 19.9728C47.7427 19.9728 47.741 19.9779 47.7393 19.9796L47.7427 19.9728Z" fill="#363634"/>
<path d="M42.4121 32.0875C42.2412 32.0875 42.0754 32.0012 41.9789 31.8455C41.8317 31.6069 41.9061 31.2938 42.1447 31.1466C43.9994 30.0044 45.9894 29.2141 47.135 28.8063C46.8118 28.5592 46.3972 28.2174 45.8862 27.7555C44.8573 26.8248 43.9689 26.0193 43.9486 25.0987C43.9385 24.674 44.1178 24.278 44.48 23.9193C44.859 23.5436 45.6543 23.2373 48.4634 24.2069C49.9068 24.7044 51.2098 25.3086 51.2656 25.3339C51.5195 25.4524 51.6295 25.7536 51.5127 26.0074C51.3942 26.2613 51.093 26.3729 50.8375 26.2545C50.824 26.2477 49.5413 25.6538 48.1571 25.1749C45.6256 24.2983 45.1974 24.6368 45.1924 24.6401C44.9825 24.8483 44.9605 24.9887 44.9622 25.075C44.9724 25.559 45.8185 26.3256 46.5664 27.0007C47.3465 27.7081 47.8813 28.1074 48.1926 28.319C48.4177 28.4712 48.5327 28.7318 48.4955 29.0009C48.4583 29.27 48.2738 29.4899 48.0166 29.5746C47.1181 29.8707 44.7981 30.7016 42.6744 32.0096C42.5915 32.0604 42.5001 32.0858 42.4087 32.0858L42.4121 32.0875Z" fill="#363634"/>
<path d="M47.1352 24.8309C47.0929 24.8309 47.0506 24.8258 47.0083 24.814C46.7376 24.7429 46.5734 24.4671 46.6445 24.1946L47.7207 20.0386C47.7918 19.7679 48.0693 19.6037 48.3401 19.6748C48.6108 19.7459 48.775 20.0217 48.7039 20.2941L47.6277 24.4501C47.5684 24.6786 47.362 24.8309 47.1369 24.8309H47.1352Z" fill="#363634"/>
<path d="M43.17 26.3753C42.9805 26.3753 42.7859 26.3516 42.5913 26.2958C42.1919 26.1807 41.6403 25.8728 41.2714 25.0605C40.3779 23.0891 40.7197 19.6506 40.7349 19.5051C40.7637 19.2258 41.0108 19.0228 41.2917 19.0515C41.5709 19.0803 41.7739 19.3291 41.7452 19.6083C41.7418 19.6421 41.4169 22.9199 42.197 24.6408C42.3662 25.0131 42.5862 25.2365 42.8705 25.3194C43.3849 25.47 44.0415 25.1502 44.253 25.0131C44.4882 24.8608 44.803 24.9268 44.9553 25.162C45.1076 25.3956 45.0433 25.7086 44.8097 25.8626C44.715 25.9252 44.0009 26.3753 43.17 26.3753Z" fill="#363634"/>
<path d="M45.0653 24.6354C44.8013 24.6354 44.5779 24.4307 44.5593 24.1633L44.2006 19.1477C44.1803 18.8685 44.3901 18.6248 44.671 18.6045C44.9519 18.5876 45.1939 18.794 45.2142 19.0749L45.5729 24.0906C45.5932 24.3698 45.3834 24.6134 45.1025 24.6337C45.0907 24.6337 45.0771 24.6337 45.0653 24.6337V24.6354Z" fill="#363634"/>
<path d="M40.175 26.1614C40.1208 26.1614 40.065 26.158 40.0092 26.1529C39.6589 26.1174 39.1597 25.9414 38.7654 25.3136C37.7213 23.6536 38.3711 21.6179 38.3999 21.5316C38.4879 21.2642 38.7739 21.1204 39.0412 21.2067C39.3069 21.2947 39.4524 21.5806 39.3661 21.848C39.3611 21.8632 38.8399 23.5233 39.6267 24.7738C39.8179 25.0784 39.9973 25.1308 40.1141 25.1427C40.5811 25.1935 41.1937 24.6807 41.3714 24.4963C41.5677 24.2949 41.8875 24.2915 42.0889 24.4861C42.2902 24.6807 42.2953 25.0006 42.1007 25.2019C42.0009 25.3051 41.1463 26.1614 40.175 26.1614Z" fill="#363634"/>
<path d="M134.088 58.3304L133.927 58.0377C133.34 56.9699 131.418 53.5991 130.573 52.3384C129.575 50.8476 128.788 49.6715 129.402 48.1096C129.832 47.0182 130.812 46.0959 131.223 45.7422C131.265 45.1398 131.411 43.1684 131.646 41.0007L131.66 40.8738L131.731 40.7689C132.142 40.1665 132.866 39.4253 133.976 39.317C135.274 39.1884 136.056 40.0954 136.43 40.7046C137.058 40.0226 137.78 39.7451 138.476 39.9296C139.396 40.1749 139.916 40.7655 140.175 41.1666C140.699 41.0481 141.515 40.9483 142.148 41.2647C142.777 41.5778 143.217 42.231 143.442 42.6371C144.002 42.6134 145.026 42.7065 145.794 43.5322C146.859 44.6762 146.267 47.3566 145.962 48.4565C145.898 48.6866 145.781 48.9709 145.634 49.3314C145.266 50.2282 144.71 51.582 144.635 53.0271C144.61 53.5178 144.693 54.8462 144.759 55.914C144.803 56.6196 144.84 57.2271 144.85 57.5943L144.864 58.0884L144.371 58.1155C142.984 58.1917 141.373 58.1832 139.814 58.1731C137.905 58.1612 135.932 58.1511 134.423 58.2983L134.09 58.3304H134.088ZM132.639 41.241C132.369 43.759 132.223 45.9707 132.221 45.9927C132.213 46.1551 132.132 46.3108 132 46.4157C131.878 46.5139 130.758 47.4361 130.346 48.4819C129.962 49.4566 130.336 50.1589 131.418 51.7749C132.213 52.9611 133.929 55.9563 134.656 57.2593C136.164 57.1374 138.021 57.1476 139.819 57.1577C141.176 57.1662 142.574 57.1747 143.815 57.1256C143.798 56.7973 143.772 56.3946 143.747 55.9783C143.676 54.8276 143.595 53.5246 143.622 52.9763C143.705 51.3586 144.3 49.9067 144.695 48.9472C144.825 48.6308 144.936 48.3584 144.984 48.1858C145.398 46.6882 145.596 44.8115 145.052 44.226C144.424 43.5509 143.463 43.6456 143.276 43.671H143.254C143.014 43.6964 142.782 43.5729 142.671 43.3596L142.659 43.3376C142.468 42.9281 142.1 42.3782 141.694 42.1768C141.31 41.9856 140.613 42.0854 140.132 42.231C139.85 42.3173 139.552 42.1836 139.427 41.9128C139.344 41.7318 139.014 41.1293 138.213 40.9161C137.591 40.7503 136.982 41.6099 136.809 41.8773C136.672 42.0939 136.411 42.1954 136.161 42.1294C135.912 42.0634 135.736 41.8468 135.723 41.5896C135.723 41.5778 135.721 41.5541 135.719 41.5287C135.596 41.2546 135.066 40.2325 134.074 40.3323C133.409 40.3966 132.936 40.845 132.639 41.2461V41.241ZM131.208 45.9216C131.208 45.9216 131.208 45.9267 131.208 45.9301C131.208 45.9301 131.208 45.9267 131.208 45.9216ZM131.367 45.6187C131.367 45.6187 131.362 45.6238 131.358 45.6255C131.362 45.6238 131.363 45.6204 131.367 45.6187ZM136.734 41.5084V41.5168C136.734 41.5168 136.734 41.5118 136.734 41.5084ZM135.954 41.3206C135.954 41.3206 135.954 41.3222 135.953 41.3239C135.953 41.3239 135.953 41.3222 135.954 41.3206ZM139.841 41.2529C139.841 41.2529 139.838 41.2529 139.836 41.2529C139.836 41.2529 139.84 41.2529 139.841 41.2529Z" fill="#363634"/>
<path d="M138.015 54.7388C137.868 54.7388 137.723 54.6762 137.623 54.5543C136.037 52.6269 134.113 51.0904 133.359 50.5201C133.142 50.356 133.039 50.0886 133.091 49.8213C133.142 49.5556 133.338 49.3458 133.599 49.2747C133.963 49.1765 134.599 48.9701 135.565 48.5555C136.491 48.1578 137.54 47.7077 137.706 47.2525C137.736 47.1713 137.76 47.0308 137.628 46.7652C137.626 46.7618 137.337 46.31 134.729 46.31H134.651C133.188 46.3151 131.78 46.4606 131.766 46.4623C131.489 46.4927 131.238 46.2897 131.208 46.0105C131.179 45.7312 131.38 45.4825 131.66 45.452C131.721 45.4453 133.149 45.2964 134.675 45.293H134.728C137.655 45.293 138.301 45.8379 138.537 46.3117C138.763 46.7686 138.804 47.2018 138.657 47.5994C138.339 48.4641 137.239 48.9363 135.963 49.4845C135.33 49.757 134.826 49.9448 134.44 50.0734C135.391 50.8298 137.019 52.2225 138.403 53.9062C138.581 54.1228 138.55 54.4426 138.334 54.6203C138.239 54.6981 138.125 54.7354 138.012 54.7354L138.015 54.7388Z" fill="#363634"/>
<path d="M135.9 46.3456C135.887 46.3456 135.875 46.3456 135.861 46.3456C135.582 46.3236 135.372 46.0799 135.394 45.8007L135.724 41.5211C135.746 41.2419 135.988 41.0338 136.269 41.0541C136.548 41.0761 136.758 41.3198 136.736 41.599L136.406 45.8785C136.386 46.1442 136.162 46.3473 135.9 46.3473V46.3456Z" fill="#363634"/>
<path d="M139.648 49.1754C139.617 49.1754 139.588 49.1754 139.56 49.1737C138.465 49.1213 137.686 48.155 137.602 48.045C137.431 47.8233 137.471 47.5052 137.693 47.3326C137.915 47.1617 138.233 47.2006 138.404 47.4223C138.56 47.6203 139.077 48.1364 139.612 48.1601C139.908 48.1736 140.189 48.0349 140.47 47.737C141.766 46.363 142.521 43.1563 142.528 43.1241C142.59 42.8517 142.864 42.6808 143.137 42.7434C143.409 42.806 143.58 43.0785 143.518 43.3526C143.486 43.4947 142.694 46.8588 141.21 48.4342C140.639 49.0383 140.061 49.1771 139.649 49.1771L139.648 49.1754Z" fill="#363634"/>
<path d="M137.92 46.8311C137.854 46.8311 137.786 46.8176 137.722 46.7905C137.463 46.6805 137.343 46.3827 137.453 46.1255L139.419 41.4973C139.529 41.2384 139.827 41.1183 140.084 41.2283C140.343 41.3383 140.463 41.6361 140.353 41.8933L138.387 46.5214C138.306 46.7143 138.118 46.8311 137.92 46.8311Z" fill="#363634"/>
<path d="M142.388 49.9168C142.261 49.9168 142.148 49.9015 142.048 49.8779C141.031 49.6426 140.442 48.4378 140.378 48.3007C140.259 48.0469 140.369 47.744 140.623 47.6256C140.877 47.5071 141.178 47.6171 141.297 47.8692C141.407 48.1011 141.821 48.7847 142.276 48.8879C142.391 48.9133 142.578 48.9235 142.857 48.6967C144.006 47.7677 144.051 46.0298 144.051 46.0129C144.057 45.7337 144.282 45.5103 144.568 45.5137C144.847 45.5188 145.07 45.7472 145.067 46.0281C145.067 46.1178 145.019 48.2551 143.495 49.487C143.085 49.8186 142.698 49.9151 142.385 49.9151L142.388 49.9168Z" fill="#363634"/>
<path d="M100.355 62.7736C100.655 61.4232 100.926 60.2556 101.074 59.7158C101.102 59.6126 101.13 59.5144 101.159 59.4163C102.462 54.9269 104.198 51.5713 104.198 51.5713C104.198 51.5713 107.109 52.6678 108.452 50.4054C109.798 48.1429 108.353 45.3559 106.239 45.3238C104.127 45.295 104.565 47.9568 100.755 46.708C96.9422 45.4574 93.8032 42.0934 92.8301 38.9679C92.0111 36.3433 91.7116 33.7289 91.6372 32.9589C91.627 32.8591 91.517 32.805 91.4307 32.8557C90.7318 33.2788 88.0413 34.6021 82.8513 33.6714C82.7853 33.6578 82.7193 33.695 82.6973 33.7593C82.5569 34.1655 82.0424 35.6614 81.4299 37.6785L81.2116 37.3891C81.2116 37.3891 79.2334 33.3549 81.2302 28.9485C83.2253 24.5437 89.5981 22.2559 94.0231 25.0124C94.0231 25.0124 109.422 19.4214 115.338 34.7848C121.25 50.1465 100.357 62.7736 100.357 62.7736H100.355Z" fill="#363634"/>
<path d="M85.4163 59.7924C85.357 59.7924 85.2944 59.7823 85.2352 59.7586C80.2805 57.8701 77.9419 54.4789 78.2837 49.6799C78.4664 47.0807 79.2127 43.4933 80.5021 39.0174C80.6528 38.4962 80.8017 37.9987 80.9438 37.5283C81.2095 36.6534 81.4836 35.7837 81.7611 34.9426C81.8491 34.677 82.1351 34.5314 82.4025 34.6194C82.6681 34.7074 82.8137 34.9934 82.7257 35.2608C82.4515 36.095 82.1791 36.958 81.9151 37.8244C81.7747 38.2898 81.6258 38.7839 81.4768 39.3C80.206 43.7082 79.4733 47.2245 79.2956 49.7527C78.9859 54.1134 81.047 57.0765 85.5973 58.8109C85.8596 58.9108 85.9916 59.2035 85.8918 59.4658C85.8139 59.6689 85.621 59.7924 85.4179 59.7924H85.4163Z" fill="#363634"/>
<path d="M99.7805 67.5087C99.7619 67.5087 99.7416 67.5087 99.723 67.5053C99.4438 67.4732 99.2441 67.2227 99.2746 66.9435L99.4709 65.1989C99.5775 64.3528 100.4 61.229 100.891 59.3608C101.06 58.7212 101.192 58.2152 101.219 58.0934C101.28 57.8192 101.552 57.6466 101.825 57.7075C102.099 57.7685 102.271 58.0392 102.211 58.3133C102.178 58.4555 102.057 58.9192 101.872 59.6197C101.419 61.3407 100.576 64.5457 100.479 65.319L100.283 67.0569C100.254 67.3158 100.034 67.507 99.7788 67.507L99.7805 67.5087Z" fill="#363634"/>
<path d="M102.569 55.7798C102.508 55.7798 102.446 55.7679 102.385 55.7442C102.124 55.6427 101.994 55.3483 102.097 55.086C102.979 52.8286 103.717 51.3953 103.747 51.3361L103.955 50.935L104.378 51.0941C104.48 51.1313 106.91 52.0079 108.016 50.1448C108.588 49.1819 108.614 47.9957 108.084 47.0464C107.664 46.2951 106.971 45.8416 106.231 45.8297C105.603 45.8196 105.297 46.1072 104.867 46.5032C104.124 47.1885 103.199 48.0414 100.598 47.1885C100.332 47.1005 100.187 46.8146 100.273 46.5472C100.361 46.2798 100.647 46.136 100.914 46.2223C102.95 46.889 103.52 46.3644 104.18 45.7553C104.666 45.3068 105.223 44.8009 106.246 44.8127C107.353 44.8279 108.372 45.4777 108.971 46.5489C109.678 47.8129 109.648 49.3884 108.89 50.6609C107.796 52.502 105.717 52.5037 104.461 52.1805C104.187 52.7457 103.644 53.9116 103.043 55.4532C102.965 55.6529 102.772 55.7764 102.569 55.7764V55.7798Z" fill="#363634"/>
<path d="M90.3642 60.7135C88.8514 60.7135 87.1406 60.4496 85.2437 59.7642C84.9797 59.6695 84.8426 59.3784 84.9391 59.1144C85.0356 58.8504 85.3249 58.7134 85.5889 58.8098C89.1577 60.0993 92.4456 60.0045 95.363 58.5289C97.5493 57.4222 98.7017 55.9094 98.7135 55.8959C98.8827 55.6725 99.2008 55.6268 99.4242 55.7943C99.6476 55.9619 99.695 56.28 99.5274 56.5034C99.4767 56.5711 98.2482 58.1956 95.8672 59.4122C94.5406 60.0908 92.6876 60.7135 90.3642 60.7135Z" fill="#363634"/>
<path d="M92.835 46.1895C93.0285 45.6226 92.9308 45.0761 92.6168 44.969C92.3028 44.8618 91.8914 45.2346 91.6979 45.8015C91.5045 46.3685 91.6022 46.915 91.9162 47.0221C92.2302 47.1293 92.6416 46.7565 92.835 46.1895Z" fill="#363634"/>
<path d="M85.0831 43.543C85.2765 42.9761 85.1788 42.4296 84.8648 42.3225C84.5508 42.2153 84.1394 42.5881 83.946 43.1551C83.7525 43.722 83.8502 44.2685 84.1642 44.3756C84.4782 44.4828 84.8896 44.11 85.0831 43.543Z" fill="#363634"/>
<path d="M86.7248 54.0418C85.9345 54.0418 85.0224 53.8404 84.0105 53.2786C83.7651 53.1433 83.6772 52.8336 83.8125 52.5882C83.9479 52.3429 84.2576 52.2549 84.5029 52.3902C87.3712 53.9826 89.1463 52.106 89.2208 52.0247C89.4103 51.8183 89.7301 51.803 89.9366 51.9909C90.143 52.1787 90.1599 52.4968 89.9738 52.705C89.9569 52.7236 88.7402 54.0401 86.7231 54.0401L86.7248 54.0418Z" fill="#363634"/>
<path d="M86.7076 50.6691C86.6552 50.6691 86.6027 50.6606 86.5503 50.6437C85.1153 50.175 84.2336 49.2426 83.836 48.7281C83.6685 48.5115 83.6042 48.2323 83.66 47.9633C83.7175 47.6942 83.8884 47.4641 84.1321 47.3321C85.4368 46.6281 87.2694 44.7701 86.6416 42.7801C86.046 40.8967 83.8495 41.291 83.7565 41.3079C83.4823 41.3604 83.215 41.181 83.1625 40.9052C83.11 40.631 83.2877 40.3653 83.5619 40.3112C84.6584 40.0963 86.9124 40.2723 87.6096 42.4738C88.3254 44.7363 86.6552 47.0833 84.699 48.1799C85.0493 48.6131 85.7566 49.3136 86.8667 49.6775C87.1324 49.7638 87.2779 50.0514 87.1916 50.3171C87.1222 50.5303 86.9225 50.6674 86.7093 50.6674L86.7076 50.6691Z" fill="#363634"/>
<path d="M94.4927 45.6293C94.3184 45.6293 94.1475 45.5397 94.0544 45.3772C94.0088 45.2994 92.9867 43.6055 91.2928 43.9355C91.017 43.9896 90.7513 43.8102 90.6971 43.5344C90.643 43.2586 90.8224 42.9929 91.0982 42.9388C93.5096 42.4666 94.8752 44.768 94.931 44.8662C95.0715 45.1081 94.9885 45.4195 94.7465 45.56C94.667 45.6056 94.579 45.6293 94.4927 45.6293Z" fill="#363634"/>
<path d="M80.0482 62.2485C79.8096 62.2485 79.598 62.081 79.5507 61.8373C79.4965 61.5615 79.6759 61.2958 79.9517 61.2417L82.9604 60.6545L83.5561 58.5511C83.6322 58.2821 83.9148 58.1247 84.1822 58.2008C84.4512 58.277 84.6086 58.5579 84.5325 58.8269L83.7676 61.5311L80.1463 62.2384C80.1142 62.2452 80.0803 62.2485 80.0482 62.2485Z" fill="#363634"/>
<path d="M101.718 28.9679C101.718 28.9679 96.8088 21.6593 102.391 17.2647C107.974 12.8701 126.859 26.0963 121.87 35.1021C116.881 44.1079 110.094 38.9586 106.065 36.4254C102.036 33.8922 101.718 28.9662 101.718 28.9662V28.9679Z" fill="#363634"/>
<path d="M40.0692 53.4551C40.01 53.4551 39.9508 53.4449 39.8916 53.4229C39.6293 53.3248 39.4956 53.032 39.5937 52.7698C41.5939 47.414 44.5925 39.0258 44.6517 37.8717C44.6991 36.941 44.5332 36.6449 44.4875 36.5823C44.2777 36.4825 44.1593 36.2472 44.2117 36.012C44.2743 35.7379 44.5468 35.5687 44.8192 35.6296C45.1052 35.6939 45.7601 36.0493 45.6653 37.9242C45.579 39.6045 41.0592 51.746 40.5448 53.1251C40.4686 53.3299 40.2757 53.4551 40.0692 53.4551Z" fill="#363634"/>
<path d="M24.2571 54.632C24.1911 54.632 24.1218 54.6185 24.0575 54.5914C23.8002 54.4814 23.6801 54.1819 23.7918 53.9247C24.1488 53.0905 32.559 33.4797 33.1834 32.4373C33.4813 31.9398 33.8738 31.7892 34.1497 31.752C34.9179 31.6471 35.6083 32.2782 35.6845 32.3493C35.8875 32.5422 35.896 32.8637 35.7031 33.0668C35.5102 33.2699 35.1904 33.2783 34.9873 33.0871C34.8248 32.9365 34.4898 32.7284 34.2867 32.7571C34.2529 32.7622 34.1632 32.7741 34.0532 32.9585C33.5642 33.7758 27.1525 48.6586 24.7225 54.3241C24.6396 54.517 24.4534 54.632 24.2554 54.632H24.2571Z" fill="#363634"/>
<path d="M133.211 75.1381C132.93 75.1381 132.703 74.9096 132.705 74.6287C132.705 74.0856 132.744 61.3011 132.785 59.8356C132.832 58.091 134.072 57.3786 134.127 57.3498C134.372 57.2128 134.68 57.3007 134.817 57.5461C134.952 57.7898 134.866 58.0961 134.626 58.2348C134.583 58.2602 133.832 58.7222 133.8 59.8644C133.761 61.318 133.72 74.5001 133.72 74.6321C133.72 74.9113 133.492 75.1381 133.213 75.1381H133.211Z" fill="#363634"/>
<path d="M148.961 83.591C148.71 83.591 148.492 83.4065 148.458 83.151C147.668 77.3062 145.499 61.8244 144.949 60.3979C144.275 58.6498 143.886 57.8376 143.882 57.8308C143.761 57.5787 143.867 57.2741 144.119 57.1539C144.373 57.0321 144.676 57.1387 144.796 57.3909C144.813 57.4247 145.204 58.242 145.894 60.0341C146.598 61.8633 149.347 82.1526 149.462 83.0156C149.499 83.2932 149.304 83.5487 149.027 83.5859C149.003 83.5893 148.981 83.591 148.957 83.591H148.961Z" fill="#363634"/>
<path d="M67.2726 49.4079L55.2293 45.8492C54.9924 45.7799 54.874 45.5159 54.9789 45.2925L56.979 41.04C57.089 40.8065 57.3869 40.7355 57.5899 40.8928L67.6331 48.704C67.9833 48.9764 67.699 49.5331 67.2726 49.4079Z" fill="#F7C421"/>
<path d="M107.618 126.983C107.657 126.868 107.747 126.777 107.862 126.736C108.977 126.347 114.795 124.619 114.744 131.031C114.688 138.123 115.925 140.952 120.636 140.091C124.831 139.325 126.28 146.384 126.547 147.938C126.577 148.114 126.484 148.286 126.322 148.359L121.631 150.474C121.428 150.566 121.19 150.471 121.108 150.265C120.57 148.916 118.65 144.44 116.859 144.489C114.751 144.545 109.732 141.48 111.823 135.507C113.568 130.527 108.813 129.952 107.182 129.899C106.921 129.891 106.743 129.633 106.825 129.386L107.62 126.985L107.618 126.983Z" fill="#F7C421"/>
<path d="M45.7246 102.371C45.8989 102.047 45.5807 101.676 45.2338 101.803C41.1015 103.307 25.4589 109.039 25.7602 109.502C26.0614 109.969 32.0179 120.909 33.5459 123.717C33.6982 123.998 34.1026 123.996 34.2532 123.713L45.7246 102.37V102.371Z" fill="#F7C421"/>
<path d="M21.3975 98.6169C20.4651 98.6169 19.4565 98.2666 18.5005 97.5762C18.2737 97.412 18.2213 97.0939 18.3871 96.8671C18.5512 96.6404 18.8677 96.5879 19.0961 96.7538C20.4329 97.72 21.8493 97.8706 22.7952 97.1464C23.22 96.8215 23.5787 96.2867 23.7615 95.5354C22.4314 95.3036 21.235 94.4033 20.4279 92.9362C19.2603 90.8125 18.9692 88.8445 19.6715 87.8004C19.9845 87.335 20.4736 87.1049 21.0167 87.1675C22.181 87.3012 23.3401 88.6837 24.1997 90.9563C24.6905 92.2576 24.9257 93.4726 24.9088 94.5387C25.2083 94.4981 25.496 94.4168 25.7633 94.3052C26.359 94.0581 26.9208 93.6435 27.3794 93.0969C27.3574 93.0631 27.3354 93.0293 27.3134 92.9954C24.5602 88.6516 24.3487 85.9187 25.0695 84.812C25.3809 84.3348 25.875 84.1064 26.4233 84.1893C27.5689 84.3602 28.6587 85.7748 29.2679 87.8833C29.8567 89.9207 29.4811 91.75 28.6214 93.1105C29.608 94.4507 30.6013 95.1022 31.5235 95.004C32.5727 94.8924 33.6202 93.8178 34.4019 92.085C34.2141 91.8887 34.0246 91.6738 33.8317 91.442C29.6384 86.3485 30.7519 84.4143 31.4237 83.8187C32.4339 82.9252 34.3207 83.3178 35.6288 84.6935C36.8607 85.9915 36.5815 89.1846 35.6677 91.6671C35.6474 91.7229 35.6254 91.7787 35.6051 91.8346C36.2464 92.3947 36.9555 92.7754 37.59 92.5724C39.4362 91.9801 40.4549 86.8409 40.663 83.7408C40.6817 83.4616 40.9219 83.2501 41.2045 83.2687C41.4838 83.2873 41.6953 83.5293 41.6767 83.8102C41.6174 84.702 40.9998 92.5436 37.8997 93.5403C37.057 93.8111 36.1483 93.564 35.1854 92.8059C34.253 94.7198 32.9924 95.8704 31.6301 96.016C30.3745 96.1496 29.1511 95.4559 27.9801 93.9481C27.4471 94.5268 26.8159 94.9702 26.1508 95.2443C25.7007 95.4305 25.2489 95.5405 24.8039 95.5794C24.6076 96.5795 24.1422 97.3951 23.4129 97.9518C22.8308 98.3969 22.1387 98.6169 21.3992 98.6169H21.3975ZM20.8408 88.1727C20.7054 88.1727 20.6022 88.2336 20.5125 88.3673C20.1317 88.9342 20.2197 90.4537 21.3163 92.4471C22.0287 93.7434 22.9645 94.3492 23.8867 94.5184C23.9053 93.6435 23.7242 92.5774 23.2487 91.3151C22.3553 88.9477 21.3518 88.2285 20.9 88.1761C20.8797 88.1744 20.8611 88.1727 20.8408 88.1727ZM26.2067 85.1894C26.0882 85.1894 26.0002 85.2452 25.9207 85.367C25.5366 85.9559 25.4943 88.1253 27.9919 92.1662C28.5402 91.0799 28.7331 89.6957 28.2915 88.1659C27.6992 86.1184 26.76 85.2672 26.2727 85.1944C26.249 85.191 26.227 85.1894 26.2067 85.1894ZM32.8096 84.3517C32.5152 84.3517 32.2647 84.4296 32.0955 84.5785C31.5371 85.0726 31.4389 86.9391 34.6135 90.7956C34.6778 90.8734 34.7438 90.9529 34.8131 91.0308C35.6119 88.682 35.6559 86.1945 34.891 85.3907C34.2175 84.6817 33.4171 84.35 32.8096 84.35V84.3517Z" fill="#363634"/>
<path d="M65.8479 40.7093C65.7701 40.7093 65.6906 40.6907 65.6161 40.6535C65.3674 40.5249 65.2675 40.2203 65.3961 39.9698C65.4367 39.8903 68.4742 33.8746 67.5824 29.6187C66.9479 30.7948 66.1948 31.4006 65.3335 31.4243C64.0305 31.4615 63.0287 30.1281 62.5279 28.8674C62.0557 27.6829 61.8273 26.011 62.7309 25.2038C63.1793 24.8028 64.0508 24.5049 65.6533 25.3629C66.447 25.7876 67.0595 26.3257 67.5249 26.9468C68.173 24.5946 68.0325 22.5437 67.1001 20.8413C65.452 17.8293 61.8679 16.8952 61.8324 16.8867C61.5599 16.8173 61.3958 16.5415 61.4635 16.2707C61.5312 16 61.807 15.8342 62.0794 15.9019C62.2436 15.9442 66.1305 16.9578 67.9902 20.354C69.1545 22.4828 69.2492 25.0481 68.2695 27.9807C68.2491 28.0382 68.2305 28.0958 68.2102 28.1533C70.1579 32.7933 66.491 40.0544 66.2964 40.4335C66.2067 40.6095 66.029 40.7093 65.8445 40.7093H65.8479ZM63.8478 25.8248C63.6616 25.8248 63.5127 25.8705 63.4095 25.9619C63.0135 26.3156 63.0406 27.4037 63.4738 28.4934C63.929 29.639 64.6854 30.4276 65.3064 30.409C65.9224 30.3921 66.5654 29.6035 67.1052 28.2227C66.7008 27.4223 66.0798 26.742 65.1761 26.258C64.6397 25.9704 64.1828 25.8248 63.8478 25.8248Z" fill="#363634"/>
<path d="M136.066 109.572C128.138 109.572 121.711 115.999 121.711 123.927C121.711 131.855 128.138 138.282 136.066 138.282C143.994 138.282 150.421 131.855 150.421 123.927C150.421 115.999 143.994 109.572 136.066 109.572ZM144.171 119.676L134.763 129.085C134.253 129.594 133.587 129.848 132.918 129.848C132.25 129.848 131.581 129.594 131.074 129.085L127.96 125.971C127.454 125.465 127.454 124.643 127.96 124.137C128.468 123.631 129.289 123.631 129.795 124.137L132.908 127.251L142.337 117.842C142.845 117.336 143.665 117.336 144.171 117.842C144.677 118.348 144.677 119.17 144.171 119.676Z" fill="#FF4462"/>
</svg>
