<svg width="18" height="22" viewBox="0 0 18 22" fill="none" xmlns="http://www.w3.org/2000/svg">
<path d="M12.5361 5.13477C12.6865 5.13477 12.9193 5.15267 13.2344 5.18848C13.5566 5.21712 13.9219 5.2959 14.3301 5.4248C14.7383 5.55371 15.1536 5.76139 15.5762 6.04785C15.9987 6.33431 16.389 6.73535 16.7471 7.25098C16.7113 7.27246 16.5752 7.36914 16.3389 7.54102C16.1097 7.71289 15.8483 7.96354 15.5547 8.29297C15.2611 8.61523 15.0033 9.02702 14.7812 9.52832C14.5664 10.0225 14.459 10.6133 14.459 11.3008C14.459 12.0885 14.5951 12.7546 14.8672 13.2988C15.1465 13.8431 15.4688 14.2835 15.834 14.6201C16.2064 14.9567 16.5358 15.2038 16.8223 15.3613C17.1159 15.5117 17.2734 15.5905 17.2949 15.5977C17.2878 15.6263 17.234 15.7874 17.1338 16.0811C17.0335 16.3675 16.876 16.7399 16.6611 17.1982C16.4535 17.6494 16.1813 18.1221 15.8447 18.6162C15.5368 19.0531 15.2181 19.472 14.8887 19.873C14.5664 20.2741 14.2119 20.5999 13.8252 20.8506C13.4456 21.1084 13.016 21.2373 12.5361 21.2373C12.1709 21.2373 11.8594 21.1943 11.6016 21.1084C11.3438 21.0225 11.0967 20.9222 10.8604 20.8076C10.6312 20.7002 10.377 20.6035 10.0977 20.5176C9.81836 20.4316 9.47103 20.3887 9.05566 20.3887C8.51139 20.3887 8.05664 20.4603 7.69141 20.6035C7.33333 20.7539 6.99316 20.9007 6.6709 21.0439C6.34863 21.1872 5.96908 21.2588 5.53223 21.2588C4.86621 21.2588 4.27897 20.9938 3.77051 20.4639C3.26921 19.9339 2.75358 19.3001 2.22363 18.5625C1.81543 17.9753 1.44303 17.2985 1.10645 16.5322C0.769857 15.766 0.501302 14.9531 0.300781 14.0938C0.10026 13.2344 0 12.375 0 11.5156C0 10.1406 0.261393 8.98405 0.78418 8.0459C1.30697 7.10775 1.97656 6.39876 2.79297 5.91895C3.60938 5.43913 4.45801 5.19922 5.33887 5.19922C5.80436 5.19922 6.24121 5.27441 6.64941 5.4248C7.06478 5.5752 7.4515 5.72917 7.80957 5.88672C8.16764 6.03711 8.49349 6.1123 8.78711 6.1123C9.06641 6.1123 9.39583 6.03353 9.77539 5.87598C10.1549 5.71126 10.5739 5.54655 11.0322 5.38184C11.4977 5.21712 11.999 5.13477 12.5361 5.13477ZM11.7842 3.39453C11.4261 3.83138 10.9749 4.19303 10.4307 4.47949C9.89355 4.76595 9.38509 4.90918 8.90527 4.90918C8.80501 4.90918 8.70833 4.89844 8.61523 4.87695C8.60807 4.84831 8.59733 4.79818 8.58301 4.72656C8.57585 4.65495 8.57227 4.57617 8.57227 4.49023C8.57227 3.94596 8.69043 3.41602 8.92676 2.90039C9.16309 2.38477 9.43522 1.95508 9.74316 1.61133C10.1227 1.16016 10.6025 0.78418 11.1826 0.483398C11.7699 0.182617 12.332 0.0214844 12.8691 0C12.8906 0.121745 12.9014 0.261393 12.9014 0.418945C12.9014 0.970378 12.7975 1.50749 12.5898 2.03027C12.3822 2.5459 12.1136 3.00065 11.7842 3.39453Z" fill="black" fill-opacity="0.6"/>
</svg>
