<svg width="12" height="17" viewBox="0 0 12 17" fill="none" xmlns="http://www.w3.org/2000/svg">
<path d="M2.09949 0C0.948268 0 0 0.948268 0 2.09949V14.6964C0 15.8476 0.948268 16.7959 2.09949 16.7959H9.09778C10.249 16.7959 11.1973 15.8476 11.1973 14.6964V2.09949C11.1973 0.948268 10.249 0 9.09778 0H2.09949ZM2.09949 1.39966H9.09778C9.48618 1.39966 9.79761 1.71108 9.79761 2.09949V14.6964C9.79761 15.0848 9.48618 15.3962 9.09778 15.3962H2.09949C1.71108 15.3962 1.39966 15.0848 1.39966 14.6964V2.09949C1.39966 1.71108 1.71108 1.39966 2.09949 1.39966ZM5.59863 13.2968C5.41303 13.2968 5.23502 13.3705 5.10378 13.5017C4.97254 13.633 4.8988 13.811 4.8988 13.9966C4.8988 14.1822 4.97254 14.3602 5.10378 14.4914C5.23502 14.6227 5.41303 14.6964 5.59863 14.6964C5.78424 14.6964 5.96224 14.6227 6.09349 14.4914C6.22473 14.3602 6.29846 14.1822 6.29846 13.9966C6.29846 13.811 6.22473 13.633 6.09349 13.5017C5.96224 13.3705 5.78424 13.2968 5.59863 13.2968Z" fill="#10B981"/>
</svg>
