<svg width="86" height="86" viewBox="0 0 86 86" fill="none" xmlns="http://www.w3.org/2000/svg">
<path fill-rule="evenodd" clip-rule="evenodd" d="M15.3402 21.0548C15.1162 19.9583 13.5485 19.9583 13.3245 21.0548C13.0811 22.2393 12.4957 23.3264 11.6406 24.1815C10.7855 25.0365 9.69841 25.622 8.5139 25.8654C7.4174 26.0912 7.4174 27.6571 8.5139 27.8828C9.69841 28.1262 10.7855 28.7117 11.6406 29.5668C12.4957 30.4219 13.0811 31.509 13.3245 32.6935C13.5503 33.79 15.1162 33.79 15.3402 32.6935C15.5837 31.5087 16.1694 30.4215 17.0248 29.5664C17.8802 28.7113 18.9677 28.1259 20.1526 27.8828C21.2491 27.6571 21.2491 26.0912 20.1526 25.8654C18.9677 25.6223 17.8802 25.037 17.0248 24.1819C16.1694 23.3268 15.5837 22.2395 15.3402 21.0548ZM26.762 33.3008C26.3894 31.4733 23.7771 31.4733 23.4027 33.3008C22.9995 35.2763 22.0245 37.0897 20.599 38.5155C19.1735 39.9414 17.3603 40.9167 15.3849 41.3203C13.5574 41.693 13.5574 44.3053 15.3849 44.6797C17.3601 45.0832 19.1731 46.0583 20.5986 47.4838C22.0241 48.9093 22.9992 50.7223 23.4027 52.6974C23.7771 54.5249 26.3894 54.5249 26.762 52.6974C27.1656 50.722 28.141 48.9089 29.5668 47.4834C30.9927 46.0578 32.806 45.0829 34.7815 44.6797C36.609 44.3053 36.609 41.693 34.7815 41.3203C32.8058 40.917 30.9923 39.9418 29.5664 38.516C28.1406 37.0901 27.1653 35.2766 26.762 33.3008Z" fill="url(#paint0_linear_568_122)" stroke="url(#paint1_linear_568_122)" stroke-width="0.0628703"/>
<path d="M43.8958 12.541C43.8958 11.8282 44.179 11.1447 44.683 10.6407C45.187 10.1367 45.8706 9.85352 46.5833 9.85352C47.2961 9.85352 47.9797 10.1367 48.4837 10.6407C48.9877 11.1447 49.2708 11.8282 49.2708 12.541H43.8958ZM49.2708 73.4577C49.2708 74.1704 48.9877 74.854 48.4837 75.358C47.9797 75.862 47.2961 76.1452 46.5833 76.1452C45.8706 76.1452 45.187 75.862 44.683 75.358C44.179 74.854 43.8958 74.1704 43.8958 73.4577H49.2708ZM29.5625 26.8743C29.5625 26.1616 29.8456 25.478 30.3497 24.974C30.8537 24.47 31.5372 24.1868 32.25 24.1868C32.9628 24.1868 33.6463 24.47 34.1503 24.974C34.6544 25.478 34.9375 26.1616 34.9375 26.8743H29.5625ZM34.9375 30.4577C34.9375 31.1705 34.6544 31.854 34.1503 32.358C33.6463 32.862 32.9628 33.1452 32.25 33.1452C31.5372 33.1452 30.8537 32.862 30.3497 32.358C29.8456 31.854 29.5625 31.1705 29.5625 30.4577H34.9375ZM29.5625 55.541C29.5625 54.8282 29.8456 54.1447 30.3497 53.6407C30.8537 53.1367 31.5372 52.8535 32.25 52.8535C32.9628 52.8535 33.6463 53.1367 34.1503 53.6407C34.6544 54.1447 34.9375 54.8282 34.9375 55.541H29.5625ZM34.9375 59.1243C34.9375 59.8371 34.6544 60.5207 34.1503 61.0247C33.6463 61.5287 32.9628 61.8118 32.25 61.8118C31.5372 61.8118 30.8537 61.5287 30.3497 61.0247C29.8456 60.5207 29.5625 59.8371 29.5625 59.1243H34.9375ZM58.2292 26.8743C58.2292 26.1616 58.5123 25.478 59.0163 24.974C59.5203 24.47 60.2039 24.1868 60.9167 24.1868C61.6294 24.1868 62.313 24.47 62.817 24.974C63.321 25.478 63.6042 26.1616 63.6042 26.8743H58.2292ZM63.6042 59.1243C63.6042 59.8371 63.321 60.5207 62.817 61.0247C62.313 61.5287 61.6294 61.8118 60.9167 61.8118C60.2039 61.8118 59.5203 61.5287 59.0163 61.0247C58.5123 60.5207 58.2292 59.8371 58.2292 59.1243H63.6042ZM72.5625 39.416C72.5625 38.7032 72.8456 38.0197 73.3496 37.5157C73.8537 37.0117 74.5372 36.7285 75.25 36.7285C75.9628 36.7285 76.6463 37.0117 77.1503 37.5157C77.6544 38.0197 77.9375 38.7032 77.9375 39.416H72.5625ZM77.9375 46.5827C77.9375 47.2955 77.6544 47.979 77.1503 48.483C76.6463 48.987 75.9628 49.2702 75.25 49.2702C74.5372 49.2702 73.8537 48.987 73.3496 48.483C72.8456 47.979 72.5625 47.2955 72.5625 46.5827H77.9375ZM49.2708 12.541V73.4577H43.8958V12.541H49.2708ZM34.9375 26.8743V30.4577H29.5625V26.8743H34.9375ZM34.9375 55.541V59.1243H29.5625V55.541H34.9375ZM63.6042 26.8743V59.1243H58.2292V26.8743H63.6042ZM77.9375 39.416V46.5827H72.5625V39.416H77.9375Z" fill="#202124"/>
<defs>
<linearGradient id="paint0_linear_568_122" x1="20.768" y1="20.2324" x2="21.3116" y2="61.3818" gradientUnits="userSpaceOnUse">
<stop stop-color="#FF61AD"/>
<stop offset="1" stop-color="#FF2719"/>
</linearGradient>
<linearGradient id="paint1_linear_568_122" x1="1430.72" y1="20.2324" x2="1430.72" y2="3403.79" gradientUnits="userSpaceOnUse">
<stop stop-color="#FD4C94"/>
<stop offset="1" stop-color="#FF0000"/>
</linearGradient>
</defs>
</svg>
