<svg width="18" height="20" viewBox="0 0 18 20" fill="none" xmlns="http://www.w3.org/2000/svg">
<path d="M10.8467 0.732422V4.21945C10.8467 4.69169 11.0348 5.14551 11.3703 5.48006C11.7067 5.81496 12.1621 6.00291 12.6367 6.00272H16.6367" stroke="#3B82F6" stroke-width="1.45455" stroke-linecap="round" stroke-linejoin="round"/>
<path d="M16.7271 6.36919V14.6776C16.7077 15.221 16.5811 15.7552 16.3544 16.2495C16.1278 16.7438 15.8055 17.1883 15.4063 17.5576C14.5991 18.3063 13.5277 18.7039 12.4274 18.663H5.06741C4.51925 18.6884 3.97148 18.6051 3.45559 18.4181C2.9397 18.231 2.46588 17.9439 2.06135 17.5731C1.65843 17.2027 1.33302 16.7561 1.10398 16.2591C0.874937 15.762 0.746819 15.2245 0.727051 14.6776V4.71489C0.746303 4.17145 0.872915 3.63719 1.09959 3.1429C1.32626 2.64861 1.64852 2.20407 2.04778 1.83489C2.85497 1.08612 3.92644 0.688505 5.02669 0.729437H10.5675C11.4133 0.726729 12.2297 1.03966 12.857 1.60701L15.7273 4.24653C16.0335 4.5104 16.2808 4.83576 16.4531 5.20147C16.6253 5.56718 16.7187 5.96504 16.7271 6.36919Z" stroke="#3B82F6" stroke-width="1.45455" stroke-linecap="round" stroke-linejoin="round"/>
</svg>
