<svg width="25" height="25" viewBox="0 0 25 25" fill="none" xmlns="http://www.w3.org/2000/svg">
<path d="M23.0212 11.0016L2.86706 1.16934C2.67338 1.07495 2.45887 1.03141 2.24372 1.04279C2.02857 1.05417 1.81985 1.12011 1.63721 1.23441C1.45457 1.3487 1.30402 1.50758 1.19972 1.69611C1.09542 1.88463 1.04081 2.09659 1.04102 2.31204V2.3485C1.04112 2.51883 1.06211 2.6885 1.10352 2.85371L3.03685 10.587C3.06276 10.6901 3.11956 10.7827 3.19962 10.8525C3.27968 10.9223 3.37918 10.966 3.48477 10.9777L11.9816 11.9225C12.123 11.9395 12.2533 12.0077 12.3477 12.1142C12.4422 12.2207 12.4944 12.3582 12.4944 12.5006C12.4944 12.643 12.4422 12.7804 12.3477 12.887C12.2533 12.9935 12.123 13.0617 11.9816 13.0787L3.48477 14.0235C3.37918 14.0352 3.27968 14.0788 3.19962 14.1487C3.11956 14.2185 3.06276 14.3111 3.03685 14.4141L1.10352 22.1464C1.06211 22.3116 1.04112 22.4813 1.04102 22.6516V22.6881C1.04098 22.9035 1.09573 23.1153 1.2001 23.3037C1.30447 23.4921 1.45504 23.6508 1.63765 23.765C1.82026 23.8791 2.02891 23.945 2.24398 23.9563C2.45904 23.9677 2.67346 23.9241 2.86706 23.8298L23.0202 13.9975C23.3008 13.8605 23.5374 13.6475 23.7029 13.3827C23.8683 13.1178 23.9561 12.8118 23.9561 12.4995C23.9561 12.1873 23.8683 11.8813 23.7029 11.6164C23.5374 11.3516 23.3019 11.1386 23.0212 11.0016Z" fill="#667085"/>
</svg>
