<svg width="25" height="25" viewBox="0 0 25 25" fill="none" xmlns="http://www.w3.org/2000/svg">
<path d="M12.5 0C5.60747 0 0 5.60747 0 12.5C0 19.3925 5.60747 25 12.5 25C19.3925 25 25 19.3925 25 12.5C25 5.60747 19.3925 0 12.5 0ZM12.5 23.4375C6.46904 23.4375 1.5625 18.531 1.5625 12.5C1.5625 6.46904 6.46904 1.5625 12.5 1.5625C18.531 1.5625 23.4375 6.46904 23.4375 12.5C23.4375 18.531 18.531 23.4375 12.5 23.4375ZM19.2163 15.9766C18.4011 16.9695 17.376 17.7693 16.2146 18.3185C15.0533 18.8677 13.7846 19.1525 12.5 19.1525C11.2153 19.1525 9.94662 18.8677 8.78527 18.3185C7.62391 17.7693 6.59877 16.9695 5.78364 15.9766C5.71811 15.8974 5.66886 15.806 5.63871 15.7077C5.60856 15.6094 5.5981 15.5061 5.60794 15.4038C5.61777 15.3015 5.64771 15.2021 5.69603 15.1114C5.74435 15.0206 5.81011 14.9403 5.88953 14.875C5.96895 14.8097 6.06047 14.7608 6.15885 14.7309C6.25723 14.7011 6.36053 14.691 6.46283 14.7011C6.56514 14.7113 6.66442 14.7416 6.75501 14.7902C6.8456 14.8388 6.9257 14.9048 6.99072 14.9844C7.65927 15.799 8.50014 16.4552 9.45278 16.9058C10.4054 17.3563 11.4461 17.59 12.4999 17.59C13.5537 17.59 14.5944 17.3563 15.5471 16.9058C16.4997 16.4552 17.3406 15.799 18.0091 14.9844C18.1409 14.8251 18.3305 14.7245 18.5363 14.7048C18.7422 14.685 18.9474 14.7476 19.1072 14.8789C19.2669 15.0102 19.3681 15.1994 19.3885 15.4052C19.409 15.6109 19.347 15.8164 19.2162 15.9766H19.2163ZM14.3133 10.3396V9.79004C14.3133 8.63936 15.3866 7.70322 16.7059 7.70322C18.0251 7.70322 19.0984 8.63936 19.0984 9.79004V10.3398C19.0984 10.547 19.0161 10.7458 18.8696 10.8923C18.7231 11.0388 18.5244 11.1211 18.3172 11.1211C18.11 11.1211 17.9113 11.0388 17.7648 10.8923C17.6182 10.7458 17.5359 10.547 17.5359 10.3398V9.79004C17.5359 9.54253 17.1809 9.26572 16.7059 9.26572C16.2308 9.26572 15.8758 9.54253 15.8758 9.79004V10.3398C15.8758 10.547 15.7935 10.7458 15.647 10.8923C15.5004 11.0388 15.3017 11.1211 15.0945 11.1211C14.8873 11.1211 14.6886 11.0388 14.5421 10.8923C14.3956 10.7458 14.3133 10.547 14.3133 10.3398V10.3396ZM5.90132 10.3396V9.79004C5.90132 8.63936 6.97471 7.70322 8.2939 7.70322C9.61309 7.70322 10.6865 8.63936 10.6865 9.79004V10.3398C10.6865 10.547 10.6042 10.7458 10.4577 10.8923C10.3111 11.0388 10.1124 11.1211 9.90522 11.1211C9.69802 11.1211 9.49931 11.0388 9.3528 10.8923C9.20628 10.7458 9.12397 10.547 9.12397 10.3398V9.79004C9.12397 9.54253 8.76899 9.26572 8.2939 9.26572C7.8188 9.26572 7.46382 9.54253 7.46382 9.79004V10.3398C7.46382 10.547 7.38151 10.7458 7.235 10.8923C7.08848 11.0388 6.88977 11.1211 6.68257 11.1211C6.47537 11.1211 6.27665 11.0388 6.13014 10.8923C5.98363 10.7458 5.90132 10.547 5.90132 10.3398V10.3396Z" fill="#667085"/>
</svg>
