<svg width="171" height="166" viewBox="0 0 171 166" fill="none" xmlns="http://www.w3.org/2000/svg">
<g clip-path="url(#clip0_1_2308)">
<path d="M21.6271 6.25793V155.688H145.556V6.25793H21.6271ZM137.562 136.405H29.6269V25.782H137.562V136.405Z" fill="white"/>
<path d="M145.556 155.975H21.6271C21.4666 155.975 21.3406 155.849 21.3406 155.688V6.25796C21.3406 6.09751 21.4666 5.97144 21.6271 5.97144H145.556C145.717 5.97144 145.843 6.09751 145.843 6.25796V155.688C145.843 155.849 145.717 155.975 145.556 155.975ZM21.9136 155.402H145.27V6.54449H21.9136V155.402ZM137.562 136.691H29.627C29.4665 136.691 29.3404 136.565 29.3404 136.405V25.782C29.3404 25.6215 29.4665 25.4955 29.627 25.4955H137.562C137.723 25.4955 137.849 25.6215 137.849 25.782V136.405C137.849 136.565 137.723 136.691 137.562 136.691ZM29.9135 136.118H137.276V26.0685H29.9135V136.118Z" fill="black"/>
<path d="M35.4893 22.0629C33.7988 22.0629 32.2229 21.3924 31.0539 20.1718C29.9479 19.02 29.3405 17.5071 29.3405 15.914C29.3405 12.5215 32.0969 9.76514 35.4893 9.76514C38.8818 9.76514 41.6382 12.5215 41.6382 15.914C41.6382 17.5071 41.0308 19.02 39.9248 20.1718C38.75 21.3924 37.1741 22.0629 35.4836 22.0629H35.4893ZM35.4893 10.3325C32.412 10.3325 29.9135 12.8367 29.9135 15.9083C29.9135 17.3524 30.4636 18.7277 31.4665 19.7707C32.5266 20.8767 33.9593 21.4841 35.4893 21.4841C37.0194 21.4841 38.452 20.8767 39.5122 19.7707C40.515 18.7277 41.0652 17.3524 41.0652 15.9083C41.0652 12.831 38.5609 10.3325 35.4893 10.3325Z" fill="black"/>
<path d="M35.4893 16.0917C36.6572 16.0917 37.6039 15.145 37.6039 13.9771C37.6039 12.8093 36.6572 11.8625 35.4893 11.8625C34.3215 11.8625 33.3748 12.8093 33.3748 13.9771C33.3748 15.145 34.3215 16.0917 35.4893 16.0917Z" fill="#0597F2"/>
<path d="M35.4894 16.3781C34.1656 16.3781 33.0883 15.3008 33.0883 13.977C33.0883 12.6533 34.1656 11.5759 35.4894 11.5759C36.8131 11.5759 37.8905 12.6533 37.8905 13.977C37.8905 15.3008 36.8131 16.3781 35.4894 16.3781ZM35.4894 12.149C34.4808 12.149 33.6613 12.9685 33.6613 13.977C33.6613 14.9856 34.4808 15.8051 35.4894 15.8051C36.4979 15.8051 37.3174 14.9856 37.3174 13.977C37.3174 12.9685 36.4979 12.149 35.4894 12.149Z" fill="black"/>
<path d="M39.7186 19.9769C38.6527 21.0886 37.1513 21.782 35.4894 21.782C33.8275 21.782 32.3261 21.0886 31.2603 19.9769C31.8047 18.1546 33.4952 16.8308 35.4894 16.8308C37.4836 16.8308 39.1742 18.1546 39.7186 19.9769Z" fill="#0597F2"/>
<path d="M35.4894 22.0628C33.7989 22.0628 32.223 21.3924 31.0539 20.1718C30.9852 20.0973 30.9565 19.9884 30.9852 19.891C31.5754 17.9196 33.4264 16.5386 35.4894 16.5386C37.5524 16.5386 39.4033 17.9139 39.9936 19.891C40.0222 19.9884 39.9936 20.0973 39.9248 20.1718C38.7501 21.3924 37.1742 22.0628 35.4894 22.0628ZM31.5869 19.8967C32.6356 20.9282 34.0166 21.4898 35.4894 21.4898C36.9621 21.4898 38.3432 20.9225 39.3919 19.8967C38.8246 18.252 37.2429 17.1174 35.4894 17.1174C33.7358 17.1174 32.1542 18.252 31.5869 19.8967Z" fill="black"/>
<path d="M89.0014 15.0315H48.515C47.9295 15.0315 47.4548 15.5049 47.4548 16.0888C47.4548 16.6727 47.9295 17.1461 48.515 17.1461H89.0014C89.5869 17.1461 90.0616 16.6727 90.0616 16.0888C90.0616 15.5049 89.5869 15.0315 89.0014 15.0315Z" fill="black"/>
<path d="M89.0014 17.4326H48.5093C47.77 17.4326 47.1626 16.8309 47.1626 16.0859C47.1626 15.341 47.7643 14.7393 48.5093 14.7393H89.0014C89.7407 14.7393 90.3481 15.341 90.3481 16.0859C90.3481 16.8309 89.7464 17.4326 89.0014 17.4326ZM48.5093 15.318C48.0852 15.318 47.7357 15.6619 47.7357 16.0917C47.7357 16.5215 48.0795 16.8653 48.5093 16.8653H89.0014C89.4255 16.8653 89.7751 16.5215 89.7751 16.0917C89.7751 15.6619 89.4312 15.318 89.0014 15.318H48.5093Z" fill="black"/>
<path d="M54.7956 145.087C54.7956 143.155 52.9504 141.585 50.6811 141.585C48.4118 141.585 46.5665 143.15 46.5665 145.087C46.5665 146.806 48.0221 148.233 49.9361 148.531L50.6811 150.96L51.426 148.531C53.3458 148.233 54.7956 146.806 54.7956 145.087Z" fill="#FFBB12"/>
<path d="M50.6811 151.241C50.555 151.241 50.4461 151.161 50.406 151.041L49.7126 148.783C47.7127 148.399 46.28 146.869 46.28 145.086C46.28 143.001 48.2571 141.299 50.6811 141.299C53.1051 141.299 55.0822 142.995 55.0822 145.086C55.0822 146.869 53.6495 148.399 51.6496 148.783L50.9562 151.041C50.9218 151.161 50.8072 151.241 50.6811 151.241ZM50.6811 141.872C48.5723 141.872 46.8531 143.316 46.8531 145.086C46.8531 146.634 48.1711 147.963 49.982 148.244C50.0909 148.261 50.1768 148.336 50.2112 148.445L50.6811 149.98L51.151 148.445C51.1854 148.341 51.2713 148.261 51.3802 148.244C53.1911 147.963 54.5091 146.634 54.5091 145.086C54.5091 143.316 52.7899 141.872 50.6811 141.872Z" fill="black"/>
<path d="M38.6469 142.542C37.3003 140.09 34.6298 143.138 34.6298 143.138C34.6298 143.138 31.9594 140.095 30.6127 142.542C29.0311 145.419 34.6298 149.683 34.6298 149.683C34.6298 149.683 40.2286 145.419 38.6469 142.542Z" fill="#F2529D"/>
<path d="M34.6298 150.043L34.4579 149.912C34.2229 149.734 28.6872 145.465 30.3663 142.405C30.7273 141.746 31.2144 141.379 31.8161 141.31C32.9565 141.184 34.1542 142.238 34.6355 142.72C35.1169 142.238 36.3088 141.184 37.455 141.31C38.0567 141.373 38.5438 141.746 38.9048 142.405C40.5838 145.465 35.0481 149.728 34.8132 149.912L34.6412 150.043H34.6298ZM31.9995 141.877C31.9536 141.877 31.9135 141.877 31.8734 141.883C31.4665 141.929 31.1341 142.187 30.8648 142.68C29.5697 145.035 33.7186 148.576 34.6298 149.316C35.5409 148.576 39.6899 145.035 38.3948 142.68C38.1254 142.187 37.7931 141.929 37.3862 141.883C36.4349 141.78 35.2315 142.892 34.8475 143.327L34.6298 143.574L34.412 143.327C34.0453 142.909 32.9278 141.877 31.9995 141.877Z" fill="black"/>
<path d="M72.0847 141.608L66.6636 147.201L62.87 145.379L72.0847 141.608Z" fill="#0597F2"/>
<path d="M66.6636 147.488C66.6235 147.488 66.5777 147.476 66.5376 147.459L62.7439 145.637C62.6408 145.585 62.5778 145.482 62.5835 145.367C62.5835 145.253 62.658 145.155 62.7611 145.11L71.9701 141.345C72.0962 141.293 72.2395 141.339 72.314 141.448C72.3885 141.562 72.377 141.711 72.2796 141.809L66.8642 147.396C66.8069 147.453 66.7324 147.482 66.6579 147.482L66.6636 147.488ZM63.5749 145.402L66.6006 146.857L70.9215 142.399L63.5749 145.402Z" fill="black"/>
<path d="M72.0848 141.608L66.6637 147.201L68.6064 150.932L72.0848 141.608Z" fill="#0597F2"/>
<path d="M68.6064 151.218C68.4975 151.218 68.4001 151.161 68.3542 151.064L66.4116 147.327C66.3543 147.218 66.3715 147.087 66.4574 146.995L71.8728 141.408C71.9645 141.31 72.1192 141.293 72.2338 141.367C72.3484 141.442 72.3943 141.585 72.3484 141.711L68.87 151.035C68.8299 151.144 68.7324 151.213 68.6178 151.218C68.6121 151.218 68.6064 151.218 68.6006 151.218H68.6064ZM67.0133 147.247L68.5605 150.227L71.3341 142.789L67.0133 147.247Z" fill="black"/>
</g>
<g clip-path="url(#clip1_1_2308)">
<path d="M72.2394 63.2601C72.2394 63.2601 64.3369 53.0597 66.3713 48.1772C68.4056 43.2948 81.8094 41.4209 81.8094 41.4209C81.8094 41.4209 87.8666 34.8537 90.4282 35.7247C92.9897 36.5958 91.4826 40.1659 91.4826 40.1659C91.4826 40.1659 95.3679 35.037 97.8091 36.9109C100.25 38.7906 96.1186 43.4782 96.1186 43.4782C96.1186 43.4782 99.9352 41.5985 100.124 44.5441C100.313 47.4896 95.3335 52.4121 95.3335 52.4121L72.2394 63.2601Z" fill="#003593"/>
<path d="M72.2391 63.558C72.1474 63.558 72.0615 63.5179 72.0041 63.4434C71.6775 63.0194 64.0215 53.0482 66.0959 48.0683C68.1016 43.2661 80.302 41.3464 81.6659 41.1458C82.5656 40.1774 87.9408 34.5671 90.5253 35.4496C91.213 35.6846 91.7001 36.1144 91.9694 36.7218C92.2846 37.4324 92.256 38.2633 92.1356 38.9453C93.0983 37.9023 94.7029 36.4353 96.233 36.229C96.892 36.143 97.488 36.292 97.9865 36.676C98.5023 37.0714 98.7945 37.6101 98.8576 38.2691C99.0066 39.8278 97.8146 41.7418 97.0123 42.8249C97.7688 42.6014 98.7945 42.4409 99.528 42.865C100.067 43.1744 100.365 43.736 100.416 44.5268C100.611 47.564 95.7459 52.4178 95.5396 52.6241C95.5166 52.6471 95.488 52.67 95.4593 52.6814L72.3652 63.5294C72.3251 63.5466 72.2792 63.558 72.2391 63.558ZM89.9007 35.9367C87.7575 35.9367 83.5627 39.9539 82.0269 41.6157C81.9811 41.6673 81.918 41.696 81.8493 41.7074C81.7175 41.7246 68.5887 43.6157 66.6403 48.2861C64.8409 52.5955 71.2764 61.4778 72.3251 62.8876L95.1613 52.1714C95.6026 51.7244 99.9979 47.2145 99.826 44.567C99.7859 43.9767 99.5968 43.587 99.2358 43.375C98.3991 42.8879 96.7946 43.4782 96.2502 43.7475C96.1241 43.8105 95.9694 43.7761 95.8834 43.6615C95.7974 43.5469 95.8032 43.3922 95.8949 43.289C95.9178 43.2604 98.4679 40.3378 98.273 38.3264C98.2272 37.8278 98.0152 37.4439 97.6255 37.1459C97.2473 36.8536 96.8175 36.7447 96.3075 36.8135C94.1929 37.0943 91.7402 40.3092 91.7115 40.3435C91.6199 40.4639 91.4594 40.4983 91.3276 40.4238C91.1958 40.3493 91.1442 40.1888 91.2015 40.0513C91.2073 40.0341 91.9694 38.1946 91.4193 36.9568C91.213 36.4983 90.852 36.1832 90.3248 35.9998C90.193 35.9539 90.044 35.931 89.8892 35.931L89.9007 35.9367Z" fill="black"/>
<path d="M96.9495 59.2659C97.9123 65.2601 96.4682 69.2256 93.8952 70.5609C91.3221 71.8961 86.9898 70.3144 86.9898 70.3144L87.6087 85.2483C87.7806 89.4545 84.1417 92.9502 79.5917 92.9502C75.0588 92.9502 71.4256 89.4774 71.5746 85.2827L72.4227 61.7874C72.4227 61.7874 66.589 62.8303 66.3713 58.0224C66.2509 55.2946 68.4687 53.0311 70.4915 52.8706C74.8812 52.521 74.6118 56.3892 74.6118 56.3892C74.6118 56.3892 76.2336 55.5697 77.7808 52.8993C79.8438 49.3349 80.2507 46.7561 83.179 46.7504C86.8294 46.7504 87.1503 48.8707 89.4196 49.5641C91.878 50.3148 93.7805 47.9423 93.7805 47.9423C93.7805 47.9423 95.9753 53.266 96.9381 59.2602L96.9495 59.2659Z" fill="#FFBDC2"/>
<path d="M79.5973 93.2482C77.2363 93.2482 74.9728 92.3084 73.3968 90.6751C71.9642 89.1852 71.2135 87.2712 71.2823 85.2712L72.1189 62.1312C71.2479 62.2286 69.013 62.3261 67.5058 61.1226C66.6176 60.412 66.142 59.3748 66.0789 58.0396C65.9471 55.1227 68.2909 52.7503 70.4743 52.5784C71.9585 52.458 73.1046 52.7904 73.8782 53.5583C74.6232 54.2975 74.841 55.2603 74.8983 55.8563C75.4599 55.4437 76.5143 54.5096 77.5343 52.7503C78.01 51.9251 78.4054 51.14 78.7549 50.4523C79.924 48.1315 80.7664 46.4581 83.1904 46.4581C85.5227 46.4581 86.6173 47.3349 87.5628 48.1085C88.1473 48.5842 88.6974 49.0369 89.5169 49.2833C91.7518 49.9652 93.5455 47.7819 93.5627 47.759C93.6257 47.6787 93.7346 47.6386 93.8378 47.6501C93.9409 47.6673 94.0269 47.736 94.067 47.8277C94.0899 47.8793 96.2847 53.2546 97.2474 59.2144C98.1701 64.9564 96.9724 69.2944 94.0383 70.8187C91.8321 71.9706 88.4797 71.0881 87.3049 70.7271L87.9066 85.2368C87.9869 87.2425 87.2476 89.168 85.8092 90.6637C84.2333 92.3084 81.9698 93.2482 79.5973 93.2482ZM72.4284 61.4951C72.4972 61.4951 72.5659 61.518 72.6232 61.5696C72.692 61.6269 72.7264 61.7129 72.7264 61.8046L71.8782 85.2999C71.8095 87.1337 72.5029 88.8987 73.8266 90.2683C75.2937 91.7869 77.3968 92.6579 79.5973 92.6579C81.7979 92.6579 83.9182 91.7811 85.3852 90.2511C86.7089 88.87 87.3966 87.0993 87.3164 85.2598L86.6975 70.3259C86.6975 70.2285 86.7376 70.1311 86.8178 70.0738C86.8981 70.0165 87.0012 69.9993 87.0929 70.0337C87.133 70.0509 91.3392 71.558 93.7633 70.2973C96.4165 68.9162 97.5282 64.7042 96.6572 59.3118C95.8664 54.395 94.2217 49.8793 93.6888 48.4925C93.0126 49.163 91.3736 50.4695 89.345 49.8506C88.4166 49.5698 87.792 49.0598 87.1903 48.567C86.2333 47.7876 85.3336 47.0484 83.1961 47.0484H83.1904C81.1331 47.0484 80.434 48.4294 79.2879 50.7159C78.9383 51.4151 78.5372 52.2059 78.0501 53.0483C76.4742 55.7703 74.8238 56.6241 74.755 56.6585C74.6576 56.7044 74.5487 56.6986 74.457 56.6413C74.371 56.584 74.3195 56.4809 74.3252 56.3777C74.3252 56.3605 74.4112 54.9222 73.4599 53.9824C72.8123 53.3405 71.8209 53.0712 70.5201 53.1743C68.6462 53.3233 66.5546 55.4723 66.6692 58.0167C66.7207 59.1742 67.1276 60.0625 67.8726 60.6642C69.5287 61.988 72.3482 61.5123 72.3711 61.5066C72.3883 61.5066 72.4055 61.5066 72.4227 61.5066L72.4284 61.4951Z" fill="black"/>
<path d="M86.9897 70.3144C82.5027 69.1396 80.136 67.0193 80.136 67.0193C80.136 67.0193 81.2191 69.621 82.8465 71.8502C84.474 74.0793 87.2132 75.7126 87.2132 75.7126L86.9897 70.3144Z" fill="black"/>
<path d="M87.2132 76.0104C87.1616 76.0104 87.1101 75.999 87.0642 75.9703C86.9496 75.9016 84.2505 74.2798 82.6116 72.0277C80.9841 69.7985 79.9125 67.2427 79.8666 67.1395C79.8151 67.0135 79.8552 66.8645 79.9698 66.7842C80.0844 66.704 80.2334 66.7097 80.3365 66.8072C80.3595 66.8301 82.7147 68.8931 87.07 70.0335C87.196 70.0678 87.2877 70.1767 87.2877 70.3085L87.5112 75.7067C87.5112 75.8156 87.4596 75.9187 87.3679 75.9703C87.3221 75.999 87.2705 76.0104 87.2189 76.0104H87.2132ZM80.8924 67.959C81.3566 68.916 82.1302 70.3658 83.0872 71.6781C84.262 73.2827 86.0499 74.595 86.898 75.1623L86.7089 70.5492C83.9124 69.787 81.964 68.681 80.8981 67.9647L80.8924 67.959Z" fill="black"/>
<path d="M70.5487 59.8332C70.3997 59.8332 70.2679 59.7186 70.2564 59.5696C70.2392 59.4091 70.3595 59.2601 70.52 59.2429C70.5658 59.2429 71.6661 59.0882 71.9068 57.5925C72.1589 56.0166 71.1045 54.9851 71.0587 54.945C70.9383 54.8304 70.9383 54.647 71.0472 54.5267C71.1618 54.4064 71.3452 54.4006 71.4655 54.5152C71.5171 54.5668 72.795 55.7932 72.4913 57.6842C72.2449 59.2544 71.1332 59.7759 70.583 59.8332C70.5716 59.8332 70.5601 59.8332 70.5544 59.8332H70.5487Z" fill="black"/>
<path d="M68.9729 58.0681C68.8411 58.0681 68.7265 57.9822 68.6864 57.8504C68.6405 57.6956 68.7322 57.5295 68.8927 57.4836L72.1419 56.561C72.2966 56.5152 72.4628 56.6068 72.5086 56.7673C72.5545 56.922 72.4628 57.0882 72.3023 57.1341L69.0531 58.0567C69.0531 58.0567 69.0015 58.0681 68.9729 58.0681Z" fill="black"/>
<path d="M89.9926 58.8991C89.9124 58.8991 89.8322 58.8647 89.7749 58.8017C89.666 58.6813 89.6717 58.4922 89.7921 58.3833C90.0901 58.114 90.4224 57.7816 90.6058 57.5811C90.3307 57.4378 89.8207 57.2143 89.3737 57.0309C89.282 56.9908 89.2133 56.9106 89.1961 56.8074L88.8637 54.9679C88.8351 54.8075 88.9439 54.6527 89.1044 54.6241C89.2649 54.5954 89.4196 54.7043 89.4482 54.8648L89.7519 56.5438C91.2132 57.1513 91.2534 57.2773 91.2935 57.4034C91.3508 57.5753 91.3966 57.7186 90.1989 58.8189C90.1416 58.8704 90.0729 58.8991 89.9984 58.8991H89.9926Z" fill="black"/>
<path d="M87.2133 59.6898L91.4883 60.3202C91.4883 60.3202 91.0183 62.2686 89.1273 62.068C87.3508 61.8789 87.2133 59.6898 87.2133 59.6898Z" fill="black"/>
<path d="M89.3965 62.3775C89.2991 62.3775 89.2017 62.3775 89.0985 62.3603C87.4997 62.1884 86.9725 60.5495 86.9209 59.7071C86.9152 59.6154 86.9496 59.5294 87.0183 59.4721C87.0814 59.4091 87.1731 59.3862 87.2647 59.3976L91.5397 60.028C91.62 60.0394 91.6945 60.0853 91.7403 60.154C91.7862 60.2228 91.8033 60.3088 91.7804 60.389C91.6085 61.1053 90.8979 62.3775 89.4022 62.3775H89.3965ZM87.5627 60.0394C87.6831 60.6125 88.0556 61.6555 89.1616 61.7701C90.3478 61.8961 90.8865 61.0423 91.0928 60.5609L87.5627 60.0394Z" fill="black"/>
<path d="M86.4109 55.2774C86.6324 55.2774 86.812 55.0311 86.812 54.7273C86.812 54.4234 86.6324 54.1771 86.4109 54.1771C86.1894 54.1771 86.0098 54.4234 86.0098 54.7273C86.0098 55.0311 86.1894 55.2774 86.4109 55.2774Z" fill="#191919"/>
<path d="M91.8894 55.2774C92.111 55.2774 92.2906 55.0311 92.2906 54.7273C92.2906 54.4234 92.111 54.1771 91.8894 54.1771C91.6679 54.1771 91.4883 54.4234 91.4883 54.7273C91.4883 55.0311 91.6679 55.2774 91.8894 55.2774Z" fill="#191919"/>
</g>
<g clip-path="url(#clip2_1_2308)">
<path d="M151.929 21.2434C154.731 13.6504 149.768 4.82536 140.84 1.53029C131.918 -1.75905 122.405 1.7194 119.603 9.31239C117.115 16.0515 120.754 23.7649 127.849 27.7132L127.259 38.3262L133.705 29.8736C141.665 31.4782 149.442 27.9826 151.929 21.2434Z" fill="#F27825"/>
<path d="M127.259 38.6185C127.224 38.6185 127.19 38.6127 127.161 38.6013C127.041 38.5554 126.966 38.4408 126.972 38.3148L127.551 27.8794C120.307 23.7591 116.852 15.9369 119.333 9.21496C120.72 5.46145 123.734 2.57324 127.826 1.07184C131.9 -0.41811 136.559 -0.355074 140.938 1.26667C149.998 4.61332 155.046 13.6218 152.192 21.3466C149.711 28.0685 142.003 31.7704 133.82 30.1945L127.482 38.5039C127.425 38.5784 127.345 38.6185 127.253 38.6185H127.259ZM133.992 0.573277C131.935 0.573277 129.918 0.917111 128.027 1.61051C124.095 3.04888 121.201 5.82247 119.872 9.41553C117.471 15.9197 120.886 23.5127 127.986 27.4668C128.084 27.5184 128.141 27.6215 128.135 27.7304L127.597 37.4093L133.476 29.7017C133.545 29.6158 133.654 29.5699 133.763 29.5928C141.734 31.2031 149.258 27.6502 151.659 21.1403C154.404 13.7077 149.505 5.03165 140.743 1.79389C138.525 0.974416 136.233 0.561816 133.992 0.561816V0.573277Z" fill="black"/>
<path d="M145.184 19.0028C144.244 21.5529 142.376 23.5013 140.112 24.6073C137.717 25.7706 134.874 25.9884 132.181 24.997C129.493 24.0056 127.476 21.9885 126.41 19.5472C125.402 17.2378 125.253 14.5445 126.193 11.9944C128.13 6.74516 133.952 4.06899 139.195 6.00019C144.445 7.93712 147.126 13.7594 145.189 19.0028H145.184Z" fill="#003593"/>
<path d="M135.7 25.9139C134.485 25.9139 133.264 25.6961 132.084 25.2606C129.402 24.2692 127.293 22.2807 126.147 19.6561C125.07 17.1805 124.989 14.4183 125.923 11.8854C126.886 9.27803 128.806 7.19784 131.333 6.03453C133.86 4.87123 136.685 4.76235 139.293 5.72508C141.9 6.68782 143.98 8.60756 145.144 11.1347C146.307 13.6619 146.416 16.4871 145.453 19.0945C144.519 21.6274 142.668 23.6732 140.238 24.8537C138.794 25.5528 137.247 25.9081 135.7 25.9081V25.9139ZM135.683 5.65059C134.279 5.65059 132.886 5.95431 131.574 6.55601C129.184 7.65628 127.373 9.61613 126.462 12.086C125.58 14.4814 125.654 17.0888 126.674 19.4269C127.757 21.9082 129.751 23.7878 132.284 24.7219C134.817 25.656 137.556 25.5242 139.992 24.3437C142.29 23.2262 144.038 21.295 144.92 18.8996C145.831 16.4355 145.728 13.7593 144.628 11.3754C143.528 8.9915 141.568 7.17492 139.098 6.26376C137.986 5.85116 136.834 5.65059 135.688 5.65059H135.683Z" fill="black"/>
<path d="M136.846 16.0057C138.862 16.0057 140.496 14.3714 140.496 12.3553C140.496 10.3393 138.862 8.70496 136.846 8.70496C134.83 8.70496 133.196 10.3393 133.196 12.3553C133.196 14.3714 134.83 16.0057 136.846 16.0057Z" fill="#0597F2"/>
<path d="M136.84 16.2923C136.387 16.2923 135.929 16.2121 135.482 16.0459C134.496 15.6791 133.711 14.9571 133.27 14.0001C132.829 13.0431 132.789 11.9772 133.15 10.9858C133.516 10.0002 134.238 9.21508 135.195 8.77382C136.152 8.33257 137.218 8.29246 138.21 8.65348C140.244 9.40419 141.293 11.6735 140.542 13.7136C139.957 15.3009 138.445 16.2866 136.846 16.2866L136.84 16.2923ZM136.84 8.98585C136.359 8.98585 135.883 9.089 135.436 9.2953C134.622 9.67352 133.998 10.344 133.688 11.1864C133.379 12.0288 133.413 12.9457 133.791 13.7594C134.17 14.5732 134.84 15.1978 135.682 15.5072C137.425 16.1491 139.362 15.2551 140.003 13.5187C140.645 11.7766 139.751 9.83971 138.009 9.19788C137.631 9.06035 137.235 8.98585 136.84 8.98585Z" fill="black"/>
<path d="M140.112 24.6073C137.717 25.7706 134.875 25.9884 132.181 24.997C129.494 24.0056 127.476 21.9885 126.411 19.5473C128.382 16.9227 131.906 15.788 135.144 16.98C138.382 18.1719 140.324 21.3295 140.118 24.6073H140.112Z" fill="#0597F2"/>
<path d="M135.7 25.9138C134.485 25.9138 133.264 25.696 132.084 25.2605C129.402 24.2691 127.293 22.2806 126.147 19.656C126.107 19.5586 126.118 19.4497 126.181 19.3695C128.262 16.6016 131.986 15.5071 135.241 16.7048C138.496 17.9082 140.617 21.1574 140.399 24.6187C140.393 24.7218 140.33 24.8135 140.238 24.8594C138.794 25.5585 137.247 25.9138 135.7 25.9138ZM126.743 19.5815C127.843 21.9826 129.803 23.8049 132.284 24.7218C134.766 25.6387 137.442 25.5298 139.837 24.4181C139.963 21.272 138.009 18.3437 135.041 17.2492C132.078 16.1546 128.686 17.1174 126.737 19.5872L126.743 19.5815Z" fill="black"/>
</g>
<g clip-path="url(#clip3_1_2308)">
<path d="M33.7987 111.947C31.4491 104.205 22.1656 100.165 13.0598 102.927C3.95391 105.695 -1.52451 114.21 0.830752 121.952C2.91668 128.829 10.4753 132.777 18.5153 131.643L24.4521 140.462L24.4865 129.832C31.8044 126.308 35.8903 118.823 33.7987 111.947Z" fill="#FFBB12"/>
<path d="M24.4523 140.749C24.3606 140.749 24.2689 140.703 24.2173 140.623L18.3779 131.952C10.1144 133.047 2.64174 128.892 0.555818 122.038C-1.83956 114.153 3.73628 105.46 12.9739 102.658C17.4438 101.299 22.097 101.506 26.074 103.236C30.0682 104.973 32.9106 108.039 34.0739 111.867C36.1541 118.726 32.2458 126.331 24.7732 130.015L24.7388 140.468C24.7388 140.594 24.6586 140.703 24.5382 140.743C24.5096 140.749 24.4809 140.754 24.4523 140.754V140.749ZM18.5154 131.356C18.6071 131.356 18.6988 131.402 18.7504 131.482L24.1657 139.528L24.2001 129.832C24.2001 129.723 24.2631 129.62 24.3606 129.574C31.6842 126.044 35.5409 118.663 33.5237 112.033C32.412 108.371 29.6843 105.431 25.8448 103.764C21.9881 102.09 17.4782 101.89 13.1401 103.208C4.20045 105.918 -1.19773 114.291 1.10022 121.872C3.11165 128.508 10.4181 132.497 18.4696 131.362C18.481 131.362 18.4982 131.362 18.5097 131.362L18.5154 131.356Z" fill="black"/>
<path d="M24.3662 108.978C19.8562 104.571 16.0855 112.892 16.0855 112.892C16.0855 112.892 8.32062 108.067 7.02552 114.239C5.50119 121.488 20.3777 127.024 20.3777 127.024C20.3777 127.024 29.667 114.153 24.3719 108.978H24.3662Z" fill="#F2529D"/>
<path d="M20.4751 127.373L20.2688 127.299C20.2287 127.287 16.4809 125.878 12.9681 123.597C8.24607 120.531 6.09138 117.276 6.73894 114.187C7.05985 112.652 7.80482 111.626 8.93947 111.139C11.4036 110.084 14.9451 111.918 15.9537 112.497C16.4752 111.454 18.4006 107.964 21.031 107.471C22.2458 107.242 23.4321 107.683 24.5553 108.783C26.8131 110.99 26.8303 114.892 24.6068 120.067C22.9507 123.918 20.6184 127.173 20.5954 127.202L20.4694 127.379L20.4751 127.373ZM10.6472 111.391C10.1257 111.391 9.62141 111.471 9.16869 111.666C8.21169 112.073 7.58706 112.961 7.30053 114.308C5.93666 120.778 18.4923 125.987 20.2631 126.686C21.3461 125.116 28.8876 113.815 24.1598 109.19C23.1799 108.228 22.1599 107.844 21.1398 108.033C18.4006 108.549 16.3605 112.978 16.3376 113.018L16.2001 113.316L15.925 113.144C15.8906 113.122 13.0712 111.391 10.6414 111.391H10.6472Z" fill="black"/>
</g>
<g clip-path="url(#clip4_1_2308)">
<path d="M168.255 146.433L170.713 140.485H166.037L167.791 135.018H161.413L159.659 140.485H151.464L153.229 135.018H146.851L145.098 140.485H140.662L138.204 146.433H143.19L141.161 152.748H137.746L135.281 158.697H139.247L137.201 165.075H143.579L145.625 158.697H153.82L151.774 165.075H158.152L160.198 158.697H165.344L167.802 152.748H162.106L164.135 146.433H168.261H168.255ZM155.728 152.748H147.533L149.562 146.433H157.757L155.728 152.748Z" fill="#188C4A"/>
<path d="M158.141 165.361H151.768C151.677 165.361 151.591 165.315 151.539 165.241C151.488 165.166 151.47 165.069 151.499 164.983L153.425 158.983H145.832L143.849 165.161C143.809 165.281 143.7 165.361 143.574 165.361H137.196C137.104 165.361 137.018 165.315 136.966 165.241C136.915 165.166 136.898 165.069 136.926 164.983L138.852 158.983H135.282C135.184 158.983 135.098 158.937 135.041 158.857C134.984 158.777 134.978 158.679 135.012 158.588L137.471 152.639C137.516 152.531 137.62 152.462 137.734 152.462H140.943L142.789 146.72H138.198C138.101 146.72 138.015 146.674 137.958 146.594C137.9 146.513 137.895 146.416 137.929 146.324L140.388 140.376C140.433 140.267 140.537 140.198 140.651 140.198H144.88L146.577 134.932C146.617 134.812 146.726 134.731 146.852 134.731H153.224C153.316 134.731 153.402 134.777 153.453 134.852C153.505 134.926 153.522 135.024 153.493 135.11L151.86 140.198H159.453L161.149 134.932C161.189 134.812 161.298 134.731 161.424 134.731H167.797C167.888 134.731 167.974 134.777 168.026 134.852C168.078 134.926 168.095 135.024 168.066 135.11L166.433 140.198H170.714C170.811 140.198 170.897 140.244 170.954 140.324C171.012 140.405 171.017 140.502 170.983 140.594L168.525 146.542C168.479 146.651 168.376 146.72 168.261 146.72H164.347L162.502 152.462H167.803C167.9 152.462 167.986 152.508 168.043 152.588C168.101 152.668 168.106 152.766 168.072 152.857L165.613 158.806C165.568 158.914 165.464 158.983 165.35 158.983H160.41L158.427 165.161C158.387 165.281 158.278 165.361 158.152 165.361H158.141ZM152.158 164.788H157.929L159.912 158.611C159.952 158.49 160.061 158.41 160.187 158.41H165.144L167.367 153.035H162.101C162.009 153.035 161.923 152.989 161.871 152.915C161.82 152.84 161.803 152.743 161.831 152.657L163.86 146.342C163.9 146.221 164.009 146.141 164.135 146.141H168.066L170.29 140.766H166.043C165.952 140.766 165.866 140.72 165.814 140.645C165.762 140.571 165.745 140.473 165.774 140.388L167.407 135.299H161.636L159.946 140.565C159.906 140.685 159.797 140.766 159.671 140.766H151.476C151.384 140.766 151.298 140.72 151.247 140.645C151.195 140.571 151.178 140.473 151.207 140.388L152.84 135.299H147.069L145.379 140.565C145.339 140.685 145.23 140.766 145.104 140.766H140.857L138.634 146.141H143.19C143.281 146.141 143.367 146.187 143.419 146.261C143.471 146.336 143.488 146.433 143.459 146.519L141.43 152.834C141.39 152.955 141.281 153.035 141.155 153.035H137.929L135.706 158.41H139.241C139.333 158.41 139.419 158.456 139.471 158.53C139.522 158.605 139.539 158.702 139.511 158.788L137.585 164.788H143.356L145.339 158.611C145.379 158.49 145.488 158.41 145.614 158.41H153.808C153.9 158.41 153.986 158.456 154.038 158.53C154.089 158.605 154.106 158.702 154.078 158.788L152.152 164.788H152.158ZM155.722 153.035H147.528C147.436 153.035 147.35 152.989 147.299 152.915C147.247 152.84 147.23 152.743 147.258 152.657L149.287 146.342C149.327 146.221 149.436 146.141 149.562 146.141H157.757C157.849 146.141 157.934 146.187 157.986 146.261C158.038 146.336 158.055 146.433 158.026 146.519L155.998 152.834C155.957 152.955 155.849 153.035 155.722 153.035ZM147.923 152.462H155.516L157.361 146.72H149.768L147.923 152.462Z" fill="black"/>
</g>
<g clip-path="url(#clip5_1_2308)">
<path d="M104.795 97.6319L108.416 136.382H51.1623L55.2768 107.46L41.3688 103.643L55.2023 81.1909C56.6751 78.8012 59.1794 77.2425 61.9701 76.9675L71.8611 75.999L71.7866 77.999C71.6433 82.0619 75.1619 85.4315 79.5572 85.4315C83.9526 85.4315 87.4883 82.039 87.3221 77.9646L87.2419 75.999L111.024 73.489L116.462 94.9041L104.789 97.6376L104.795 97.6319Z" fill="#F27825"/>
<path d="M108.416 136.668H51.1623C51.0821 136.668 51.0019 136.634 50.9446 136.571C50.893 136.508 50.8643 136.428 50.8758 136.342L54.956 107.672L41.2886 103.924C41.2026 103.901 41.1281 103.838 41.0995 103.752C41.0651 103.666 41.0765 103.574 41.1224 103.494L54.956 81.0418C56.4631 78.5948 59.0762 76.9674 61.9415 76.6808L71.8325 75.7124C71.9127 75.7066 71.9986 75.7296 72.056 75.7869C72.1133 75.8442 72.1476 75.9244 72.1476 76.0046L72.0731 78.0046C72.0101 79.7811 72.6806 81.4945 73.9642 82.824C75.3854 84.2967 77.4255 85.1391 79.5573 85.1391C81.689 85.1391 83.7406 84.291 85.156 82.8125C86.4397 81.4773 87.1044 79.7581 87.0356 77.9702L86.9554 76.0046C86.9497 75.8556 87.0586 75.7238 87.2133 75.7066L110.995 73.1966C111.138 73.1795 111.27 73.2711 111.305 73.4087L116.743 94.8238C116.76 94.8983 116.749 94.9785 116.708 95.0415C116.668 95.1046 116.605 95.1562 116.531 95.1734L105.104 97.8495L108.703 136.353C108.709 136.433 108.686 136.514 108.628 136.571C108.571 136.628 108.497 136.663 108.416 136.663V136.668ZM51.4947 136.095H108.101L104.508 97.6547C104.497 97.5114 104.588 97.3796 104.726 97.351L116.113 94.6863L110.806 73.7984L87.5399 76.2568L87.6087 77.953C87.6889 79.8957 86.9669 81.7638 85.5743 83.2137C84.0443 84.8068 81.8552 85.7179 79.5573 85.7179C77.2593 85.7179 75.0817 84.8125 73.5516 83.2251C72.1591 81.781 71.4313 79.9243 71.5001 77.9874L71.5631 76.3141L61.9988 77.2482C59.3112 77.5118 56.8642 79.0418 55.4488 81.334L41.8158 103.465L55.3571 107.179C55.4946 107.219 55.5863 107.351 55.5634 107.494L51.4947 136.09V136.095Z" fill="black"/>
<path d="M60.6579 109.087C60.6579 109.087 60.6121 109.087 60.5892 109.082L55.2139 107.741C55.0592 107.701 54.9675 107.546 55.0076 107.391C55.0477 107.236 55.2024 107.145 55.3571 107.185L60.5318 108.474L69.6148 93.7409C69.7007 93.6033 69.8727 93.5632 70.0102 93.6492C70.1477 93.7351 70.1878 93.907 70.1019 94.0446L60.9101 108.955C60.8585 109.041 60.7668 109.093 60.6636 109.093L60.6579 109.087Z" fill="black"/>
<path d="M65.2538 101.345H105.144L106.416 115.213H54.1766L55.2769 107.46L60.6579 108.801L65.2538 101.345Z" fill="#0597F2"/>
<path d="M106.416 115.5H54.1766C54.0907 115.5 54.0162 115.465 53.9588 115.402C53.9073 115.339 53.8786 115.259 53.8901 115.173L54.9961 107.42C55.0075 107.339 55.0534 107.265 55.1222 107.225C55.1909 107.179 55.2711 107.167 55.3514 107.185L60.5261 108.474L65.0131 101.196C65.0647 101.11 65.1564 101.059 65.2595 101.059H105.15C105.299 101.059 105.419 101.173 105.436 101.317L106.714 115.185C106.72 115.265 106.697 115.345 106.64 115.402C106.588 115.46 106.508 115.494 106.428 115.494L106.416 115.5ZM54.5033 114.927H106.101L104.875 101.632H65.4142L60.8986 108.95C60.8355 109.059 60.7037 109.104 60.5834 109.076L55.5176 107.809L54.5033 114.921V114.927Z" fill="black"/>
<path d="M60.6579 108.801L58.9272 111.637C58.9272 111.637 91.5914 108.199 92.7146 108.571C93.8378 108.944 93.9868 110.142 93.9868 110.142C93.9868 110.142 103.631 106.72 104.078 108.09C104.743 110.124 97.0698 112.772 97.0698 112.772C97.0698 112.772 105.815 111.62 105.815 113.334C105.815 115.207 98.8062 116.119 98.8062 116.119C98.8062 116.119 99.3277 116.531 99.4767 117.689C99.6257 118.846 99.1386 119.557 99.1386 119.557C99.1386 119.557 99.832 120.027 99.832 121.259C99.832 122.239 64.3598 127.001 49.7641 128.921C46.0105 129.413 42.3143 127.683 40.2914 124.479C38.515 121.672 38.2972 118.147 39.7184 115.144L44.7154 104.549L60.6579 108.801Z" fill="#FFBDC2"/>
<path d="M48.5091 129.293C45.1166 129.293 41.8903 127.551 40.045 124.634C38.2055 121.729 37.9878 118.136 39.4548 115.024L44.4518 104.428C44.5091 104.302 44.6524 104.239 44.7842 104.274L60.7266 108.526C60.8126 108.549 60.8871 108.612 60.9215 108.698C60.9558 108.784 60.9444 108.875 60.8985 108.955L59.4716 111.299C64.7323 110.749 91.7003 107.941 92.8006 108.308C93.6888 108.606 94.0498 109.339 94.1874 109.775C95.8664 109.19 102.577 106.933 103.998 107.632C104.222 107.741 104.308 107.895 104.348 108.01C104.462 108.354 104.669 110.039 99.2704 112.262C101.574 112.067 104.898 111.947 105.803 112.738C105.992 112.904 106.095 113.116 106.095 113.345C106.095 115.167 101.196 116.067 99.3334 116.348C99.4996 116.629 99.6773 117.053 99.7575 117.666C99.8721 118.543 99.6486 119.19 99.4939 119.511C99.7346 119.769 100.113 120.325 100.113 121.27C100.113 121.683 100.113 122.159 80.308 125.035C69.4142 126.617 56.5147 128.336 49.7984 129.219C49.3686 129.276 48.9331 129.305 48.5033 129.305L48.5091 129.293ZM44.8702 104.887L39.9763 115.271C38.5952 118.205 38.8015 121.591 40.5321 124.331C42.4862 127.425 46.0965 129.116 49.7297 128.64C79.477 124.732 97.9982 121.941 99.5454 121.144C99.5053 120.182 99.001 119.815 98.9781 119.798C98.8521 119.706 98.8177 119.528 98.9036 119.402C98.9036 119.402 99.322 118.755 99.1902 117.735C99.0583 116.726 98.6286 116.354 98.6228 116.354C98.5369 116.279 98.4968 116.159 98.5311 116.05C98.5655 115.941 98.6572 115.861 98.7661 115.844C101.574 115.477 105.528 114.463 105.528 113.339C105.528 113.299 105.517 113.236 105.431 113.162C104.56 112.4 99.9752 112.68 97.1042 113.059C96.961 113.076 96.8234 112.984 96.7891 112.841C96.7547 112.698 96.8349 112.554 96.9724 112.503C100.05 111.443 104.199 109.397 103.803 108.182C103.803 108.176 103.78 108.159 103.746 108.142C102.749 107.655 97.2876 109.276 94.0785 110.417C93.9983 110.445 93.9066 110.434 93.8321 110.388C93.7576 110.342 93.7117 110.268 93.7003 110.182C93.7003 110.142 93.5513 109.156 92.6229 108.847C91.6373 108.612 71.9471 110.554 58.9559 111.924C58.847 111.935 58.7438 111.884 58.6865 111.792C58.6292 111.7 58.6292 111.58 58.6865 111.488L60.2166 108.978L44.8759 104.887H44.8702Z" fill="black"/>
<path d="M50.9273 113.345C50.7898 113.345 50.6694 113.248 50.6465 113.11C50.6179 112.955 50.721 112.806 50.8757 112.778L58.8756 111.357C59.0303 111.328 59.1793 111.431 59.208 111.586C59.2366 111.741 59.1335 111.89 58.9787 111.918L50.9789 113.339C50.9789 113.339 50.9445 113.339 50.9273 113.339V113.345Z" fill="black"/>
<path d="M91.3678 110.783C91.2246 110.783 91.1042 110.68 91.087 110.537C91.0641 110.382 91.173 110.233 91.3334 110.216L93.9523 109.861C94.107 109.838 94.256 109.947 94.2732 110.107C94.2961 110.262 94.1873 110.411 94.0268 110.428L91.4079 110.783C91.4079 110.783 91.3793 110.783 91.3678 110.783Z" fill="black"/>
<path d="M97.3678 116.755C97.236 116.755 97.1214 116.669 97.087 116.537C97.0527 116.382 97.1443 116.227 97.2991 116.193L98.7317 115.849C98.8864 115.815 99.0412 115.907 99.0755 116.061C99.1099 116.216 99.0182 116.371 98.8635 116.405L97.4309 116.749C97.4309 116.749 97.385 116.755 97.3621 116.755H97.3678Z" fill="black"/>
<path d="M97.9237 120.147C97.7977 120.147 97.6773 120.061 97.643 119.929C97.6028 119.775 97.7003 119.62 97.855 119.586L99.0699 119.288C99.2246 119.247 99.3793 119.345 99.4137 119.5C99.4481 119.654 99.3564 119.809 99.2017 119.843L97.9868 120.141C97.9868 120.141 97.9409 120.147 97.918 120.147H97.9237Z" fill="black"/>
<path d="M44.7097 104.549L58.9272 111.637L60.6579 108.801L44.7097 104.549Z" fill="black"/>
<path d="M58.9273 111.924C58.8814 111.924 58.8413 111.912 58.8012 111.895L44.5837 104.807C44.4519 104.743 44.3888 104.589 44.4461 104.451C44.4977 104.314 44.6467 104.239 44.79 104.274L60.7324 108.526C60.8184 108.549 60.8929 108.612 60.9272 108.698C60.9616 108.784 60.9502 108.875 60.9043 108.955L59.1737 111.792C59.1221 111.878 59.0247 111.93 58.9273 111.93V111.924ZM47.3687 105.552L58.8184 111.259L60.2109 108.973L47.3687 105.546V105.552Z" fill="black"/>
<path d="M111.024 73.489L113.287 73.1623L147.075 51.2601L154.398 64.5665L121.923 89.5861C120.462 90.715 118.835 91.6147 117.098 92.2508L115.901 92.6921L111.024 73.489Z" fill="#FFBDC2"/>
<path d="M115.906 92.9785C115.86 92.9785 115.814 92.9671 115.774 92.9442C115.7 92.9041 115.648 92.841 115.631 92.7608L110.754 73.5577C110.737 73.4775 110.754 73.3972 110.794 73.3285C110.835 73.2597 110.909 73.2138 110.989 73.2024L113.19 72.8872L146.92 51.0194C146.989 50.9735 147.069 50.9621 147.143 50.9793C147.218 50.9965 147.287 51.048 147.327 51.1168L154.65 64.4232C154.719 64.5492 154.685 64.704 154.576 64.7899L122.101 89.8095C120.611 90.9557 118.96 91.8668 117.201 92.5144L116.004 92.9556C115.969 92.9671 115.94 92.9728 115.906 92.9728V92.9785ZM111.385 73.7296L116.107 92.3138L117.006 91.9814C118.714 91.3511 120.313 90.4686 121.757 89.3568L154.037 64.4862L146.977 51.6669L113.448 73.403C113.413 73.4259 113.373 73.4431 113.333 73.4488L111.385 73.7296Z" fill="black"/>
<path d="M157.378 62.7499L148.771 69.5979C148.358 69.9245 147.751 69.8214 147.47 69.3744L136.192 51.4263C135.952 51.0423 136.038 50.5438 136.393 50.263L145 43.4149C145.413 43.0883 146.02 43.1915 146.301 43.6384L157.579 61.5866C157.82 61.9705 157.734 62.4691 157.378 62.7499Z" fill="black"/>
<path d="M148.221 70.0736C148.158 70.0736 148.089 70.0736 148.026 70.0564C147.699 69.9991 147.407 69.8043 147.229 69.5235L135.952 51.5754C135.631 51.0711 135.745 50.4064 136.215 50.0339L144.823 43.1858C145.086 42.9795 145.424 42.8936 145.751 42.9452C146.078 43.0025 146.37 43.1973 146.548 43.4781L157.825 61.4262C158.146 61.9305 158.032 62.5953 157.562 62.9677L148.954 69.8158C148.748 69.982 148.484 70.0736 148.221 70.0736ZM145.545 43.5068C145.413 43.5068 145.281 43.5526 145.172 43.6386L136.565 50.4866C136.324 50.6757 136.267 51.0195 136.433 51.2774L147.711 69.2255C147.803 69.3745 147.946 69.4662 148.118 69.5006C148.29 69.5292 148.456 69.4891 148.593 69.3802L157.201 62.5322C157.441 62.3431 157.499 61.9993 157.332 61.7414L146.055 43.7933C145.963 43.6443 145.82 43.5526 145.648 43.5182C145.613 43.5125 145.579 43.5068 145.545 43.5068Z" fill="black"/>
<path d="M158.696 61.6955L150.089 68.5436C149.676 68.8702 149.069 68.7671 148.788 68.3201L137.51 50.372C137.27 49.988 137.356 49.4894 137.711 49.2086L146.318 42.3606C146.731 42.034 147.338 42.1371 147.619 42.5841L158.897 60.5322C159.138 60.9162 159.052 61.4147 158.696 61.6955Z" fill="#0597F2"/>
<path d="M149.539 69.0248C149.476 69.0248 149.407 69.0248 149.344 69.0076C149.017 68.9503 148.725 68.7555 148.547 68.4747L137.27 50.5266C136.949 50.0223 137.063 49.3575 137.533 48.985L146.135 42.1428C146.398 41.9365 146.737 41.8505 147.063 41.9021C147.39 41.9594 147.682 42.1542 147.86 42.435L159.138 60.3831C159.458 60.8874 159.344 61.5522 158.874 61.9247L150.267 68.7727C150.06 68.9389 149.797 69.0305 149.533 69.0305L149.539 69.0248ZM146.863 42.4579C146.731 42.4579 146.599 42.5038 146.49 42.5897L137.883 49.4378C137.642 49.6269 137.585 49.965 137.751 50.2286L149.029 68.1767C149.121 68.3257 149.264 68.4174 149.436 68.4518C149.608 68.4804 149.774 68.4403 149.911 68.3314L158.519 61.4834C158.759 61.2943 158.817 60.9562 158.65 60.6926L147.373 42.7387C147.281 42.5897 147.138 42.4981 146.966 42.4637C146.931 42.4579 146.897 42.4522 146.863 42.4522V42.4579Z" fill="black"/>
<path d="M146.513 46.3319C146.928 46.3319 147.264 45.9957 147.264 45.5811C147.264 45.1665 146.928 44.8304 146.513 44.8304C146.098 44.8304 145.762 45.1665 145.762 45.5811C145.762 45.9957 146.098 46.3319 146.513 46.3319Z" fill="black"/>
<path d="M146.513 46.6183C146.209 46.6183 145.906 46.4865 145.699 46.2286C145.344 45.7816 145.419 45.1284 145.866 44.7731C146.083 44.6011 146.353 44.5209 146.628 44.5553C146.903 44.584 147.149 44.7215 147.321 44.9392C147.493 45.157 147.573 45.4263 147.539 45.7014C147.51 45.9765 147.373 46.2229 147.155 46.3948C146.966 46.5438 146.737 46.6183 146.513 46.6183ZM146.513 45.1169C146.41 45.1169 146.307 45.1513 146.227 45.22C146.129 45.2945 146.066 45.4092 146.055 45.5295C146.043 45.6498 146.078 45.7759 146.152 45.8676C146.227 45.9593 146.341 46.0281 146.462 46.0395C146.582 46.051 146.708 46.0166 146.8 45.9421C146.897 45.8676 146.96 45.753 146.972 45.6326C146.983 45.5123 146.949 45.3862 146.874 45.2945C146.8 45.1971 146.685 45.1341 146.565 45.1226C146.547 45.1226 146.53 45.1226 146.513 45.1226V45.1169Z" fill="black"/>
<path d="M153.052 48.9164L148.937 52.6126C148.198 53.2773 147.063 53.2143 146.404 52.4751L146.221 52.2688C145.556 51.5295 145.619 50.3949 146.358 49.7358L150.473 46.0396C151.212 45.3749 152.347 45.4379 153.006 46.1772L153.189 46.3835C153.854 47.1227 153.791 48.2574 153.052 48.9164Z" fill="#FFBDC2"/>
<path d="M147.739 53.3574C147.166 53.3574 146.599 53.1225 146.192 52.6698L146.009 52.4635C145.241 51.6096 145.315 50.2916 146.169 49.5237L150.284 45.8275C150.696 45.455 151.229 45.2659 151.785 45.3003C152.341 45.3289 152.851 45.5753 153.224 45.9879L153.407 46.1942C154.175 47.0481 154.1 48.3661 153.246 49.134L149.132 52.8302C148.737 53.1855 148.238 53.3632 147.745 53.3632L147.739 53.3574ZM151.671 45.8733C151.298 45.8733 150.943 46.0108 150.668 46.2573L146.553 49.9535C145.934 50.5093 145.883 51.4663 146.439 52.0795L146.622 52.2858C147.178 52.9047 148.135 52.9563 148.748 52.4004L152.863 48.7042C153.481 48.1483 153.533 47.1913 152.977 46.5782L152.794 46.3719C152.524 46.0739 152.158 45.8962 151.751 45.8733C151.722 45.8733 151.693 45.8733 151.671 45.8733Z" fill="black"/>
<path d="M155.63 51.7873L151.516 55.4836C150.777 56.1483 149.642 56.0853 148.983 55.346L148.8 55.1397C148.135 54.4005 148.198 53.2658 148.937 52.6068L153.052 48.9106C153.791 48.2459 154.925 48.3089 155.585 49.0481L155.768 49.2544C156.433 49.9937 156.37 51.1283 155.63 51.7873Z" fill="#FFBDC2"/>
<path d="M150.324 56.2285C150.284 56.2285 150.249 56.2285 150.209 56.2285C149.653 56.1999 149.143 55.9534 148.771 55.5408L148.588 55.3345C147.82 54.4807 147.894 53.1627 148.748 52.3948L152.863 48.6986C153.275 48.3261 153.814 48.137 154.364 48.1713C154.92 48.2 155.43 48.4464 155.802 48.859L155.986 49.0653C156.358 49.4779 156.547 50.0109 156.513 50.5667C156.484 51.1226 156.238 51.6326 155.825 52.0051L151.711 55.7013C151.327 56.0451 150.84 56.2342 150.324 56.2342V56.2285ZM154.249 48.7387C153.877 48.7387 153.522 48.8762 153.246 49.1226L149.132 52.8188C148.513 53.3747 148.461 54.3317 149.017 54.9449L149.201 55.1512C149.47 55.4492 149.837 55.6268 150.244 55.6497C150.645 55.6726 151.034 55.5351 151.332 55.2658L155.447 51.5696C155.745 51.3002 155.923 50.9335 155.946 50.5266C155.968 50.1255 155.831 49.7358 155.562 49.4378L155.378 49.2315C155.109 48.9335 154.742 48.7559 154.335 48.7329C154.307 48.7329 154.278 48.7329 154.255 48.7329L154.249 48.7387Z" fill="black"/>
<path d="M158.215 54.6641L154.1 58.3603C153.361 59.025 152.226 58.962 151.567 58.2227L151.384 58.0164C150.719 57.2772 150.782 56.1425 151.522 55.4835L155.636 51.7873C156.375 51.1226 157.51 51.1856 158.169 51.9249L158.352 52.1311C159.017 52.8704 158.954 54.005 158.215 54.6641Z" fill="#FFBDC2"/>
<path d="M152.903 59.1052C152.33 59.1052 151.762 58.8703 151.355 58.4176L151.172 58.2113C150.404 57.3574 150.479 56.0394 151.332 55.2715L155.447 51.5753C155.86 51.2028 156.393 51.0194 156.948 51.0481C157.504 51.0767 158.014 51.3231 158.387 51.7357L158.57 51.942C158.943 52.3546 159.132 52.8876 159.097 53.4435C159.069 53.9993 158.822 54.5093 158.41 54.8818L154.295 58.578C153.9 58.9333 153.401 59.111 152.908 59.111L152.903 59.1052ZM156.834 51.6211C156.461 51.6211 156.106 51.7587 155.831 52.0051L151.716 55.7013C151.097 56.2572 151.046 57.2142 151.602 57.8273L151.785 58.0336C152.341 58.6525 153.298 58.7041 153.911 58.1482L158.026 54.452C158.324 54.1827 158.501 53.8159 158.524 53.4091C158.547 53.0079 158.41 52.6183 158.14 52.3203L157.957 52.114C157.688 51.816 157.321 51.6383 156.914 51.6154C156.885 51.6154 156.857 51.6154 156.834 51.6154V51.6211Z" fill="black"/>
<path d="M160.794 57.5352L156.679 61.2314C155.94 61.8961 154.805 61.8331 154.146 61.0938L153.963 60.8875C153.298 60.1483 153.361 59.0136 154.1 58.3546L158.215 54.6584C158.954 53.9937 160.089 54.0567 160.748 54.7959L160.931 55.0022C161.596 55.7415 161.533 56.8761 160.794 57.5352Z" fill="#FFBDC2"/>
<path d="M155.481 61.9762C155.441 61.9762 155.407 61.9762 155.367 61.9762C154.811 61.9475 154.301 61.7011 153.928 61.2885L153.745 61.0822C152.977 60.2284 153.052 58.9103 153.905 58.1424L158.02 54.4462C158.433 54.0738 158.966 53.8846 159.521 53.919C160.077 53.9477 160.587 54.1941 160.96 54.6067L161.143 54.813C161.516 55.2256 161.705 55.7585 161.67 56.3144C161.642 56.8703 161.395 57.3803 160.983 57.7528L156.868 61.449C156.484 61.7928 155.997 61.9819 155.481 61.9819V61.9762ZM159.407 54.4864C159.034 54.4864 158.679 54.6239 158.404 54.8703L154.289 58.5665C153.991 58.8358 153.814 59.2026 153.791 59.6095C153.768 60.0106 153.905 60.4003 154.175 60.6983L154.358 60.9046C154.627 61.2026 154.994 61.3802 155.401 61.4031C155.802 61.4261 156.192 61.2885 156.49 61.0192L160.604 57.323C160.902 57.0536 161.08 56.6869 161.103 56.28C161.126 55.8789 160.988 55.4892 160.719 55.1912L160.536 54.9849C160.266 54.6869 159.9 54.5093 159.493 54.4864C159.464 54.4864 159.435 54.4864 159.413 54.4864H159.407Z" fill="black"/>
<path d="M104.795 97.9183C104.646 97.9183 104.52 97.8037 104.508 97.6547L103.883 90.4514C103.872 90.2909 103.987 90.1534 104.141 90.1419C104.302 90.1304 104.439 90.2451 104.451 90.3998L105.075 97.6031C105.087 97.7636 104.972 97.9011 104.818 97.9125C104.812 97.9125 104.8 97.9125 104.795 97.9125V97.9183Z" fill="black"/>
<path d="M117.253 81.5978C117.144 81.5978 117.047 81.5404 116.995 81.4373L113.035 73.2884C112.966 73.1452 113.024 72.9733 113.167 72.9045C113.31 72.8357 113.482 72.893 113.551 73.0363L117.511 81.1852C117.58 81.3284 117.522 81.5003 117.379 81.5691C117.339 81.5863 117.293 81.5978 117.253 81.5978Z" fill="black"/>
</g>
<defs>
<clipPath id="clip0_1_2308">
<rect width="124.502" height="150.003" fill="white" transform="translate(21.3406 5.97144)"/>
</clipPath>
<clipPath id="clip1_1_2308">
<rect width="34.6871" height="57.8959" fill="white" transform="translate(65.741 35.3521)"/>
</clipPath>
<clipPath id="clip2_1_2308">
<rect width="34.4579" height="38.6183" fill="white" transform="translate(118.537 0.00012207)"/>
</clipPath>
<clipPath id="clip3_1_2308">
<rect width="34.6298" height="38.9793" fill="white" transform="translate(0 101.769)"/>
</clipPath>
<clipPath id="clip4_1_2308">
<rect width="36.0051" height="30.6299" fill="white" transform="translate(134.995 134.731)"/>
</clipPath>
<clipPath id="clip5_1_2308">
<rect width="123.184" height="94.7835" fill="white" transform="translate(38.4922 41.8849)"/>
</clipPath>
</defs>
</svg>
