<svg width="16" height="16" viewBox="0 0 16 16" fill="none" xmlns="http://www.w3.org/2000/svg">
<path d="M6.00004 9.94532V10.334C6.00004 11.1296 6.31611 11.8927 6.87872 12.4553C7.44133 13.0179 8.20439 13.334 9.00004 13.334C9.79569 13.334 10.5588 13.0179 11.1214 12.4553C11.684 11.8927 12 11.1296 12 10.334V9.22065C11.555 9.06338 11.18 8.75385 10.9411 8.34678C10.7023 7.93971 10.615 7.4613 10.6948 6.99613C10.7746 6.53095 11.0163 6.10895 11.3771 5.80474C11.738 5.50052 12.1947 5.33366 12.6667 5.33366C13.1387 5.33366 13.5954 5.50052 13.9563 5.80474C14.3171 6.10895 14.5588 6.53095 14.6386 6.99613C14.7184 7.4613 14.6311 7.93971 14.3923 8.34678C14.1534 8.75385 13.7784 9.06338 13.3334 9.22065V10.334C13.3334 11.4833 12.8768 12.5855 12.0642 13.3981C11.2515 14.2108 10.1493 14.6673 9.00004 14.6673C7.85077 14.6673 6.74857 14.2108 5.93591 13.3981C5.12325 12.5855 4.66671 11.4833 4.66671 10.334V9.94532C3.73466 9.7875 2.88858 9.3048 2.27844 8.58275C1.6683 7.86071 1.3335 6.94597 1.33337 6.00065L1.33337 2.66732C1.33337 2.3137 1.47385 1.97456 1.7239 1.72451C1.97395 1.47446 2.31309 1.33398 2.66671 1.33398H3.33337C3.51019 1.33398 3.67975 1.40422 3.80478 1.52925C3.9298 1.65427 4.00004 1.82384 4.00004 2.00065C4.00004 2.17746 3.9298 2.34703 3.80478 2.47206C3.67975 2.59708 3.51019 2.66732 3.33337 2.66732H2.66671V6.00065C2.66671 6.70789 2.94766 7.38617 3.44776 7.88627C3.94785 8.38637 4.62613 8.66732 5.33337 8.66732C6.04062 8.66732 6.71889 8.38637 7.21899 7.88627C7.71909 7.38617 8.00004 6.70789 8.00004 6.00065V2.66732H7.33337C7.15656 2.66732 6.98699 2.59708 6.86197 2.47206C6.73695 2.34703 6.66671 2.17746 6.66671 2.00065C6.66671 1.82384 6.73695 1.65427 6.86197 1.52925C6.98699 1.40422 7.15656 1.33398 7.33337 1.33398H8.00004C8.35366 1.33398 8.6928 1.47446 8.94285 1.72451C9.1929 1.97456 9.33337 2.3137 9.33337 2.66732V6.00065C9.33325 6.94597 8.99845 7.86071 8.38831 8.58275C7.77816 9.3048 6.93209 9.7875 6.00004 9.94532ZM12.6667 8.00065C12.8435 8.00065 13.0131 7.93041 13.1381 7.80539C13.2631 7.68036 13.3334 7.5108 13.3334 7.33398C13.3334 7.15717 13.2631 6.9876 13.1381 6.86258C13.0131 6.73756 12.8435 6.66732 12.6667 6.66732C12.4899 6.66732 12.3203 6.73756 12.1953 6.86258C12.0703 6.9876 12 7.15717 12 7.33398C12 7.5108 12.0703 7.68036 12.1953 7.80539C12.3203 7.93041 12.4899 8.00065 12.6667 8.00065Z" fill="#6366F1"/>
</svg>
