<svg width="17" height="17" viewBox="0 0 17 17" fill="none" xmlns="http://www.w3.org/2000/svg">
<path d="M15.9375 12.4217L14.875 11.8904V10.625C14.8737 9.87243 14.6064 9.14454 14.1203 8.57C13.6343 7.99546 12.9607 7.61126 12.2188 7.48531V6.375H11.1562V7.48531C10.4143 7.61126 9.74075 7.99546 9.25467 8.57C8.7686 9.14454 8.50129 9.87243 8.5 10.625V11.8904L7.4375 12.4217V14.875H10.625V15.9375H12.75V14.875H15.9375V12.4217ZM14.875 13.8125H8.5V13.0783L9.5625 12.5471V10.625C9.5625 10.0614 9.78638 9.52091 10.1849 9.1224C10.5834 8.72388 11.1239 8.5 11.6875 8.5C12.2511 8.5 12.7916 8.72388 13.1901 9.1224C13.5886 9.52091 13.8125 10.0614 13.8125 10.625V12.5471L14.875 13.0783V13.8125Z" fill="white"/>
<path d="M14.875 3.1875C14.875 2.90571 14.7631 2.63546 14.5638 2.4362C14.3645 2.23694 14.0943 2.125 13.8125 2.125H11.6875V1.0625H10.625V2.125H6.375V1.0625H5.3125V2.125H3.1875C2.90571 2.125 2.63546 2.23694 2.4362 2.4362C2.23694 2.63546 2.125 2.90571 2.125 3.1875V13.8125C2.125 14.0943 2.23694 14.3645 2.4362 14.5638C2.63546 14.7631 2.90571 14.875 3.1875 14.875H5.3125V13.8125H3.1875V3.1875H5.3125V4.25H6.375V3.1875H10.625V4.25H11.6875V3.1875H13.8125V6.375H14.875V3.1875Z" fill="white"/>
</svg>
