<svg width="13" height="14" viewBox="0 0 13 14" fill="none" xmlns="http://www.w3.org/2000/svg">
<path d="M12.025 4.57911V10.5519C12.0111 10.9425 11.9201 11.3266 11.7571 11.6819C11.5942 12.0373 11.3625 12.3569 11.0755 12.6223C10.4953 13.1605 9.725 13.4464 8.93405 13.417H3.64305C3.24899 13.4352 2.8552 13.3754 2.48434 13.2409C2.11347 13.1064 1.77284 12.9 1.48204 12.6334C1.19238 12.3672 0.958451 12.0461 0.793796 11.6888C0.629141 11.3315 0.537038 10.945 0.522827 10.5519V3.38986C0.536668 2.99918 0.627687 2.61511 0.790639 2.25977C0.953592 1.90444 1.18526 1.58486 1.47228 1.31947C2.05256 0.781188 2.82283 0.495346 3.61378 0.524771H7.59701C8.20504 0.522825 8.79193 0.747785 9.24287 1.15565L11.3063 3.05316C11.5264 3.24285 11.7042 3.47675 11.828 3.73965C11.9519 4.00256 12.019 4.28857 12.025 4.57911Z" stroke="#69686C" stroke-width="1.04565" stroke-linecap="round" stroke-linejoin="round"/>
</svg>
