<svg width="218" height="184" viewBox="0 0 218 184" fill="none" xmlns="http://www.w3.org/2000/svg">
<g clip-path="url(#clip0_1_1945)">
<path d="M89.4713 58.873H200.17C200.846 58.873 201.516 59.0063 202.141 59.2652C202.766 59.5241 203.334 59.9036 203.813 60.3819C204.291 60.8603 204.67 61.4282 204.929 62.0533C205.188 62.6783 205.321 63.3482 205.321 64.0247V136.387H84.33V64.0247C84.33 62.6602 84.8714 61.3514 85.8352 60.3856C86.7991 59.4198 88.1068 58.8758 89.4713 58.873Z" fill="white" stroke="#004C7F" stroke-width="0.188671" stroke-miterlimit="10"/>
<path d="M205.321 136.385H84.3299L73.0697 156.632V157.228C73.0697 158.499 73.5744 159.718 74.4728 160.617C75.3712 161.516 76.5898 162.021 77.8608 162.022H212.026C212.656 162.022 213.279 161.898 213.86 161.657C214.442 161.416 214.97 161.063 215.415 160.618C215.86 160.173 216.213 159.644 216.454 159.062C216.694 158.481 216.818 157.857 216.817 157.228V156.632L205.321 136.385Z" fill="white" stroke="#004C7F" stroke-width="0.188671" stroke-miterlimit="10"/>
<path d="M73.0594 156.635H216.821" stroke="#004C7F" stroke-width="0.188671" stroke-miterlimit="10"/>
<path d="M201.078 64.1965H88.5665V131.702H201.078V64.1965Z" fill="white" stroke="#004C7F" stroke-width="0.188671" stroke-miterlimit="10"/>
<path opacity="0.45" d="M201.078 64.1965H88.5665V71.6744H201.078V64.1965Z" fill="#FD0054"/>
<path d="M132.595 146.701H157.285C157.822 146.701 158.342 146.882 158.764 147.214C159.185 147.546 159.482 148.01 159.608 148.531L160.322 151.513C160.407 151.864 160.41 152.229 160.333 152.582C160.256 152.935 160.099 153.265 159.876 153.548C159.652 153.832 159.367 154.061 159.042 154.218C158.717 154.375 158.361 154.457 158 154.456H131.881C131.52 154.456 131.164 154.374 130.839 154.217C130.514 154.059 130.23 153.83 130.006 153.547C129.783 153.264 129.626 152.934 129.549 152.581C129.471 152.229 129.474 151.864 129.558 151.513L130.275 148.531C130.4 148.01 130.697 147.546 131.118 147.214C131.538 146.882 132.059 146.701 132.595 146.701Z" fill="white" stroke="#004C7F" stroke-width="0.188671" stroke-miterlimit="10"/>
<path opacity="0.48" d="M91.4785 69.4728C91.0382 70.3568 92.9485 71.591 93.4199 70.7763C93.5768 70.5726 93.6622 70.3228 93.6626 70.0656C93.6761 69.9367 93.7155 69.8118 93.7787 69.6985C93.8419 69.5853 93.9274 69.4861 94.0301 69.4069C94.2762 69.2163 94.5571 68.984 94.3386 68.7586C94.1965 68.665 94.0544 68.9146 93.8706 68.9285C93.6869 68.9424 93.5898 68.8106 93.6696 68.672L95.4342 66.0129C95.5179 65.8694 95.6373 65.75 95.7808 65.6662C96.0651 65.4478 95.8918 65.3196 96.2142 65.1462C96.3043 64.914 96.0859 64.9035 96.0339 64.959C95.9888 64.9174 96.0582 64.8966 96.0027 64.855C95.9472 64.8134 95.8536 64.9902 95.9784 64.9521C96.0374 64.9798 95.8848 65.1046 95.864 65.0457C95.8952 65.0249 95.864 64.9937 95.864 64.9729C95.864 64.9521 95.715 65.1116 95.8398 65.0734C95.9091 65.115 95.6768 65.2398 95.7566 65.1254C95.7323 65.0353 95.5867 65.1254 95.663 65.1948C95.7808 65.167 95.663 65.2641 95.6214 65.2953C95.5936 65.2745 95.6214 65.2606 95.6214 65.2364C95.6214 65.2121 95.5555 65.174 95.5 65.2676C95.5278 65.3369 95.559 65.2676 95.5867 65.3196C95.4099 65.4582 95.5139 65.4062 95.448 65.3196C95.4307 65.3022 95.3128 65.375 95.3891 65.4305C95.4134 65.4305 95.4307 65.4305 95.4446 65.4305C95.403 65.4686 95.2851 65.5657 95.3406 65.4582C95.3163 65.3681 95.1707 65.4582 95.2469 65.5276C95.4342 65.5276 95.0424 65.6385 95.2192 65.8153C95.2192 65.8153 95.1984 65.8465 95.1949 65.8569L93.517 68.2282C93.3194 68.308 93.3818 68.0029 93.2154 67.9266C92.8098 67.6597 92.6295 68.0826 92.522 68.4328C92.4488 68.6536 92.2971 68.8399 92.0956 68.9562C91.8495 69.0734 91.6371 69.2511 91.4785 69.4728Z" fill="white"/>
<path d="M214.668 183.394C212.865 180.479 210.508 176.807 208.57 174.381C208.421 174.197 208.286 174.034 208.157 173.857C206.892 172.269 205.571 172.765 205.037 170.865C205.043 170.851 205.043 170.835 205.037 170.82C204.944 170.45 204.879 170.073 204.843 169.694C204.496 165.658 202.607 160.853 201.57 158.634C200.763 156.901 199.074 152.425 197.618 148.296C197.497 147.967 197.379 147.638 197.272 147.315C196.051 143.848 192.037 139.245 191.953 138.548C191.956 138.514 191.956 138.481 191.953 138.447C191.801 138.068 191.518 137.756 191.156 137.567C191.095 137.522 191.03 137.483 190.962 137.449C190.116 136.985 189.13 136.844 188.188 137.054C188.173 137.055 188.158 137.055 188.143 137.054C187.96 137.099 188.126 137.005 187.953 137.081C187.932 137.081 187.87 137.06 187.714 136.714C187.558 136.367 187.402 135.906 187.207 135.483C186.465 133.826 185.172 131.496 184.971 130.834C184.833 130.366 184.236 129.891 183.411 129.669C182.961 129.541 182.491 129.495 182.025 129.534C181.674 129.545 181.326 129.59 180.984 129.669C180.598 129.748 180.218 129.855 179.847 129.992C179.47 130.119 179.1 130.266 178.738 130.432L178.676 130.46C178.648 130.46 178.627 130.487 178.599 130.494C178.245 129.781 177.789 129.123 177.244 128.543C176.318 127.589 174.97 126.764 173.319 127.461C172.695 127.717 172.061 127.991 171.458 128.265C169.689 129.044 167.97 129.933 166.313 130.928C166.288 130.952 166.26 130.973 166.23 130.99C166.23 130.99 165.744 130.744 164.725 131.146C164.622 131.187 164.522 131.233 164.424 131.285C164.222 131.375 163.973 131.496 163.689 131.631C162.25 132.325 159.983 133.448 159.313 133.999C158.79 134.419 157.462 135.539 157.039 136.773C157.024 136.811 157.013 136.85 157.005 136.891C156.863 137.32 156.879 137.786 157.05 138.205C157.133 138.386 157.24 138.555 157.369 138.707C158.901 140.496 161.844 139.165 163.716 137.948C163.716 137.948 167.405 141.526 167.918 145.228C168.348 148.283 167.596 152.245 165.838 152.855C165.533 152.96 165.203 152.97 164.892 152.883C164.198 152.689 163.37 152.054 162.444 150.803C160.388 148.029 158.776 146.199 157.428 145.235C156.387 144.473 155.483 144.254 154.685 144.521C154.463 144.593 154.252 144.698 154.061 144.833C154.009 144.878 153.954 144.913 153.905 144.951L153.86 144.989C153.86 144.989 153.832 145.006 153.826 145.024C153.787 145.051 153.76 145.086 153.725 145.114C153.69 145.142 153.67 145.18 153.642 145.214C153.608 145.252 153.577 145.291 153.548 145.332C153.528 145.377 153.504 145.42 153.475 145.461C153.456 145.492 153.441 145.526 153.43 145.561C153.43 145.578 153.43 145.599 153.403 145.617C153.375 145.634 153.375 145.689 153.357 145.734C153.357 145.734 153.357 145.762 153.357 145.773V145.79L153.333 145.856V145.953C153.301 146.066 153.285 146.182 153.285 146.3C153.281 146.357 153.281 146.415 153.285 146.473C153.282 146.63 153.294 146.786 153.319 146.941C153.329 147.006 153.341 147.071 153.357 147.135C153.406 147.392 153.47 147.645 153.548 147.894C153.614 148.088 153.687 148.289 153.753 148.484L153.86 148.768C153.916 148.92 153.982 149.076 154.037 149.226C154.065 149.295 154.089 149.365 154.11 149.437C154.138 149.527 154.176 149.621 154.203 149.7C154.208 149.716 154.208 149.733 154.203 149.749C154.242 149.856 154.269 149.95 154.297 150.051C154.335 150.195 154.362 150.342 154.377 150.491C154.571 151.923 153.846 153.167 155.386 154.71C155.56 154.882 155.744 155.045 155.937 155.195C157.397 156.259 158.573 157.666 159.359 159.293C159.515 159.605 159.688 159.938 159.872 160.295C161.036 162.531 164.888 164.916 166.112 166.265C167.336 167.613 171.329 173.985 178.558 175.885C178.558 175.885 180.135 177.619 182.025 179.792C182.635 180.486 183.279 181.248 183.91 182.008M170.043 133.899C169.994 133.854 169.949 133.805 169.908 133.753C169.891 133.738 169.878 133.719 169.87 133.698C170.313 133.324 170.838 133.061 171.402 132.928C171.419 132.987 171.44 133.045 171.465 133.101C171.659 133.597 172.272 135.715 172.73 136.294C172.738 136.307 172.747 136.319 172.758 136.329C173.188 136.939 170.664 134.585 169.967 133.888L170.043 133.899Z" fill="white"/>
<path d="M214.668 183.394C212.865 180.479 210.508 176.807 208.57 174.381C208.421 174.197 208.286 174.034 208.157 173.857C206.892 172.269 205.571 172.765 205.037 170.865C205.043 170.851 205.043 170.835 205.037 170.82C204.944 170.45 204.879 170.073 204.843 169.694C204.496 165.658 202.607 160.853 201.57 158.634C200.763 156.901 199.074 152.425 197.618 148.296C197.497 147.967 197.379 147.638 197.272 147.315C196.051 143.848 192.037 139.245 191.953 138.548C191.956 138.514 191.956 138.481 191.953 138.447C191.801 138.068 191.518 137.756 191.156 137.567C191.095 137.522 191.03 137.483 190.962 137.449C190.116 136.985 189.13 136.844 188.188 137.054C188.173 137.055 188.158 137.055 188.143 137.054C187.96 137.099 188.126 137.005 187.953 137.081C187.932 137.081 187.87 137.06 187.714 136.714C187.558 136.367 187.402 135.906 187.207 135.483C186.465 133.826 185.172 131.496 184.971 130.834C184.833 130.366 184.236 129.891 183.411 129.669C182.961 129.541 182.491 129.495 182.025 129.534C181.674 129.545 181.326 129.59 180.984 129.669C180.598 129.748 180.218 129.855 179.847 129.992C179.47 130.119 179.1 130.266 178.738 130.432L178.676 130.46C178.648 130.46 178.627 130.487 178.599 130.494C178.245 129.781 177.789 129.123 177.244 128.543C176.318 127.589 174.97 126.764 173.319 127.461C172.695 127.717 172.061 127.991 171.458 128.265C169.689 129.044 167.97 129.933 166.313 130.928C166.288 130.952 166.26 130.973 166.23 130.99C166.23 130.99 165.744 130.744 164.725 131.146C164.622 131.187 164.522 131.233 164.424 131.285C164.222 131.375 163.973 131.496 163.689 131.631C162.25 132.325 159.983 133.448 159.313 133.999C158.79 134.419 157.462 135.539 157.039 136.773C157.024 136.811 157.013 136.85 157.005 136.891C156.863 137.32 156.879 137.786 157.05 138.205C157.133 138.386 157.24 138.555 157.369 138.707C158.901 140.496 161.844 139.165 163.716 137.948C163.716 137.948 167.405 141.526 167.918 145.228C168.348 148.283 167.596 152.245 165.838 152.855C165.533 152.96 165.203 152.97 164.892 152.883C164.198 152.689 163.37 152.054 162.444 150.803C160.388 148.029 158.776 146.199 157.428 145.235C156.387 144.473 155.483 144.254 154.685 144.521C154.463 144.593 154.252 144.698 154.061 144.833C154.009 144.878 153.954 144.913 153.905 144.951L153.86 144.989C153.86 144.989 153.832 145.006 153.826 145.024C153.787 145.051 153.76 145.086 153.725 145.114C153.69 145.142 153.67 145.18 153.642 145.214C153.608 145.252 153.577 145.291 153.548 145.332C153.528 145.377 153.504 145.42 153.475 145.461C153.456 145.492 153.441 145.526 153.43 145.561C153.43 145.578 153.43 145.599 153.403 145.617C153.375 145.634 153.375 145.689 153.357 145.734C153.357 145.734 153.357 145.762 153.357 145.773V145.79L153.333 145.856V145.953C153.301 146.066 153.285 146.182 153.285 146.3C153.281 146.357 153.281 146.415 153.285 146.473C153.282 146.63 153.294 146.786 153.319 146.941C153.329 147.006 153.341 147.071 153.357 147.135C153.406 147.392 153.47 147.645 153.548 147.894C153.614 148.088 153.687 148.289 153.753 148.484L153.86 148.768C153.916 148.92 153.982 149.076 154.037 149.226C154.065 149.295 154.089 149.365 154.11 149.437C154.138 149.527 154.176 149.621 154.203 149.7C154.208 149.716 154.208 149.733 154.203 149.749C154.242 149.856 154.269 149.95 154.297 150.051C154.335 150.195 154.362 150.342 154.377 150.491C154.571 151.923 153.846 153.167 155.386 154.71C155.56 154.882 155.744 155.045 155.937 155.195C157.397 156.259 158.573 157.666 159.359 159.293C159.515 159.605 159.688 159.938 159.872 160.295C161.036 162.531 164.888 164.916 166.112 166.265C167.336 167.613 171.329 173.985 178.558 175.885C178.558 175.885 180.135 177.619 182.025 179.792C182.635 180.486 183.279 181.248 183.91 182.008M170.043 133.899C169.994 133.854 169.949 133.805 169.908 133.753C169.891 133.738 169.878 133.719 169.87 133.698C170.313 133.324 170.838 133.061 171.402 132.928C171.419 132.987 171.44 133.045 171.465 133.101C171.659 133.597 172.272 135.715 172.73 136.294C172.738 136.307 172.747 136.319 172.758 136.329C173.188 136.939 170.664 134.585 169.967 133.888L170.043 133.899Z" stroke="#004C7F" stroke-width="0.188671" stroke-miterlimit="10"/>
<path d="M172.647 136.284C172.647 136.284 174.117 138.225 174.876 138.669L172.647 136.284Z" fill="white"/>
<path d="M172.647 136.284C172.647 136.284 174.117 138.225 174.876 138.669" stroke="#004C7F" stroke-width="0.188671" stroke-miterlimit="10"/>
<path d="M178.627 130.47C178.627 130.47 181.643 136.475 183.214 137.369L178.627 130.47Z" fill="white"/>
<path d="M178.627 130.47C178.627 130.47 181.643 136.475 183.214 137.369" stroke="#004C7F" stroke-width="0.188671" stroke-miterlimit="10"/>
<path d="M153.756 148.756C153.929 149.21 154.103 149.65 154.21 150.042C154.099 149.65 153.926 149.213 153.756 148.756Z" fill="white" stroke="#004C7F" stroke-width="0.188671" stroke-miterlimit="10"/>
<path d="M166.181 130.999C166.181 130.999 168.608 132.528 169.794 133.686L166.181 130.999Z" fill="white"/>
<path d="M166.181 130.999C166.181 130.999 168.608 132.528 169.794 133.686" stroke="#004C7F" stroke-width="0.188671" stroke-miterlimit="10"/>
<path opacity="0.48" d="M112.993 65.8103H99.4625C98.2869 65.8103 97.3339 66.7633 97.3339 67.9389C97.3339 69.1145 98.2869 70.0675 99.4625 70.0675H112.993C114.169 70.0675 115.122 69.1145 115.122 67.9389C115.122 66.7633 114.169 65.8103 112.993 65.8103Z" fill="white"/>
<path opacity="0.54" d="M173.576 48.9713H127.852C125.503 48.9713 123.599 50.8758 123.599 53.2251V121.417C123.599 123.766 125.503 125.671 127.852 125.671H173.576C175.925 125.671 177.83 123.766 177.83 121.417V53.2251C177.83 50.8758 175.925 48.9713 173.576 48.9713Z" fill="#C6C6C6"/>
<path d="M171.149 46.5438H125.426C123.076 46.5438 121.172 48.4483 121.172 50.7976V118.99C121.172 121.339 123.076 123.243 125.426 123.243H171.149C173.499 123.243 175.403 121.339 175.403 118.99V50.7976C175.403 48.4483 173.499 46.5438 171.149 46.5438Z" fill="url(#paint0_linear_1_1945)" stroke="url(#paint1_linear_1_1945)" stroke-width="0.0628703"/>
<path opacity="0.46" d="M148.289 51.3085C146.959 51.3078 145.658 51.7017 144.551 52.4405C143.445 53.1793 142.582 54.2296 142.073 55.4587C141.563 56.6878 141.43 58.0404 141.689 59.3453C141.949 60.6503 142.589 61.849 143.53 62.7898C144.471 63.7306 145.669 64.3712 146.974 64.6306C148.279 64.89 149.632 64.7565 150.861 64.2471C152.09 63.7376 153.14 62.875 153.879 61.7685C154.618 60.6619 155.012 59.3611 155.011 58.0306C155.01 56.2481 154.302 54.5388 153.041 53.2784C151.781 52.0179 150.072 51.3094 148.289 51.3085ZM148.289 53.3262C148.688 53.3262 149.079 53.4446 149.41 53.6664C149.742 53.8883 150.001 54.2036 150.154 54.5725C150.306 54.9414 150.346 55.3473 150.268 55.7387C150.19 56.1302 149.997 56.4897 149.715 56.7718C149.432 57.0538 149.072 57.2457 148.681 57.3232C148.289 57.4006 147.883 57.3602 147.515 57.2069C147.146 57.0537 146.831 56.7945 146.61 56.4623C146.389 56.13 146.271 55.7396 146.271 55.3404C146.27 55.0746 146.32 54.811 146.421 54.565C146.522 54.319 146.67 54.0954 146.858 53.9071C147.046 53.7188 147.269 53.5696 147.514 53.4681C147.76 53.3666 148.023 53.3148 148.289 53.3158V53.3262ZM148.289 62.8737C147.49 62.8726 146.704 62.6743 146 62.2963C145.296 61.9183 144.696 61.3724 144.254 60.707C144.275 59.3688 146.944 58.6269 148.289 58.6269C149.634 58.6269 152.3 59.3584 152.321 60.707C151.878 61.37 151.278 61.9136 150.575 62.2897C149.872 62.6658 149.087 62.8628 148.289 62.8633V62.8737Z" fill="white"/>
<path opacity="0.46" d="M161.48 68.7255H135.098C134.106 68.7255 133.302 69.5295 133.302 70.5213C133.302 71.5131 134.106 72.3171 135.098 72.3171H161.48C162.472 72.3171 163.276 71.5131 163.276 70.5213C163.276 69.5295 162.472 68.7255 161.48 68.7255Z" fill="white"/>
<path opacity="0.46" d="M161.48 76.0353H135.098C134.106 76.0353 133.302 76.8393 133.302 77.8311C133.302 78.8229 134.106 79.6269 135.098 79.6269H161.48C162.472 79.6269 163.276 78.8229 163.276 77.8311C163.276 76.8393 162.472 76.0353 161.48 76.0353Z" fill="white"/>
<path opacity="0.46" d="M157.975 114.722H138.6C137.608 114.722 136.804 115.526 136.804 116.517C136.804 117.509 137.608 118.313 138.6 118.313H157.975C158.967 118.313 159.771 117.509 159.771 116.517C159.771 115.526 158.967 114.722 157.975 114.722Z" fill="white"/>
<path d="M136.8 105.993H137.539C137.68 106.006 137.823 105.991 137.959 105.946C138.094 105.902 138.219 105.831 138.326 105.736C138.5 105.548 138.592 105.299 138.582 105.043C138.589 104.922 138.57 104.8 138.526 104.687C138.483 104.573 138.415 104.47 138.329 104.384C138.138 104.218 137.889 104.133 137.636 104.149C137.394 104.141 137.158 104.219 136.967 104.367C136.88 104.434 136.81 104.52 136.763 104.619C136.716 104.718 136.693 104.826 136.696 104.936H135.309C135.305 104.586 135.41 104.243 135.608 103.955C135.812 103.65 136.098 103.41 136.433 103.261C136.801 103.096 137.201 103.013 137.605 103.018C138.227 102.984 138.841 103.172 139.338 103.549C139.548 103.729 139.713 103.954 139.823 104.207C139.932 104.461 139.982 104.736 139.969 105.012C139.969 105.331 139.865 105.641 139.674 105.896C139.478 106.168 139.212 106.383 138.905 106.516C139.259 106.629 139.569 106.851 139.789 107.151C139.985 107.447 140.086 107.797 140.076 108.153C140.085 108.439 140.027 108.723 139.906 108.982C139.786 109.241 139.607 109.469 139.383 109.647C138.869 110.041 138.231 110.24 137.584 110.209C136.974 110.227 136.378 110.031 135.899 109.654C135.683 109.478 135.51 109.254 135.394 109.001C135.279 108.747 135.224 108.47 135.233 108.191H136.62C136.617 108.314 136.642 108.435 136.693 108.547C136.744 108.659 136.82 108.757 136.915 108.836C137.12 109.005 137.38 109.094 137.646 109.085C137.929 109.101 138.207 109.008 138.423 108.825C138.516 108.736 138.589 108.628 138.637 108.509C138.686 108.389 138.708 108.261 138.704 108.132C138.704 107.439 138.319 107.092 137.549 107.092H136.8V105.993Z" fill="white"/>
<path d="M146.493 107.47H147.284V108.59H146.493V110.105H145.107V108.59H142.236L142.174 107.713L145.093 103.102H146.497L146.493 107.47ZM143.554 107.47H145.103V104.998L145.01 105.158L143.554 107.47Z" fill="white"/>
<path d="M161.359 109.026H156.415V110.114H161.359V109.026Z" fill="white"/>
<path d="M154.345 103.811L151.572 110.207H150.064L152.837 104.168H149.266V103.017H154.345V103.811Z" fill="white"/>
<path d="M150.574 94.3517H150.192V93.6029C150.192 93.0972 149.992 92.6122 149.634 92.2546C149.276 91.8971 148.791 91.6962 148.286 91.6962C147.78 91.6962 147.295 91.8971 146.937 92.2546C146.58 92.6122 146.379 93.0972 146.379 93.6029V94.3656H145.998C145.796 94.3665 145.602 94.4472 145.459 94.59C145.316 94.7328 145.236 94.9263 145.235 95.1283V98.9418C145.236 99.1438 145.316 99.3373 145.459 99.4801C145.602 99.6229 145.796 99.7036 145.998 99.7045H150.57C150.772 99.7036 150.966 99.6229 151.109 99.4801C151.251 99.3373 151.332 99.1438 151.333 98.9418V95.1283C151.334 95.0274 151.316 94.9272 151.278 94.8335C151.241 94.7398 151.185 94.6544 151.115 94.5823C151.044 94.5101 150.96 94.4526 150.867 94.413C150.774 94.3735 150.675 94.3526 150.574 94.3517ZM148.289 97.7839C148.138 97.7839 147.991 97.7391 147.865 97.6553C147.74 97.5715 147.642 97.4524 147.584 97.3131C147.527 97.1737 147.512 97.0203 147.541 96.8724C147.571 96.7244 147.643 96.5885 147.75 96.4819C147.856 96.3752 147.992 96.3026 148.14 96.2731C148.288 96.2437 148.442 96.2588 148.581 96.3165C148.72 96.3743 148.839 96.472 148.923 96.5975C149.007 96.7229 149.052 96.8703 149.052 97.0212C149.051 97.2232 148.97 97.4166 148.827 97.5595C148.685 97.7023 148.491 97.783 148.289 97.7839ZM149.471 94.3517H147.107V93.6029C147.107 93.2894 147.231 92.9887 147.453 92.767C147.675 92.5453 147.976 92.4207 148.289 92.4207C148.603 92.4207 148.903 92.5453 149.125 92.767C149.347 92.9887 149.471 93.2894 149.471 93.6029V94.3517Z" fill="white"/>
<path d="M83.3522 30.6255C83.3522 30.6255 100.496 26.7496 105.457 27.0998C110.418 27.4499 113.409 30.4487 113.236 32.7403C113.063 35.0318 112.342 41.9065 83.3522 45.4322" fill="white"/>
<path d="M83.3522 30.6255C83.3522 30.6255 100.496 26.7496 105.457 27.0998C110.418 27.4499 113.409 30.4487 113.236 32.7403C113.063 35.0318 112.342 41.9065 83.3522 45.4322" stroke="#004C7F" stroke-width="0.188671" stroke-miterlimit="10"/>
<path d="M92.3869 80.9973L82.5793 79.784L86.6874 71.6543L95.9681 75.1731L92.3869 80.9973Z" fill="white"/>
<path d="M41.6017 144.294C47.1693 140.962 52.7266 137.464 55.6283 134.719C61.9657 128.725 71.229 115.492 71.229 115.492L35.3995 67.2096L35.195 67.2408C34.4622 67.3513 33.7151 67.1731 33.1111 66.7437C32.5071 66.3143 32.0933 65.6672 31.957 64.9388C31.2948 61.3645 30.8234 54.7221 34.3491 48.1248C34.4219 47.9931 34.4912 47.8544 34.5606 47.7192C38.2354 40.4389 37.23 30.6729 36.0582 25.6772C35.6734 24.034 35.2678 22.9038 35.0182 22.5571C33.5725 20.5672 28.7779 19.9293 27.4294 22.1376C26.9475 22.935 26.7741 24.3356 26.6667 25.9511C26.4795 28.7974 26.4968 32.3023 25.3527 34.3061C24.6316 35.568 23.1513 37.6516 21.4353 40.6642C19.0398 44.8606 17.1068 49.3045 15.67 53.9178C12.3141 64.6649 9.25637 61.7528 7.84191 68.7523C7.17282 71.9938 4.47218 89.255 0 104.353" fill="white"/>
<path d="M41.6017 144.294C47.1693 140.962 52.7266 137.464 55.6283 134.719C61.9657 128.725 71.229 115.492 71.229 115.492L35.3995 67.2096L35.195 67.2408C34.4622 67.3513 33.7151 67.1731 33.1111 66.7437C32.5071 66.3143 32.0933 65.6672 31.957 64.9388C31.2948 61.3645 30.8234 54.7221 34.3491 48.1248C34.4219 47.9931 34.4912 47.8544 34.5606 47.7192C38.2354 40.4389 37.23 30.6729 36.0582 25.6772C35.6734 24.034 35.2678 22.9038 35.0182 22.5571C33.5725 20.5672 28.7779 19.9293 27.4294 22.1376C26.9475 22.935 26.7741 24.3356 26.6667 25.9511C26.4795 28.7974 26.4968 32.3023 25.3527 34.3061C24.6316 35.568 23.1513 37.6516 21.4353 40.6642C19.0398 44.8606 17.1068 49.3045 15.67 53.9178C12.3141 64.6649 9.25637 61.7528 7.84191 68.7523C7.17282 71.9938 4.47218 89.255 0 104.353" stroke="#004C7F" stroke-width="0.216509" stroke-miterlimit="10"/>
<path d="M41.8374 2.96979H82.7249C86.2818 2.96979 89.1627 6.34992 89.1627 10.5205V107.938C89.1627 112.098 86.2818 115.488 82.7249 115.488H41.8374C38.2805 115.488 35.3995 112.108 35.3995 107.938V10.5205C35.3995 6.34992 38.2805 2.96979 41.8374 2.96979Z" fill="white" stroke="#004C7F" stroke-width="0.216509" stroke-miterlimit="10"/>
<path d="M67.412 9.30151H57.2023C56.6441 9.30151 56.1934 9.41592 56.1934 9.56152V9.63779C56.1934 9.7834 56.6441 9.90127 57.2023 9.90127H67.4293C67.984 9.90127 68.4347 9.7834 68.4347 9.63779V9.56152C68.4174 9.41592 67.9667 9.30151 67.412 9.30151Z" fill="#004C7F"/>
<path d="M86.3581 12.8715H38.2007V104.52H86.3581V12.8715Z" fill="white" stroke="#004C7F" stroke-width="0.216509" stroke-miterlimit="10"/>
<path d="M94.297 93.8661C94.297 93.8661 98.0585 95.7936 98.6617 98.6191C99.2649 101.445 96.8173 107.134 92.9865 107.737C89.1557 108.34 88.341 107.685 86.7948 105.657C85.2486 103.629 84.5761 98.4319 89.7 95.3013" fill="white"/>
<path d="M94.297 93.8661C94.297 93.8661 98.0585 95.7936 98.6617 98.6191C99.2649 101.445 96.8173 107.134 92.9865 107.737C89.1557 108.34 88.341 107.685 86.7948 105.657C85.2486 103.629 84.5761 98.4319 89.7 95.3013" stroke="#004C7F" stroke-width="0.216509" stroke-miterlimit="10"/>
<path d="M92.1405 75.9892C92.1405 75.9892 85.4184 85.1034 84.68 87.336C83.9416 89.5687 84.68 94.0027 86.6977 95.8158C88.7153 97.629 93.3505 99.0088 96.0372 94.6233C98.724 90.2378 101.348 83.4636 101.549 81.9798C101.751 80.496 99.4694 74.8486 95.7703 73.975" fill="white"/>
<path d="M92.1405 75.9892C92.1405 75.9892 85.4184 85.1034 84.68 87.336C83.9416 89.5687 84.68 94.0027 86.6977 95.8158C88.7153 97.629 93.3505 99.0088 96.0372 94.6233C98.724 90.2378 101.348 83.4636 101.549 81.9798C101.751 80.496 99.4694 74.8486 95.7703 73.975" stroke="#004C7F" stroke-width="0.216509" stroke-miterlimit="10"/>
<path d="M89.1627 61.581C87.9635 63.5905 87.1048 65.7846 86.6215 68.0743C86.3168 69.5418 86.3377 71.0583 86.6827 72.5168C87.0277 73.9754 87.6885 75.3405 88.6184 76.516C90.0051 78.2494 91.6172 79.019 93.8637 79.2894C97.379 79.7366 100.156 67.3012 100.537 65.6302C100.991 63.668 98.1833 59.9342 96.339 58.3118C94.4946 56.6893 89.1627 55.1223 89.1627 55.1223" fill="white"/>
<path d="M89.1627 61.581C87.9635 63.5905 87.1048 65.7846 86.6215 68.0743C86.3168 69.5418 86.3377 71.0583 86.6827 72.5168C87.0277 73.9754 87.6885 75.3405 88.6184 76.516C90.0051 78.2494 91.6172 79.019 93.8637 79.2894C97.379 79.7366 100.156 67.3012 100.537 65.6302C100.991 63.668 98.1833 59.9342 96.339 58.3118C94.4946 56.6893 89.1627 55.1223 89.1627 55.1223" stroke="#004C7F" stroke-width="0.216509" stroke-miterlimit="10"/>
<path d="M92.3936 69.7789C92.3936 69.7789 96.1516 75.1767 96.6335 75.2253C97.1154 75.2738 98.7517 70.9853 98.1762 69.4912C97.6008 67.997 95.2364 63.5976 92.3936 69.7789Z" fill="white" stroke="#004C7F" stroke-width="0.216509" stroke-miterlimit="10"/>
<path d="M93.8464 94.7579C93.8464 94.7579 88.1435 88.2507 87.4675 88.2507C87.4675 88.2507 90.2964 82.6761 94.4808 84.4927C98.6652 86.3093 95.9993 92.1821 93.8464 94.7579Z" fill="white" stroke="#004C7F" stroke-width="0.216509" stroke-miterlimit="10"/>
<path d="M91.8702 106.025C91.8702 106.025 91.2011 101.445 88.5212 99.3685C88.5212 99.3685 90.1714 97.4861 93.9364 99.0011C97.7013 100.516 93.347 105.702 91.8702 106.025Z" fill="white" stroke="#004C7F" stroke-width="0.216509" stroke-miterlimit="10"/>
<path d="M89.1627 52.1577V61.6741" stroke="#004C7F" stroke-width="0.216509" stroke-miterlimit="10"/>
<path d="M62.2811 113.964C64.4734 113.964 66.2506 112.187 66.2506 109.995C66.2506 107.803 64.4734 106.025 62.2811 106.025C60.0888 106.025 58.3116 107.803 58.3116 109.995C58.3116 112.187 60.0888 113.964 62.2811 113.964Z" fill="white" stroke="#004C7F" stroke-width="0.216509" stroke-miterlimit="10"/>
<g opacity="0.54">
<path d="M77.0567 24.4198H39.428C38.3605 24.413 37.3022 24.6165 36.3134 25.0188C35.3247 25.4211 34.4248 26.0142 33.6654 26.7644C32.9059 27.5145 32.3017 28.4069 31.8872 29.3906C31.4727 30.3743 31.2561 31.4301 31.2498 32.4975V60.648C31.2471 62.7443 32.053 64.7609 33.4997 66.278C32.8516 67.7353 32.0997 69.1441 31.2498 70.4937C32.7509 70.4937 34.7686 69.412 36.4777 68.2749C37.4187 68.6392 38.4189 68.8261 39.428 68.8261H77.0567C79.2256 68.8261 81.3058 67.9645 82.8395 66.4308C84.3732 64.8971 85.2348 62.8169 85.2348 60.648V32.4975C85.2075 30.3463 84.3339 28.2924 82.8033 26.7805C81.2726 25.2687 79.2081 24.4206 77.0567 24.4198Z" fill="#C6C6C6"/>
</g>
<path d="M75.8155 23.1789H38.1868C37.1194 23.172 36.061 23.3756 35.0723 23.7778C34.0835 24.1801 33.1837 24.7733 32.4242 25.5234C31.6648 26.2735 31.0605 27.1659 30.646 28.1496C30.2316 29.1334 30.015 30.1891 30.0086 31.2565V59.407C30.0065 61.0702 30.5134 62.6832 31.4454 64.0364C31.8884 64.6796 32.0561 65.5053 31.7113 66.2061C31.0417 67.5672 31.9624 68.9037 33.3038 68.1954C33.589 68.0449 33.8739 67.8839 34.1553 67.7164C34.8444 67.3065 35.6765 67.2312 36.4602 67.4007C37.0264 67.5231 37.6051 67.5852 38.1868 67.5852H75.8155C77.9845 67.5852 80.0646 66.7235 81.5984 65.1898C83.1321 63.6561 83.9937 61.576 83.9937 59.407V31.2565C83.9663 29.1053 83.0928 27.0514 81.5621 25.5396C80.0315 24.0277 77.9669 23.1796 75.8155 23.1789Z" fill="url(#paint2_linear_1_1945)" stroke="url(#paint3_linear_1_1945)" stroke-width="0.0628703"/>
<path d="M57.58 33.5592C57.1596 32.3703 56.3325 31.3683 55.2448 30.7302C54.1571 30.0921 52.8788 29.8591 51.6359 30.0724C50.393 30.2856 49.2655 30.9314 48.4527 31.8955C47.6399 32.8597 47.1941 34.0801 47.1941 35.3412C47.1941 36.6022 47.6399 37.8227 48.4527 38.7868C49.2655 39.751 50.393 40.3968 51.6359 40.61C52.8788 40.8233 54.1571 40.5903 55.2448 39.9522C56.3325 39.3141 57.1596 38.3121 57.58 37.1231H61.4559V40.687H65.0198V37.1231H66.8017V33.5592H57.58ZM52.5462 37.1231C52.1938 37.1231 51.8492 37.0186 51.5562 36.8228C51.2632 36.627 51.0348 36.3487 50.8999 36.0231C50.765 35.6975 50.7297 35.3392 50.7985 34.9935C50.8672 34.6479 51.037 34.3304 51.2862 34.0812C51.5354 33.832 51.8529 33.6622 52.1985 33.5935C52.5442 33.5247 52.9025 33.56 53.2281 33.6949C53.5537 33.8298 53.832 34.0582 54.0278 34.3512C54.2236 34.6442 54.3281 34.9888 54.3281 35.3412C54.3272 35.8135 54.1392 36.2662 53.8052 36.6002C53.4712 36.9342 53.0185 37.1222 52.5462 37.1231Z" fill="white"/>
<path d="M42.9469 54.0797H43.8552C44.0282 54.0939 44.2023 54.0726 44.3668 54.0171C44.5314 53.9617 44.6828 53.8733 44.812 53.7573C44.918 53.6415 45.0002 53.506 45.0537 53.3585C45.1072 53.2109 45.1311 53.0543 45.124 52.8975C45.1324 52.7487 45.1093 52.5998 45.0561 52.4606C45.0029 52.3214 44.9209 52.195 44.8155 52.0897C44.5802 51.8876 44.2758 51.7845 43.9661 51.802C43.6705 51.7923 43.3809 51.8868 43.1479 52.0689C43.0433 52.1513 42.9591 52.2567 42.9019 52.377C42.8448 52.4973 42.8163 52.6291 42.8186 52.7623H41.1198C41.111 52.3365 41.2319 51.9181 41.4665 51.5628C41.7198 51.1965 42.0704 50.9083 42.4788 50.7307C42.9282 50.5263 43.417 50.4234 43.9106 50.4291C44.6749 50.3836 45.4301 50.6136 46.0392 51.0774C46.2954 51.298 46.4979 51.574 46.6312 51.8846C46.7646 52.1952 46.8254 52.5321 46.8089 52.8698C46.8131 53.2583 46.6915 53.6377 46.4622 53.9514C46.2204 54.2819 45.8966 54.5436 45.5227 54.7106C45.9507 54.8358 46.3244 55.101 46.5839 55.4636C46.8435 55.8262 46.974 56.2654 46.9545 56.711C46.9667 57.0591 46.8979 57.4054 46.7535 57.7224C46.6091 58.0395 46.3931 58.3186 46.1224 58.538C45.4948 59.0243 44.714 59.2702 43.921 59.2313C43.1695 59.2594 42.4324 59.0199 41.8409 58.5553C41.5766 58.3399 41.3656 58.0665 41.2243 57.7562C41.083 57.4459 41.0152 57.1072 41.0262 56.7664H42.7284C42.7219 56.9154 42.7498 57.0639 42.8099 57.2004C42.87 57.3369 42.9608 57.4577 43.0751 57.5534C43.3384 57.7578 43.6623 57.8687 43.9956 57.8687C44.3289 57.8687 44.6527 57.7578 44.916 57.5534C45.0314 57.445 45.1221 57.3131 45.1819 57.1665C45.2417 57.0199 45.2693 56.8622 45.2627 56.704C45.2627 55.8512 44.7912 55.4213 43.8517 55.4213H42.9503L42.9469 54.0797Z" fill="white"/>
<path d="M54.8068 55.8882H55.7741V57.275H54.8068V59.1262H53.1046V57.275H49.5927L49.5165 56.2037L53.0873 50.5632H54.8207L54.8068 55.8882ZM51.2117 55.8882H53.1046V52.8652L52.9937 53.0593L51.2117 55.8882Z" fill="white"/>
<path d="M64.33 51.4993L61.0192 59.1262H59.2234L62.5411 51.9326H58.2839V50.5632H64.33V51.4993Z" fill="white"/>
<path d="M72.8618 55.5737C72.8618 56.7559 72.6156 57.6538 72.1268 58.2917C71.8527 58.5865 71.521 58.8221 71.1522 58.9836C70.7835 59.1452 70.3855 59.2294 69.9829 59.231C69.5803 59.2327 69.1816 59.1517 68.8116 58.9931C68.4415 58.8345 68.1079 58.6017 67.8314 58.309C67.3391 57.6919 67.0861 56.8113 67.0722 55.6603V54.083C67.0722 52.8881 67.3207 51.9798 67.8176 51.358C68.093 51.0664 68.4251 50.834 68.7935 50.6752C69.1619 50.5164 69.5589 50.4344 69.9601 50.4344C70.3612 50.4344 70.7582 50.5164 71.1266 50.6752C71.495 50.834 71.8271 51.0664 72.1025 51.358C72.5948 51.9751 72.8479 52.8569 72.8618 54.0032V55.5737ZM71.1596 53.8403C71.1961 53.3062 71.0959 52.7717 70.8684 52.2871C70.7768 52.13 70.6434 52.0014 70.483 51.9157C70.3226 51.83 70.1416 51.7906 69.9601 51.8018C69.7844 51.7915 69.6092 51.8293 69.4534 51.9112C69.2977 51.993 69.1672 52.1158 69.076 52.2663C68.8528 52.713 68.7489 53.2098 68.7744 53.7085V55.7886C68.7411 56.3229 68.8387 56.8572 69.0587 57.3452C69.1465 57.5088 69.2794 57.6438 69.4417 57.7341C69.6039 57.8244 69.7886 57.8663 69.9739 57.8548C70.1546 57.8674 70.3352 57.8281 70.4942 57.7415C70.6533 57.6549 70.7843 57.5246 70.8718 57.366C71.0881 56.8976 71.1869 56.3835 71.1596 55.8684V53.8403Z" fill="white"/>
</g>
<defs>
<linearGradient id="paint0_linear_1_1945" x1="146.089" y1="46.5438" x2="147.555" y2="139.816" gradientUnits="userSpaceOnUse">
<stop stop-color="#FF61AD"/>
<stop offset="1" stop-color="#FF2719"/>
</linearGradient>
<linearGradient id="paint1_linear_1_1945" x1="2832.73" y1="46.5438" x2="2832.73" y2="7716.5" gradientUnits="userSpaceOnUse">
<stop stop-color="#FD4C94"/>
<stop offset="1" stop-color="#FF0000"/>
</linearGradient>
<linearGradient id="paint2_linear_1_1945" x1="54.8126" y1="23.1787" x2="55.344" y2="79.2165" gradientUnits="userSpaceOnUse">
<stop stop-color="#FF61AD"/>
<stop offset="1" stop-color="#FF2719"/>
</linearGradient>
<linearGradient id="paint3_linear_1_1945" x1="2729.26" y1="23.1787" x2="2729.26" y2="4630.58" gradientUnits="userSpaceOnUse">
<stop stop-color="#FD4C94"/>
<stop offset="1" stop-color="#FF0000"/>
</linearGradient>
<clipPath id="clip0_1_1945">
<rect width="217.022" height="183.741" fill="white"/>
</clipPath>
</defs>
</svg>
