<svg width="17" height="21" viewBox="0 0 17 21" fill="none" xmlns="http://www.w3.org/2000/svg">
<path d="M16.5 11.5004C16.5 16.5004 13 19.0005 8.84 20.4505C8.62216 20.5243 8.38554 20.5207 8.17 20.4405C4 19.0005 0.5 16.5004 0.5 11.5004V4.50045C0.5 4.23523 0.605357 3.98088 0.792893 3.79334C0.98043 3.60581 1.23478 3.50045 1.5 3.50045C3.5 3.50045 6 2.30045 7.74 0.78045C7.95185 0.599448 8.22135 0.5 8.5 0.5C8.77865 0.5 9.04815 0.599448 9.26 0.78045C11.01 2.31045 13.5 3.50045 15.5 3.50045C15.7652 3.50045 16.0196 3.60581 16.2071 3.79334C16.3946 3.98088 16.5 4.23523 16.5 4.50045V11.5004Z" stroke="#09090B" stroke-linecap="round" stroke-linejoin="round"/>
</svg>
