<svg width="13" height="13" viewBox="0 0 13 13" fill="none" xmlns="http://www.w3.org/2000/svg">
<g clip-path="url(#clip0_148_5839)">
<path d="M6.67318 8.9834C6.67318 9.11955 6.61909 9.25012 6.52282 9.34639C6.42655 9.44266 6.29598 9.49674 6.15983 9.49674C6.02368 9.49674 5.89311 9.44266 5.79684 9.34639C5.70057 9.25012 5.64648 9.11955 5.64648 8.9834C5.64648 8.84725 5.70057 8.71668 5.79684 8.62041C5.89311 8.52414 6.02368 8.47005 6.15983 8.47005C6.29598 8.47005 6.42655 8.52414 6.52282 8.62041C6.61909 8.71668 6.67318 8.84725 6.67318 8.9834ZM6.54484 4.74829C6.54484 4.64618 6.50428 4.54825 6.43207 4.47605C6.35987 4.40384 6.26194 4.36328 6.15983 4.36328C6.05772 4.36328 5.95979 4.40384 5.88759 4.47605C5.81538 4.54825 5.77482 4.64618 5.77482 4.74829V7.05835C5.77482 7.16046 5.81538 7.25839 5.88759 7.33059C5.95979 7.4028 6.05772 7.44336 6.15983 7.44336C6.26194 7.44336 6.35987 7.4028 6.43207 7.33059C6.50428 7.25839 6.54484 7.16046 6.54484 7.05835V4.74829Z" fill="#EF4444"/>
<path d="M5.04878 1.66448C5.54313 0.809757 6.77619 0.809757 7.27054 1.66448L11.8737 9.6234C12.3681 10.4791 11.7505 11.5495 10.7623 11.5495H1.557C0.568295 11.5495 -0.0487475 10.4791 0.445605 9.6234L5.04878 1.66448ZM6.60422 2.05C6.55896 1.97223 6.49408 1.90769 6.41607 1.86284C6.33806 1.81798 6.24965 1.79437 6.15966 1.79437C6.06968 1.79437 5.98127 1.81798 5.90326 1.86284C5.82525 1.90769 5.76037 1.97223 5.71511 2.05L1.11244 10.0089C1.06759 10.087 1.04403 10.1755 1.04412 10.2656C1.04421 10.3557 1.06795 10.4441 1.11295 10.5221C1.15796 10.6002 1.22267 10.665 1.30059 10.7101C1.37852 10.7553 1.46694 10.7792 1.557 10.7795H10.7623C10.8523 10.7791 10.9406 10.7552 11.0185 10.7101C11.0964 10.665 11.161 10.6002 11.206 10.5223C11.251 10.4443 11.2748 10.356 11.2749 10.266C11.2751 10.176 11.2516 10.0875 11.2069 10.0094L6.60422 2.05Z" fill="#EF4444"/>
</g>
<defs>
<clipPath id="clip0_148_5839">
<rect width="12.3203" height="12.3203" fill="white"/>
</clipPath>
</defs>
</svg>
