<svg width="375" height="812" viewBox="0 0 375 812" fill="none" xmlns="http://www.w3.org/2000/svg">
<g clip-path="url(#clip0_9_663)">
<rect width="375" height="812" fill="white"/>
<rect x="395.452" y="661.645" width="416.167" height="743" transform="rotate(-180 395.452 661.645)" fill="url(#paint0_linear_9_663)"/>
<rect x="395.452" y="661.645" width="416.167" height="491.339" transform="rotate(-180 395.452 661.645)" fill="url(#paint1_radial_9_663)"/>
<ellipse opacity="0.2" cx="187.5" cy="252.645" rx="232" ry="232" fill="url(#paint2_linear_9_663)"/>
<ellipse opacity="0.2" cx="187.5" cy="252.644" rx="155.15" ry="155.15" fill="url(#paint3_linear_9_663)"/>
<ellipse opacity="0.2" cx="187.5" cy="252.643" rx="62.5026" ry="62.5026" fill="url(#paint4_linear_9_663)"/>
<rect x="412.952" y="754" width="416.167" height="743" transform="rotate(-180 412.952 754)" fill="url(#paint5_linear_9_663)"/>
<rect x="412.952" y="754" width="416.167" height="491.339" transform="rotate(-180 412.952 754)" fill="url(#paint6_radial_9_663)"/>
<ellipse opacity="0.2" cx="205" cy="345" rx="232" ry="232" fill="url(#paint7_linear_9_663)"/>
<ellipse opacity="0.2" cx="205" cy="345" rx="155.15" ry="155.15" fill="url(#paint8_linear_9_663)"/>
<ellipse opacity="0.2" cx="205" cy="344.999" rx="62.5026" ry="62.5026" fill="url(#paint9_linear_9_663)"/>
</g>
<defs>
<linearGradient id="paint0_linear_9_663" x1="395.452" y1="1268.46" x2="795.822" y2="1282.08" gradientUnits="userSpaceOnUse">
<stop stop-color="#D2A1E3"/>
<stop offset="1" stop-color="#FB8CAD"/>
</linearGradient>
<radialGradient id="paint1_radial_9_663" cx="0" cy="0" r="1" gradientUnits="userSpaceOnUse" gradientTransform="translate(603.535 661.645) rotate(90) scale(491.339 416.167)">
<stop offset="0.479247" stop-color="white"/>
<stop offset="1" stop-color="white" stop-opacity="0"/>
</radialGradient>
<linearGradient id="paint2_linear_9_663" x1="187.5" y1="20.6446" x2="187.5" y2="384.811" gradientUnits="userSpaceOnUse">
<stop stop-color="white"/>
<stop offset="1" stop-color="white" stop-opacity="0"/>
</linearGradient>
<linearGradient id="paint3_linear_9_663" x1="187.5" y1="97.4942" x2="187.5" y2="341.031" gradientUnits="userSpaceOnUse">
<stop stop-color="white"/>
<stop offset="1" stop-color="white" stop-opacity="0"/>
</linearGradient>
<linearGradient id="paint4_linear_9_663" x1="187.5" y1="190.141" x2="187.5" y2="288.25" gradientUnits="userSpaceOnUse">
<stop stop-color="white"/>
<stop offset="1" stop-color="white" stop-opacity="0"/>
</linearGradient>
<linearGradient id="paint5_linear_9_663" x1="412.952" y1="1360.82" x2="813.322" y2="1374.44" gradientUnits="userSpaceOnUse">
<stop stop-color="#D2A1E3"/>
<stop offset="1" stop-color="#FB8CAD"/>
</linearGradient>
<radialGradient id="paint6_radial_9_663" cx="0" cy="0" r="1" gradientUnits="userSpaceOnUse" gradientTransform="translate(621.035 754) rotate(90) scale(491.339 416.167)">
<stop offset="0.479247" stop-color="white"/>
<stop offset="1" stop-color="white" stop-opacity="0"/>
</radialGradient>
<linearGradient id="paint7_linear_9_663" x1="205" y1="113" x2="205" y2="477.166" gradientUnits="userSpaceOnUse">
<stop stop-color="white"/>
<stop offset="1" stop-color="white" stop-opacity="0"/>
</linearGradient>
<linearGradient id="paint8_linear_9_663" x1="205" y1="189.85" x2="205" y2="433.386" gradientUnits="userSpaceOnUse">
<stop stop-color="white"/>
<stop offset="1" stop-color="white" stop-opacity="0"/>
</linearGradient>
<linearGradient id="paint9_linear_9_663" x1="205" y1="282.496" x2="205" y2="380.605" gradientUnits="userSpaceOnUse">
<stop stop-color="white"/>
<stop offset="1" stop-color="white" stop-opacity="0"/>
</linearGradient>
<clipPath id="clip0_9_663">
<rect width="375" height="812" fill="white"/>
</clipPath>
</defs>
</svg>
