<svg width="21" height="19" viewBox="0 0 21 19" fill="none" xmlns="http://www.w3.org/2000/svg">
<path d="M0.5 6.01615C0.50002 4.90335 0.837593 3.81674 1.46813 2.89982C2.09867 1.9829 2.99252 1.27881 4.03161 0.880553C5.0707 0.482294 6.20616 0.408598 7.28801 0.669198C8.36987 0.929797 9.34722 1.51243 10.091 2.34015C10.1434 2.39617 10.2067 2.44082 10.2771 2.47135C10.3474 2.50188 10.4233 2.51764 10.5 2.51764C10.5767 2.51764 10.6526 2.50188 10.7229 2.47135C10.7933 2.44082 10.8566 2.39617 10.909 2.34015C11.6504 1.50705 12.628 0.919521 13.7116 0.655755C14.7952 0.391989 15.9335 0.4645 16.9749 0.863637C18.0163 1.26277 18.9114 1.96961 19.5411 2.89006C20.1708 3.8105 20.5053 4.90091 20.5 6.01615C20.5 8.30615 19 10.0162 17.5 11.5162L12.008 16.8292C11.8217 17.0432 11.5919 17.2151 11.334 17.3335C11.0762 17.4518 10.796 17.514 10.5123 17.5158C10.2285 17.5176 9.94765 17.459 9.68829 17.3439C9.42893 17.2288 9.19703 17.0598 9.008 16.8482L3.5 11.5162C2 10.0162 0.5 8.31615 0.5 6.01615Z" stroke="#09090B" stroke-linecap="round" stroke-linejoin="round"/>
<path d="M1.71997 9.51562H7.99997L8.49997 8.51562L10.5 13.0156L12.5 6.01562L14 9.51562H19.27" stroke="#09090B" stroke-linecap="round" stroke-linejoin="round"/>
</svg>
