<svg width="15" height="14" viewBox="0 0 15 14" fill="none" xmlns="http://www.w3.org/2000/svg">
<path d="M1.09002 8.1723C0.711287 7.49216 0.522278 7.15137 0.522278 6.77979C0.522278 6.40822 0.711287 6.06815 1.09002 5.388L2.05511 3.65113L3.07604 1.94647C3.47625 1.2785 3.676 0.944151 3.99746 0.758006C4.31963 0.572577 4.70839 0.566849 5.48662 0.553962L7.47479 0.522461L9.46153 0.553962C10.2405 0.566849 10.6292 0.572577 10.9507 0.758722C11.2729 0.944867 11.4733 1.2785 11.8728 1.94647L12.8945 3.65113L13.861 5.388C14.239 6.06815 14.428 6.40822 14.428 6.77979C14.428 7.15137 14.239 7.49144 13.8603 8.17159L12.8945 9.90846L11.8735 11.6131C11.4733 12.2811 11.2736 12.6154 10.9521 12.8016C10.6299 12.987 10.2412 12.9927 9.46296 13.0056L7.47479 13.0371L5.48805 13.0056C4.70911 12.9927 4.32035 12.987 3.99889 12.8009C3.67672 12.6147 3.47625 12.2811 3.07676 11.6131L2.05511 9.90846L1.09002 8.1723Z" stroke="#69686C" stroke-width="1.04452"/>
<path d="M7.47491 8.92651C8.66113 8.92651 9.62274 7.9649 9.62274 6.77869C9.62274 5.59247 8.66113 4.63086 7.47491 4.63086C6.2887 4.63086 5.32709 5.59247 5.32709 6.77869C5.32709 7.9649 6.2887 8.92651 7.47491 8.92651Z" stroke="#69686C" stroke-width="1.04452"/>
</svg>
