<svg width="12" height="14" viewBox="0 0 12 14" fill="none" xmlns="http://www.w3.org/2000/svg">
<path d="M11.5022 4.58033V10.5531C11.4884 10.9438 11.3973 11.3278 11.2344 11.6832C11.0714 12.0385 10.8398 12.3581 10.5528 12.6235C9.97251 13.1618 9.20224 13.4476 8.41129 13.4182H3.12029C2.72622 13.4364 2.33243 13.3766 1.96157 13.2421C1.59071 13.1077 1.25008 12.9012 0.959273 12.6346C0.669618 12.3684 0.435685 12.0473 0.27103 11.69C0.106375 11.3327 0.0142723 10.9463 6.10352e-05 10.5531V3.39108C0.0139015 3.0004 0.104921 2.61633 0.267873 2.261C0.430826 1.90566 0.662489 1.58608 0.949513 1.32069C1.52979 0.782408 2.30006 0.496567 3.09101 0.525992H7.07425C7.68228 0.524046 8.26916 0.749005 8.7201 1.15687L10.7835 3.05438C11.0037 3.24407 11.1814 3.47797 11.3053 3.74088C11.4291 4.00378 11.4962 4.28979 11.5022 4.58033Z" fill="url(#paint0_linear_1_1425)"/>
<path d="M7.2749 0.522949V3.02973C7.2749 3.36921 7.41014 3.69546 7.65134 3.93596C7.89315 4.17672 8.22052 4.31183 8.56175 4.3117H11.4373" stroke="#27272B" stroke-width="1.04565" stroke-linecap="round" stroke-linejoin="round"/>
<defs>
<linearGradient id="paint0_linear_1_1425" x1="5.75115" y1="0.523926" x2="5.75115" y2="13.4214" gradientUnits="userSpaceOnUse">
<stop stop-color="#78777C"/>
<stop offset="1" stop-color="#545456"/>
</linearGradient>
</defs>
</svg>
