<svg width="16" height="16" viewBox="0 0 16 16" fill="none" xmlns="http://www.w3.org/2000/svg">
<path fill-rule="evenodd" clip-rule="evenodd" d="M2.71511 3.72759C2.67547 3.53351 2.39799 3.53351 2.35835 3.72759C2.31527 3.93724 2.21164 4.12965 2.0603 4.281C1.90895 4.43234 1.71654 4.53597 1.50689 4.57905C1.31281 4.61901 1.31281 4.89617 1.50689 4.93613C1.71654 4.97921 1.90895 5.08283 2.0603 5.23418C2.21164 5.38552 2.31527 5.57794 2.35835 5.78759C2.39831 5.98167 2.67547 5.98167 2.71511 5.78759C2.75821 5.57789 2.86188 5.38545 3.01329 5.2341C3.16469 5.08275 3.35717 4.97915 3.56689 4.93613C3.76096 4.89617 3.76096 4.61901 3.56689 4.57905C3.35717 4.53603 3.16469 4.43242 3.01329 4.28107C2.86188 4.12973 2.75821 3.93728 2.71511 3.72759ZM4.73674 5.89509C4.67077 5.57163 4.20842 5.57163 4.14214 5.89509C4.07078 6.24474 3.89822 6.56571 3.64591 6.81807C3.3936 7.07044 3.07267 7.24308 2.72303 7.31451C2.39957 7.38047 2.39957 7.84283 2.72303 7.90911C3.07263 7.98053 3.39352 8.15311 3.64583 8.40542C3.89813 8.65773 4.07072 8.97862 4.14214 9.32822C4.20842 9.65168 4.67077 9.65168 4.73674 9.32822C4.80817 8.97858 4.98081 8.65765 5.23318 8.40534C5.48554 8.15303 5.8065 7.98047 6.15616 7.90911C6.47962 7.84283 6.47962 7.38047 6.15616 7.31451C5.80646 7.24313 5.48547 7.07052 5.2331 6.81815C4.98073 6.56578 4.80812 6.24479 4.73674 5.89509Z" fill="url(#paint0_linear_59_4895)" stroke="url(#paint1_linear_59_4895)" stroke-width="0.0111278"/>
<path d="M7.76937 2.21982C7.76937 2.09366 7.81948 1.97267 7.90869 1.88346C7.9979 1.79426 8.11889 1.74414 8.24505 1.74414C8.3712 1.74414 8.49219 1.79426 8.5814 1.88346C8.67061 1.97267 8.72072 2.09366 8.72072 2.21982H7.76937ZM8.72072 13.0018C8.72072 13.128 8.67061 13.249 8.5814 13.3382C8.49219 13.4274 8.3712 13.4775 8.24505 13.4775C8.11889 13.4775 7.9979 13.4274 7.90869 13.3382C7.81948 13.249 7.76937 13.128 7.76937 13.0018H8.72072ZM5.23242 4.75676C5.23242 4.63061 5.28254 4.50962 5.37174 4.42041C5.46095 4.3312 5.58194 4.28109 5.7081 4.28109C5.83426 4.28109 5.95525 4.3312 6.04445 4.42041C6.13366 4.50962 6.18378 4.63061 6.18378 4.75676H5.23242ZM6.18378 5.391C6.18378 5.51716 6.13366 5.63815 6.04445 5.72736C5.95525 5.81656 5.83426 5.86668 5.7081 5.86668C5.58194 5.86668 5.46095 5.81656 5.37174 5.72736C5.28254 5.63815 5.23242 5.51716 5.23242 5.391H6.18378ZM5.23242 9.83066C5.23242 9.7045 5.28254 9.58351 5.37174 9.4943C5.46095 9.4051 5.58194 9.35498 5.7081 9.35498C5.83426 9.35498 5.95525 9.4051 6.04445 9.4943C6.13366 9.58351 6.18378 9.7045 6.18378 9.83066H5.23242ZM6.18378 10.4649C6.18378 10.5911 6.13366 10.712 6.04445 10.8012C5.95525 10.8905 5.83426 10.9406 5.7081 10.9406C5.58194 10.9406 5.46095 10.8905 5.37174 10.8012C5.28254 10.712 5.23242 10.5911 5.23242 10.4649H6.18378ZM10.3063 4.75676C10.3063 4.63061 10.3564 4.50962 10.4456 4.42041C10.5348 4.3312 10.6558 4.28109 10.782 4.28109C10.9081 4.28109 11.0291 4.3312 11.1183 4.42041C11.2076 4.50962 11.2577 4.63061 11.2577 4.75676H10.3063ZM11.2577 10.4649C11.2577 10.5911 11.2076 10.712 11.1183 10.8012C11.0291 10.8905 10.9081 10.9406 10.782 10.9406C10.6558 10.9406 10.5348 10.8905 10.4456 10.8012C10.3564 10.712 10.3063 10.5911 10.3063 10.4649H11.2577ZM12.8433 6.97659C12.8433 6.85044 12.8934 6.72944 12.9826 6.64024C13.0718 6.55103 13.1928 6.50092 13.3189 6.50092C13.4451 6.50092 13.5661 6.55103 13.6553 6.64024C13.7445 6.72944 13.7946 6.85044 13.7946 6.97659H12.8433ZM13.7946 8.24507C13.7946 8.37122 13.7445 8.49221 13.6553 8.58142C13.5661 8.67063 13.4451 8.72074 13.3189 8.72074C13.1928 8.72074 13.0718 8.67063 12.9826 8.58142C12.8934 8.49221 12.8433 8.37122 12.8433 8.24507H13.7946ZM8.72072 2.21982V13.0018H7.76937V2.21982H8.72072ZM6.18378 4.75676V5.391H5.23242V4.75676H6.18378ZM6.18378 9.83066V10.4649H5.23242V9.83066H6.18378ZM11.2577 4.75676V10.4649H10.3063V4.75676H11.2577ZM13.7946 6.97659V8.24507H12.8433V6.97659H13.7946Z" fill="#202124"/>
<defs>
<linearGradient id="paint0_linear_59_4895" x1="3.67582" y1="3.58203" x2="3.77203" y2="10.8653" gradientUnits="userSpaceOnUse">
<stop stop-color="#FF61AD"/>
<stop offset="1" stop-color="#FF2719"/>
</linearGradient>
<linearGradient id="paint1_linear_59_4895" x1="253.233" y1="3.58203" x2="253.233" y2="602.46" gradientUnits="userSpaceOnUse">
<stop stop-color="#FD4C94"/>
<stop offset="1" stop-color="#FF0000"/>
</linearGradient>
</defs>
</svg>
