<svg width="20" height="16" viewBox="0 0 20 16" fill="none" xmlns="http://www.w3.org/2000/svg">
<path d="M19.2 4.0476V12.6C19.2 13.3956 18.8839 14.1587 18.3213 14.7213C17.7587 15.2839 16.9956 15.6 16.2 15.6H3C2.20435 15.6 1.44129 15.2839 0.87868 14.7213C0.316071 14.1587 0 13.3956 0 12.6V4.0476L9.2952 9.5172C9.38754 9.57166 9.49279 9.60039 9.6 9.60039C9.70721 9.60039 9.81246 9.57166 9.9048 9.5172L19.2 4.0476ZM16.2 3.71432e-08C16.9382 -0.000116059 17.6505 0.271928 18.2006 0.764088C18.7508 1.25625 19.1002 1.93397 19.182 2.6676L9.6 8.304L0.0180001 2.6676C0.09979 1.93397 0.449189 1.25625 0.999354 0.764088C1.54952 0.271928 2.26182 -0.000116059 3 3.71432e-08H16.2Z" fill="white"/>
</svg>
