<svg width="14" height="14" viewBox="0 0 14 14" fill="none" xmlns="http://www.w3.org/2000/svg">
<path d="M1.16699 1.16797L12.8337 12.8346" stroke="#CBD5E1" stroke-width="1.16667" stroke-linecap="round" stroke-linejoin="round"/>
<path d="M2.91634 2.91797C2.76163 2.91797 2.61326 2.97943 2.50386 3.08882C2.39447 3.19822 2.33301 3.34659 2.33301 3.5013V7.58464C2.33301 10.5013 4.37467 11.9596 6.80717 12.7996C6.9329 12.8465 7.07094 12.8485 7.19801 12.8055C8.56884 12.3271 9.81134 11.6563 10.6397 10.6413" stroke="#CBD5E1" stroke-width="1.16667" stroke-linecap="round" stroke-linejoin="round"/>
<path d="M5.42969 2.1319C5.83013 1.90213 6.20736 1.6341 6.5561 1.33156C6.67969 1.22598 6.83689 1.16797 6.99944 1.16797C7.16198 1.16797 7.31919 1.22598 7.44277 1.33156C8.4636 2.22406 9.9161 2.91823 11.0828 2.91823C11.2375 2.91823 11.3859 2.97969 11.4953 3.08909C11.6046 3.19848 11.6661 3.34685 11.6661 3.50156V7.5849C11.6665 7.83142 11.6509 8.07772 11.6194 8.32223" stroke="#CBD5E1" stroke-width="1.16667" stroke-linecap="round" stroke-linejoin="round"/>
</svg>
