<svg width="14" height="14" viewBox="0 0 14 14" fill="none" xmlns="http://www.w3.org/2000/svg">
<g clip-path="url(#clip0_148_6183)">
<path d="M6.99982 2.91531C7.00051 2.682 6.95453 2.4509 6.8646 2.23561C6.77467 2.02032 6.64259 1.82519 6.47614 1.6617C6.30969 1.4982 6.11223 1.36964 5.89537 1.28357C5.67851 1.19751 5.44662 1.15567 5.21336 1.16054C4.98009 1.1654 4.75015 1.21686 4.53707 1.31188C4.32398 1.40691 4.13205 1.54359 3.97255 1.71388C3.81306 1.88417 3.68923 2.08464 3.60835 2.30348C3.52747 2.52233 3.49116 2.75515 3.50157 2.98823C3.15869 3.07639 2.84036 3.24142 2.5707 3.47083C2.30105 3.70023 2.08713 3.98799 1.94514 4.31231C1.80316 4.63663 1.73685 4.989 1.75121 5.34274C1.76558 5.69649 1.86026 6.04233 2.02807 6.35406C1.73301 6.59377 1.50098 6.90195 1.35218 7.25177C1.20338 7.6016 1.14231 7.98249 1.17428 8.3613C1.20625 8.74012 1.3303 9.10538 1.53562 9.42533C1.74095 9.74527 2.02134 10.0102 2.3524 10.1971C2.31152 10.5134 2.33592 10.8347 2.42409 11.1412C2.51226 11.4477 2.66233 11.7329 2.86503 11.9791C3.06773 12.2254 3.31876 12.4274 3.60261 12.5728C3.88647 12.7183 4.19712 12.8039 4.51539 12.8246C4.83366 12.8452 5.15278 12.8004 5.45305 12.6929C5.75331 12.5854 6.02835 12.4175 6.26118 12.1995C6.494 11.9815 6.67967 11.7181 6.80671 11.4256C6.93376 11.1331 6.99948 10.8176 6.99982 10.4986V2.91531Z" stroke="white" stroke-width="1.16667" stroke-linecap="round" stroke-linejoin="round"/>
<path d="M7.00001 2.91531C6.99932 2.682 7.04529 2.4509 7.13523 2.23561C7.22516 2.02032 7.35723 1.82519 7.52368 1.6617C7.69013 1.4982 7.8876 1.36964 8.10446 1.28357C8.32132 1.19751 8.5532 1.15567 8.78647 1.16054C9.01973 1.1654 9.24967 1.21686 9.46276 1.31188C9.67585 1.40691 9.86778 1.54359 10.0273 1.71388C10.1868 1.88417 10.3106 2.08464 10.3915 2.30348C10.4724 2.52233 10.5087 2.75515 10.4983 2.98823C10.8411 3.07639 11.1595 3.24142 11.4291 3.47083C11.6988 3.70023 11.9127 3.98799 12.0547 4.31231C12.1967 4.63663 12.263 4.989 12.2486 5.34274C12.2342 5.69649 12.1396 6.04233 11.9718 6.35406C12.2668 6.59377 12.4988 6.90195 12.6476 7.25177C12.7964 7.6016 12.8575 7.98249 12.8255 8.3613C12.7936 8.74012 12.6695 9.10538 12.4642 9.42533C12.2589 9.74527 11.9785 10.0102 11.6474 10.1971C11.6883 10.5134 11.6639 10.8347 11.5757 11.1412C11.4876 11.4477 11.3375 11.7329 11.1348 11.9791C10.9321 12.2254 10.6811 12.4274 10.3972 12.5728C10.1134 12.7183 9.8027 12.8039 9.48444 12.8246C9.16617 12.8452 8.84705 12.8004 8.54678 12.6929C8.24651 12.5854 7.97147 12.4175 7.73865 12.1995C7.50582 11.9815 7.32016 11.7181 7.19311 11.4256C7.06607 11.1331 7.00035 10.8176 7.00001 10.4986V2.91531Z" stroke="white" stroke-width="1.16667" stroke-linecap="round" stroke-linejoin="round"/>
<path d="M8.75 7.58333C8.26026 7.41105 7.8326 7.09741 7.52111 6.68209C7.20961 6.26676 7.02826 5.76839 7 5.25C6.97174 5.76839 6.79039 6.26676 6.47889 6.68209C6.1674 7.09741 5.73974 7.41105 5.25 7.58333" stroke="white" stroke-width="1.16667" stroke-linecap="round" stroke-linejoin="round"/>
<path d="M10.2656 3.79036C10.4068 3.54571 10.4867 3.27051 10.4984 2.98828" stroke="white" stroke-width="1.16667" stroke-linecap="round" stroke-linejoin="round"/>
<path d="M3.50195 2.98828C3.51349 3.27046 3.59314 3.54565 3.73412 3.79036" stroke="white" stroke-width="1.16667" stroke-linecap="round" stroke-linejoin="round"/>
<path d="M2.02832 6.356C2.13504 6.26909 2.24923 6.19179 2.36957 6.125" stroke="white" stroke-width="1.16667" stroke-linecap="round" stroke-linejoin="round"/>
<path d="M11.6309 6.125C11.7512 6.19179 11.8654 6.26909 11.9721 6.356" stroke="white" stroke-width="1.16667" stroke-linecap="round" stroke-linejoin="round"/>
<path d="M3.49996 10.5002C3.09794 10.5004 2.70269 10.3967 2.35254 10.1992" stroke="white" stroke-width="1.16667" stroke-linecap="round" stroke-linejoin="round"/>
<path d="M11.6474 10.1992C11.2973 10.3967 10.902 10.5004 10.5 10.5002" stroke="white" stroke-width="1.16667" stroke-linecap="round" stroke-linejoin="round"/>
</g>
<defs>
<clipPath id="clip0_148_6183">
<rect width="14" height="14" fill="white"/>
</clipPath>
</defs>
</svg>
