<svg width="10" height="10" viewBox="0 0 10 10" fill="none" xmlns="http://www.w3.org/2000/svg">
<path d="M7.29169 7.91634H3.75003C3.20914 7.9162 2.67894 7.76566 2.21868 7.48154C1.75843 7.19741 1.38624 6.7909 1.14372 6.30743C0.901202 5.82396 0.797898 5.28257 0.845356 4.74377C0.892814 4.20496 1.08916 3.68997 1.41246 3.25633C1.73576 2.8227 2.17327 2.48751 2.67611 2.28821C3.17895 2.08892 3.72729 2.03337 4.25988 2.12778C4.79247 2.2222 5.28831 2.46285 5.692 2.82284C6.09569 3.18284 6.39132 3.648 6.54586 4.16634H7.29169C7.78897 4.16634 8.26589 4.36389 8.61752 4.71552C8.96915 5.06715 9.16669 5.54406 9.16669 6.04134C9.16669 6.53862 8.96915 7.01554 8.61752 7.36717C8.26589 7.7188 7.78897 7.91634 7.29169 7.91634Z" stroke="#FF61AD" stroke-opacity="0.9" stroke-width="1.04167" stroke-linecap="round" stroke-linejoin="round"/>
</svg>
