<svg width="19" height="19" viewBox="0 0 19 19" fill="none" xmlns="http://www.w3.org/2000/svg">
<g clip-path="url(#clip0_148_8061)">
<path d="M3.00586 1.50195V16.528L4.50846 15.7767L6.01107 16.528L7.51367 15.7767L9.01628 16.528L10.5189 15.7767L12.0215 16.528L13.5241 15.7767L15.0267 16.528V1.50195L13.5241 2.25326L12.0215 1.50195L10.5189 2.25326L9.01628 1.50195L7.51367 2.25326L6.01107 1.50195L4.50846 2.25326L3.00586 1.50195Z" stroke="#475569" stroke-width="1.5026" stroke-linecap="round" stroke-linejoin="round"/>
<path d="M12.0202 6.00977H7.51237C7.11385 6.00977 6.73166 6.16808 6.44987 6.44987C6.16808 6.73166 6.00977 7.11385 6.00977 7.51237C6.00977 7.91089 6.16808 8.29308 6.44987 8.57487C6.73166 8.85666 7.11385 9.01497 7.51237 9.01497H10.5176C10.9161 9.01497 11.2983 9.17328 11.5801 9.45508C11.8619 9.73687 12.0202 10.1191 12.0202 10.5176C12.0202 10.9161 11.8619 11.2983 11.5801 11.5801C11.2983 11.8619 10.9161 12.0202 10.5176 12.0202H6.00977" stroke="#475569" stroke-width="1.5026" stroke-linecap="round" stroke-linejoin="round"/>
<path d="M9.01562 13.1471V4.88281" stroke="#475569" stroke-width="1.5026" stroke-linecap="round" stroke-linejoin="round"/>
</g>
<defs>
<clipPath id="clip0_148_8061">
<rect width="18.0312" height="18.0312" fill="white"/>
</clipPath>
</defs>
</svg>
