<svg width="17" height="17" viewBox="0 0 17 17" fill="none" xmlns="http://www.w3.org/2000/svg">
<path d="M13.7931 1.62272H12.1704V0.811361C12.1704 0.596174 12.0849 0.389802 11.9328 0.237642C11.7806 0.0854824 11.5742 0 11.359 0C11.1439 0 10.9375 0.0854824 10.7853 0.237642C10.6332 0.389802 10.5477 0.596174 10.5477 0.811361V1.62272H5.67952V0.811361C5.67952 0.596174 5.59404 0.389802 5.44188 0.237642C5.28972 0.0854824 5.08335 0 4.86816 0C4.65298 0 4.44661 0.0854824 4.29445 0.237642C4.14229 0.389802 4.0568 0.596174 4.0568 0.811361V1.62272H2.43408C1.78852 1.62272 1.16941 1.87917 0.712926 2.33565C0.256447 2.79213 0 3.41124 0 4.0568V13.7931C0 14.4387 0.256447 15.0578 0.712926 15.5143C1.16941 15.9708 1.78852 16.2272 2.43408 16.2272H13.7931C14.4387 16.2272 15.0578 15.9708 15.5143 15.5143C15.9708 15.0578 16.2272 14.4387 16.2272 13.7931V4.0568C16.2272 3.41124 15.9708 2.79213 15.5143 2.33565C15.0578 1.87917 14.4387 1.62272 13.7931 1.62272ZM14.6045 13.7931C14.6045 14.0083 14.519 14.2147 14.3669 14.3669C14.2147 14.519 14.0083 14.6045 13.7931 14.6045H2.43408C2.2189 14.6045 2.01252 14.519 1.86036 14.3669C1.7082 14.2147 1.62272 14.0083 1.62272 13.7931V8.11361H14.6045V13.7931ZM14.6045 6.49089H1.62272V4.0568C1.62272 3.84162 1.7082 3.63524 1.86036 3.48308C2.01252 3.33093 2.2189 3.24544 2.43408 3.24544H4.0568V4.0568C4.0568 4.27199 4.14229 4.47836 4.29445 4.63052C4.44661 4.78268 4.65298 4.86816 4.86816 4.86816C5.08335 4.86816 5.28972 4.78268 5.44188 4.63052C5.59404 4.47836 5.67952 4.27199 5.67952 4.0568V3.24544H10.5477V4.0568C10.5477 4.27199 10.6332 4.47836 10.7853 4.63052C10.9375 4.78268 11.1439 4.86816 11.359 4.86816C11.5742 4.86816 11.7806 4.78268 11.9328 4.63052C12.0849 4.47836 12.1704 4.27199 12.1704 4.0568V3.24544H13.7931C14.0083 3.24544 14.2147 3.33093 14.3669 3.48308C14.519 3.63524 14.6045 3.84162 14.6045 4.0568V6.49089Z" fill="black"/>
</svg>
