<svg width="16" height="14" viewBox="0 0 16 14" fill="none" xmlns="http://www.w3.org/2000/svg">
<path d="M13.119 2.31514H12.1313L11.8843 1.54343C11.7242 1.09062 11.4273 0.698801 11.0346 0.422265C10.6419 0.14573 10.1729 -0.00183427 9.69265 1.72119e-05H5.74151C5.25653 0.000924518 4.78408 0.154114 4.39084 0.437966C3.9976 0.721817 3.70343 1.122 3.54986 1.58202L3.30291 2.35373H2.31512C1.70112 2.35373 1.11225 2.59764 0.678084 3.03181C0.243914 3.46598 0 4.05484 0 4.66885V10.8425C0 11.4565 0.243914 12.0454 0.678084 12.4796C1.11225 12.9137 1.70112 13.1576 2.31512 13.1576H13.119C13.733 13.1576 14.3219 12.9137 14.7561 12.4796C15.1902 12.0454 15.4342 11.4565 15.4342 10.8425V4.66885C15.4393 4.36159 15.3832 4.05639 15.2691 3.77104C15.1551 3.48569 14.9854 3.22589 14.7699 3.00681C14.5544 2.78773 14.2974 2.61374 14.014 2.49499C13.7306 2.37624 13.4263 2.3151 13.119 2.31514ZM13.8907 10.8039C13.8907 11.0086 13.8094 11.2049 13.6647 11.3496C13.52 11.4943 13.3237 11.5756 13.119 11.5756H2.31512C2.11045 11.5756 1.91417 11.4943 1.76944 11.3496C1.62472 11.2049 1.54342 11.0086 1.54342 10.8039V4.63027C1.54342 4.4256 1.62472 4.22931 1.76944 4.08459C1.91417 3.93986 2.11045 3.85856 2.31512 3.85856H3.85854C4.02682 3.86734 4.19336 3.8208 4.3327 3.72604C4.47205 3.63129 4.57655 3.49353 4.63025 3.3338L5.04697 2.06819C5.09874 1.91492 5.19738 1.78179 5.32893 1.68762C5.46049 1.59345 5.61831 1.54302 5.78009 1.54343H9.73124C9.89302 1.54302 10.0508 1.59345 10.1824 1.68762C10.314 1.78179 10.4126 1.91492 10.4644 2.06819L10.8811 3.3338C10.9306 3.481 11.0234 3.60983 11.1473 3.70345C11.2712 3.79708 11.4205 3.85113 11.5756 3.85856H13.119C13.3237 3.85856 13.52 3.93986 13.6647 4.08459C13.8094 4.22931 13.8907 4.4256 13.8907 4.63027V10.8039ZM7.71708 3.85856C7.10656 3.85856 6.50976 4.0396 6.00213 4.37878C5.4945 4.71797 5.09885 5.20007 4.86522 5.76411C4.63158 6.32816 4.57046 6.94881 4.68956 7.5476C4.80867 8.14639 5.10266 8.69641 5.53436 9.12811C5.96606 9.55981 6.51608 9.8538 7.11487 9.97291C7.71366 10.092 8.33432 10.0309 8.89836 9.79725C9.46241 9.56362 9.9445 9.16797 10.2837 8.66034C10.6229 8.15271 10.8039 7.55591 10.8039 6.94539C10.8039 6.12671 10.4787 5.34156 9.8998 4.76267C9.32091 4.18378 8.53576 3.85856 7.71708 3.85856ZM7.71708 8.48881C7.41182 8.48881 7.11342 8.39829 6.85961 8.22869C6.60579 8.0591 6.40797 7.81805 6.29115 7.53603C6.17433 7.25401 6.14377 6.94368 6.20332 6.64428C6.26287 6.34489 6.40987 6.06988 6.62572 5.85403C6.84157 5.63818 7.11658 5.49118 7.41598 5.43163C7.71537 5.37208 8.0257 5.40264 8.30772 5.51946C8.58974 5.63628 8.83079 5.8341 9.00039 6.08791C9.16998 6.34173 9.2605 6.64013 9.2605 6.94539C9.2605 7.35473 9.09789 7.7473 8.80844 8.03675C8.51899 8.3262 8.12642 8.48881 7.71708 8.48881Z" fill="white"/>
</svg>
