<svg width="14" height="14" viewBox="0 0 14 14" fill="none" xmlns="http://www.w3.org/2000/svg">
<g clip-path="url(#clip0_148_6209)">
<path d="M10.2086 11.0846H5.25026C4.49301 11.0844 3.75073 10.8737 3.10638 10.4759C2.46202 10.0781 1.94096 9.50902 1.60143 8.83216C1.2619 8.1553 1.11728 7.39736 1.18372 6.64303C1.25016 5.88871 1.52505 5.16771 1.97767 4.56063C2.43029 3.95354 3.0428 3.48427 3.74677 3.20525C4.45074 2.92624 5.21843 2.84848 5.96405 2.98066C6.70967 3.11283 7.40385 3.44974 7.96902 3.95374C8.53418 4.45773 8.94807 5.10896 9.16442 5.83464H10.2086C10.9048 5.83464 11.5725 6.1112 12.0647 6.60348C12.557 7.09576 12.8336 7.76344 12.8336 8.45964C12.8336 9.15583 12.557 9.82351 12.0647 10.3158C11.5725 10.8081 10.9048 11.0846 10.2086 11.0846Z" stroke="white" stroke-width="1.16667" stroke-linecap="round" stroke-linejoin="round"/>
</g>
<defs>
<clipPath id="clip0_148_6209">
<rect width="14" height="14" fill="white"/>
</clipPath>
</defs>
</svg>
