<svg width="17" height="17" viewBox="0 0 17 17" fill="none" xmlns="http://www.w3.org/2000/svg">
<g clip-path="url(#clip0_148_6070)">
<path d="M2.8338 9.91591C2.69975 9.91636 2.56833 9.87878 2.4548 9.80752C2.34127 9.73625 2.25029 9.63424 2.19244 9.51333C2.13458 9.39242 2.11221 9.25757 2.12794 9.12446C2.14367 8.99134 2.19685 8.86542 2.2813 8.76132L9.2938 1.53632C9.3464 1.47561 9.41808 1.43458 9.49707 1.41997C9.57607 1.40536 9.65768 1.41804 9.72852 1.45593C9.79936 1.49382 9.85521 1.55467 9.88691 1.62848C9.91861 1.7023 9.92427 1.7847 9.90296 1.86216L8.54296 6.12632C8.50286 6.23365 8.48939 6.34911 8.50371 6.46279C8.51804 6.57646 8.55972 6.68497 8.62519 6.779C8.69066 6.87303 8.77797 6.94977 8.87962 7.00265C8.98126 7.05552 9.09422 7.08295 9.2088 7.08257H14.1671C14.3012 7.08212 14.4326 7.1197 14.5461 7.19096C14.6596 7.26223 14.7506 7.36424 14.8085 7.48515C14.8663 7.60606 14.8887 7.74091 14.873 7.87402C14.8573 8.00714 14.8041 8.13306 14.7196 8.23716L7.70713 15.4622C7.65453 15.5229 7.58285 15.5639 7.50385 15.5785C7.42486 15.5931 7.34324 15.5804 7.2724 15.5425C7.20157 15.5047 7.14571 15.4438 7.11402 15.37C7.08232 15.2962 7.07666 15.2138 7.09796 15.1363L8.45796 10.8722C8.49806 10.7648 8.51153 10.6494 8.49721 10.5357C8.48289 10.422 8.4412 10.3135 8.37573 10.2195C8.31026 10.1255 8.22296 10.0487 8.12131 9.99584C8.01966 9.94296 7.90671 9.91553 7.79213 9.91591H2.8338Z" stroke="#64748B" stroke-width="1.41667" stroke-linecap="round" stroke-linejoin="round"/>
</g>
<defs>
<clipPath id="clip0_148_6070">
<rect width="17" height="17" fill="white"/>
</clipPath>
</defs>
</svg>
