<svg width="12" height="12" viewBox="0 0 12 12" fill="none" xmlns="http://www.w3.org/2000/svg">
<g clip-path="url(#clip0_1_2469)">
<path d="M2 7.00033C1.90538 7.00065 1.81261 6.97412 1.73247 6.92381C1.65233 6.87351 1.58811 6.8015 1.54727 6.71615C1.50643 6.6308 1.49064 6.53562 1.50175 6.44165C1.51285 6.34769 1.55039 6.25881 1.61 6.18533L6.56 1.08533C6.59713 1.04247 6.64773 1.0135 6.70349 1.00319C6.75925 0.99288 6.81686 1.00183 6.86686 1.02858C6.91686 1.05532 6.95629 1.09827 6.97866 1.15038C7.00104 1.20249 7.00503 1.26065 6.99 1.31533L6.03 4.32533C6.00169 4.40109 5.99218 4.48259 6.00229 4.56283C6.0124 4.64307 6.04183 4.71967 6.08804 4.78604C6.13426 4.85241 6.19588 4.90658 6.26763 4.94391C6.33938 4.98123 6.41912 5.00059 6.5 5.00033H10C10.0946 5 10.1874 5.02653 10.2675 5.07684C10.3477 5.12714 10.4119 5.19915 10.4527 5.2845C10.4936 5.36985 10.5093 5.46503 10.4982 5.559C10.4871 5.65296 10.4496 5.74185 10.39 5.81533L5.44 10.9153C5.40287 10.9582 5.35227 10.9871 5.29651 10.9975C5.24074 11.0078 5.18313 10.9988 5.13313 10.9721C5.08313 10.9453 5.0437 10.9024 5.02133 10.8503C4.99895 10.7982 4.99496 10.74 5.01 10.6853L5.97 7.67533C5.9983 7.59956 6.00781 7.51807 5.9977 7.43782C5.98759 7.35758 5.95817 7.28099 5.91195 7.21461C5.86574 7.14824 5.80411 7.09407 5.73236 7.05675C5.66061 7.01942 5.58087 7.00006 5.5 7.00033H2Z" stroke="white" stroke-width="1.25" stroke-linecap="round" stroke-linejoin="round"/>
</g>
<defs>
<clipPath id="clip0_1_2469">
<rect width="12" height="12" fill="white"/>
</clipPath>
</defs>
</svg>
