<svg width="19" height="19" viewBox="0 0 19 19" fill="none" xmlns="http://www.w3.org/2000/svg">
<path d="M9.1099 3.03585C7.49922 3.03585 5.95451 3.67569 4.81559 4.81461C3.67667 5.95353 3.03682 7.49825 3.03682 9.10893H5.31423C5.7169 9.10893 6.10308 9.26889 6.38781 9.55362C6.67254 9.83835 6.8325 10.2245 6.8325 10.6272V14.4229C6.8325 14.8255 6.67254 15.2117 6.38781 15.4964C6.10308 15.7812 5.7169 15.9411 5.31423 15.9411H3.03682C2.63415 15.9411 2.24798 15.7812 1.96325 15.4964C1.67851 15.2117 1.51855 14.8255 1.51855 14.4229V9.10893C1.51855 4.91622 4.9172 1.51758 9.1099 1.51758C13.3026 1.51758 16.7013 4.91622 16.7013 9.10893V14.4229C16.7013 14.8255 16.5413 15.2117 16.2566 15.4964C15.9718 15.7812 15.5857 15.9411 15.183 15.9411H12.9056C12.5029 15.9411 12.1167 15.7812 11.832 15.4964C11.5473 15.2117 11.3873 14.8255 11.3873 14.4229V10.6272C11.3873 10.2245 11.5473 9.83835 11.832 9.55362C12.1167 9.26889 12.5029 9.10893 12.9056 9.10893H15.183C15.183 7.49825 14.5431 5.95353 13.4042 4.81461C12.2653 3.67569 10.7206 3.03585 9.1099 3.03585ZM3.03682 10.6272V14.4229H5.31423V10.6272H3.03682ZM12.9056 10.6272V14.4229H15.183V10.6272H12.9056Z" fill="#9333EA"/>
</svg>
