<svg width="18" height="18" viewBox="0 0 18 18" fill="none" xmlns="http://www.w3.org/2000/svg">
<path d="M1.43359 6.80853C1.43361 6.01106 1.67552 5.23236 2.12739 4.57526C2.57926 3.91816 3.21982 3.41359 3.96446 3.12819C4.70911 2.84278 5.52282 2.78997 6.29811 2.97672C7.07341 3.16348 7.77382 3.58101 8.30683 4.17419C8.34437 4.21433 8.38976 4.24633 8.44018 4.26821C8.4906 4.29009 8.54497 4.30138 8.59993 4.30138C8.6549 4.30138 8.70927 4.29009 8.75969 4.26821C8.81011 4.24633 8.8555 4.21433 8.89304 4.17419C9.42438 3.57716 10.1249 3.15611 10.9015 2.96709C11.6781 2.77806 12.4938 2.83003 13.2401 3.11606C13.9863 3.4021 14.6278 3.90864 15.0791 4.56826C15.5304 5.22789 15.7701 6.00931 15.7663 6.80853C15.7663 8.44963 14.6913 9.67507 13.6164 10.75L9.68062 14.5575C9.54709 14.7109 9.38245 14.8341 9.19764 14.9189C9.01283 15.0037 8.81209 15.0483 8.60874 15.0496C8.40539 15.0509 8.2041 15.0089 8.01823 14.9264C7.83237 14.8439 7.66618 14.7228 7.53072 14.5711L3.5835 10.75C2.50854 9.67507 1.43359 8.45679 1.43359 6.80853Z" stroke="#475569" stroke-width="1.43327" stroke-linecap="round" stroke-linejoin="round"/>
<path d="M2.30762 9.31681H6.80808L7.1664 8.60018L8.59966 11.825L10.0329 6.80859L11.1079 9.31681H14.8845" stroke="#475569" stroke-width="1.43327" stroke-linecap="round" stroke-linejoin="round"/>
</svg>
