<svg width="15" height="13" viewBox="0 0 15 13" fill="none" xmlns="http://www.w3.org/2000/svg">
<g clip-path="url(#clip0_148_7890)">
<path fill-rule="evenodd" clip-rule="evenodd" d="M10.9411 0.03125C9.46243 0.03125 8.26687 0.534169 7.5257 1.60975C7.5172 1.62209 7.50879 1.63447 7.50047 1.64686C7.49193 1.63471 7.48343 1.62222 7.47485 1.60975C6.73413 0.534837 5.53972 0.03125 4.32412 0.03125C3.13432 0.03125 2.08359 0.488601 1.3302 1.24378C0.576155 1.99962 0.120117 3.05366 0.120117 4.24533C0.120117 5.96807 0.922198 7.70457 2.19955 9.2136C3.55834 10.8188 5.45525 12.1669 7.50062 12.9676C9.18021 12.3962 11.1791 10.9513 12.6731 9.18631C13.9652 7.65989 14.8804 5.89374 14.8804 4.24533C14.8804 3.06904 14.4361 2.02686 13.7312 1.27311C13.0088 0.500769 12.0127 0.03125 10.9411 0.03125Z" fill="white"/>
</g>
<defs>
<clipPath id="clip0_148_7890">
<rect width="15" height="13" fill="white"/>
</clipPath>
</defs>
</svg>
