<svg width="18" height="18" viewBox="0 0 18 18" fill="none" xmlns="http://www.w3.org/2000/svg">
<path d="M8.67151 2.44902C8.70389 2.39022 8.75144 2.34119 8.80923 2.30704C8.86701 2.2729 8.9329 2.25488 9.00001 2.25488C9.06713 2.25488 9.13302 2.2729 9.1908 2.30704C9.24858 2.34119 9.29614 2.39022 9.32851 2.44902L11.5425 6.65202C11.5953 6.74934 11.669 6.83376 11.7583 6.89923C11.8476 6.9647 11.9503 7.00958 12.059 7.03066C12.1677 7.05174 12.2797 7.04849 12.387 7.02115C12.4943 6.99381 12.5942 6.94305 12.6795 6.87252L15.8873 4.12452C15.9488 4.07443 16.0247 4.04518 16.104 4.04097C16.1832 4.03675 16.2618 4.0578 16.3283 4.10108C16.3949 4.14435 16.446 4.20762 16.4743 4.28178C16.5025 4.35594 16.5066 4.43717 16.4858 4.51377L14.3603 12.1983C14.3169 12.3555 14.2234 12.4943 14.094 12.5937C13.9646 12.693 13.8064 12.7475 13.6433 12.7488H4.35751C4.19426 12.7476 4.03585 12.6933 3.90631 12.5939C3.77677 12.4945 3.68318 12.3556 3.63976 12.1983L1.51501 4.51452C1.4942 4.43792 1.49823 4.35669 1.52652 4.28253C1.55481 4.20837 1.6059 4.1451 1.67244 4.10183C1.73898 4.05855 1.81753 4.0375 1.89679 4.04172C1.97605 4.04593 2.05194 4.07518 2.11351 4.12527L5.32051 6.87327C5.40586 6.9438 5.50577 6.99456 5.61306 7.0219C5.72035 7.04924 5.83237 7.05249 5.94106 7.03141C6.04976 7.01033 6.15244 6.96545 6.24173 6.89998C6.33102 6.83451 6.40472 6.75009 6.45751 6.65277L8.67151 2.44902Z" stroke="white" stroke-width="1.5" stroke-linecap="round" stroke-linejoin="round"/>
<path d="M3.75 15.75H14.25" stroke="white" stroke-width="1.5" stroke-linecap="round" stroke-linejoin="round"/>
</svg>
