<svg width="20" height="22" viewBox="0 0 20 22" fill="none" xmlns="http://www.w3.org/2000/svg">
<mask id="mask0_59_3331" style="mask-type:luminance" maskUnits="userSpaceOnUse" x="0" y="0" width="20" height="22">
<path d="M18 10H2C1.44772 10 1 10.4477 1 11V20C1 20.5523 1.44772 21 2 21H18C18.5523 21 19 20.5523 19 20V11C19 10.4477 18.5523 10 18 10Z" fill="#555555" stroke="white" stroke-width="2" stroke-linejoin="round"/>
<path d="M5 10V6C5 3.2385 7.2385 1 10 1C12.7615 1 15 3.2385 15 6V10M10 14V17" stroke="white" stroke-width="2" stroke-linecap="round" stroke-linejoin="round"/>
</mask>
<g mask="url(#mask0_59_3331)">
<path d="M-2 -1H22V23H-2V-1Z" fill="black"/>
</g>
</svg>
