<svg width="14" height="14" viewBox="0 0 14 14" fill="none" xmlns="http://www.w3.org/2000/svg">
<path d="M11.0833 1.75H2.91667C2.27233 1.75 1.75 2.27233 1.75 2.91667V11.0833C1.75 11.7277 2.27233 12.25 2.91667 12.25H11.0833C11.7277 12.25 12.25 11.7277 12.25 11.0833V2.91667C12.25 2.27233 11.7277 1.75 11.0833 1.75Z" stroke="white" stroke-width="1.16667" stroke-linecap="round" stroke-linejoin="round"/>
<path d="M5.24967 6.41536C5.89401 6.41536 6.41634 5.89303 6.41634 5.2487C6.41634 4.60437 5.89401 4.08203 5.24967 4.08203C4.60534 4.08203 4.08301 4.60437 4.08301 5.2487C4.08301 5.89303 4.60534 6.41536 5.24967 6.41536Z" stroke="white" stroke-width="1.16667" stroke-linecap="round" stroke-linejoin="round"/>
<path d="M12.25 8.75113L10.4498 6.95096C10.2311 6.73224 9.93436 6.60938 9.625 6.60938C9.31564 6.60938 9.01895 6.73224 8.80017 6.95096L3.5 12.2511" stroke="white" stroke-width="1.16667" stroke-linecap="round" stroke-linejoin="round"/>
</svg>
