<svg width="14" height="14" viewBox="0 0 14 14" fill="none" xmlns="http://www.w3.org/2000/svg">
<path d="M5.98926 12.25C6.09166 12.4273 6.23893 12.5746 6.41628 12.677C6.59363 12.7794 6.79481 12.8333 6.99959 12.8333C7.20437 12.8333 7.40555 12.7794 7.5829 12.677C7.76025 12.5746 7.90752 12.4273 8.00992 12.25" stroke="#FF61AD" stroke-width="1.16667" stroke-linecap="round" stroke-linejoin="round"/>
<path d="M1.90241 8.94147C1.8262 9.02499 1.77591 9.12886 1.75766 9.24044C1.7394 9.35202 1.75396 9.4665 1.79957 9.56995C1.84518 9.67341 1.91987 9.76138 2.01456 9.82316C2.10924 9.88495 2.21984 9.91789 2.33291 9.91797H11.6662C11.7793 9.91801 11.8899 9.8852 11.9847 9.82353C12.0794 9.76186 12.1542 9.67399 12.1999 9.5706C12.2457 9.46721 12.2604 9.35277 12.2422 9.24118C12.2241 9.12959 12.174 9.02567 12.0979 8.94205C11.3221 8.1423 10.4996 7.29239 10.4996 4.66797C10.4996 3.73971 10.1308 2.84947 9.47445 2.19309C8.81807 1.53672 7.92783 1.16797 6.99957 1.16797C6.07132 1.16797 5.18108 1.53672 4.5247 2.19309C3.86832 2.84947 3.49957 3.73971 3.49957 4.66797C3.49957 7.29239 2.67649 8.1423 1.90241 8.94147Z" stroke="#FF61AD" stroke-width="1.16667" stroke-linecap="round" stroke-linejoin="round"/>
</svg>
