<svg width="20" height="20" viewBox="0 0 20 20" fill="none" xmlns="http://www.w3.org/2000/svg">
<g clip-path="url(#clip0_148_8054)">
<path d="M12.9453 8.0918C12.9453 8.95012 12.6043 9.7733 11.9974 10.3802C11.3905 10.9872 10.5673 11.3281 9.70898 11.3281C8.85066 11.3281 8.02748 10.9872 7.42055 10.3802C6.81363 9.7733 6.47266 8.95012 6.47266 8.0918" stroke="#475569" stroke-width="1.61816" stroke-linecap="round" stroke-linejoin="round"/>
<path d="M2.51074 4.88086H16.9075" stroke="#475569" stroke-width="1.61816" stroke-linecap="round" stroke-linejoin="round"/>
<path d="M2.75137 4.42423C2.54129 4.70433 2.42773 5.045 2.42773 5.39513V16.1826C2.42773 16.6118 2.59822 17.0234 2.90168 17.3268C3.20515 17.6303 3.61673 17.8008 4.0459 17.8008H15.373C15.8022 17.8008 16.2138 17.6303 16.5173 17.3268C16.8207 17.0234 16.9912 16.6118 16.9912 16.1826V5.39513C16.9912 5.045 16.8777 4.70433 16.6676 4.42423L15.0494 2.26641C14.8987 2.06544 14.7032 1.90232 14.4785 1.78997C14.2539 1.67763 14.0061 1.61914 13.7549 1.61914H5.66406C5.41285 1.61914 5.16509 1.67763 4.9404 1.78997C4.71571 1.90232 4.52026 2.06544 4.36953 2.26641L2.75137 4.42423Z" stroke="#475569" stroke-width="1.61816" stroke-linecap="round" stroke-linejoin="round"/>
</g>
<defs>
<clipPath id="clip0_148_8054">
<rect width="19.418" height="19.418" fill="white"/>
</clipPath>
</defs>
</svg>
