<svg width="13" height="13" viewBox="0 0 13 13" fill="none" xmlns="http://www.w3.org/2000/svg">
<path d="M6.14031 0.756006C6.16587 0.704358 6.20536 0.660883 6.25432 0.630487C6.30328 0.600091 6.35976 0.583984 6.41739 0.583984C6.47502 0.583984 6.5315 0.600091 6.58046 0.630487C6.62942 0.660883 6.66891 0.704358 6.69447 0.756006L8.04197 3.48542C8.13074 3.66507 8.26178 3.82049 8.42384 3.93835C8.5859 4.05621 8.77413 4.13299 8.97239 4.16209L11.9859 4.60309C12.043 4.61136 12.0966 4.63545 12.1408 4.67262C12.1849 4.7098 12.2177 4.75858 12.2356 4.81344C12.2534 4.86831 12.2555 4.92708 12.2417 4.98309C12.2279 5.03911 12.1987 5.09014 12.1574 5.13042L9.97806 7.25259C9.83433 7.39265 9.7268 7.56554 9.66471 7.75637C9.60262 7.94721 9.58784 8.15027 9.62164 8.34809L10.1361 11.3464C10.1462 11.4035 10.1401 11.4623 10.1183 11.516C10.0966 11.5697 10.0603 11.6163 10.0134 11.6503C9.96648 11.6844 9.91096 11.7046 9.85315 11.7086C9.79533 11.7126 9.73755 11.7003 9.68639 11.6731L6.99256 10.2568C6.81506 10.1636 6.61758 10.1149 6.4171 10.1149C6.21662 10.1149 6.01914 10.1636 5.84164 10.2568L3.14839 11.6731C3.09725 11.7002 3.03954 11.7123 2.98182 11.7082C2.9241 11.7041 2.86869 11.6839 2.8219 11.6499C2.7751 11.6158 2.73879 11.5694 2.71711 11.5157C2.69542 11.4621 2.68922 11.4034 2.69922 11.3464L3.21314 8.34867C3.24709 8.15077 3.23238 7.94757 3.17029 7.75662C3.10819 7.56566 3.00058 7.39268 2.85672 7.25259L0.677391 5.13101C0.635737 5.09077 0.60622 5.03965 0.592202 4.98347C0.578184 4.92728 0.580229 4.86828 0.598104 4.8132C0.615978 4.75812 0.648963 4.70916 0.693302 4.67191C0.737641 4.63466 0.791551 4.61061 0.848891 4.60251L3.86181 4.16209C4.06029 4.13321 4.24878 4.05654 4.41106 3.93866C4.57335 3.82079 4.70455 3.66525 4.79339 3.48542L6.14031 0.756006Z" stroke="#FF61AD" stroke-width="1.16667" stroke-linecap="round" stroke-linejoin="round"/>
</svg>
