<svg width="18" height="18" viewBox="0 0 18 18" fill="none" xmlns="http://www.w3.org/2000/svg">
<path d="M13.109 14.1415L11.7834 8.10228L14.3611 5.52457C15.4658 4.41983 15.8341 2.94685 15.4658 2.21036C14.7293 1.84211 13.2563 2.21036 12.1516 3.31509L9.57389 5.89281L3.53467 4.56713C3.16642 4.49348 2.87183 4.64078 2.72453 4.93537L2.50358 5.30362C2.35628 5.67186 2.42993 6.04011 2.72453 6.26106L6.62793 8.83878L5.15495 11.0482H2.94548L2.20898 11.7847L4.41846 13.2577L5.89144 15.4672L6.62793 14.7307V12.5212L8.8374 11.0482L11.4151 14.9516C11.6361 15.2462 12.0043 15.3199 12.3726 15.1726L12.7408 15.0253C13.0354 14.8044 13.1827 14.5098 13.109 14.1415Z" stroke="#475569" stroke-width="1.47298" stroke-linecap="round" stroke-linejoin="round"/>
</svg>
